<?xml version="1.0" encoding="utf-8"?>
<!-- Generator: Adobe Illustrator 27.5.0, SVG Export Plug-In . SVG Version: 6.00 Build 0)  -->
<svg version="1.1" xmlns="http://www.w3.org/2000/svg" xmlns:xlink="http://www.w3.org/1999/xlink" x="0px" y="0px"
	 viewBox="0 0 2122 2122" style="enable-background:new 0 0 2122 2122;" xml:space="preserve">
<g id="Capa_3">
</g>
<g id="Capa_4">
	<g>
		<path style="fill:#EBD6DA;" d="M1427.022,1270.036c-2.689-7.069-5.489-14.111-8.395-21.126
			c24.04-27.823,40.879-61.784,41.852-97.547c0.121-4.463,0.106-9.155-0.083-13.986c-0.818-21.108-4.91-44.828-15.115-63.328
			c-0.334-0.827-0.68-1.666-1.038-2.518c-7.849-18.738-20.781-43.641-39.001-56.296c-9.164-6.368-19.665-9.636-31.529-7.463
			c-12.88,2.358-24.573,8.926-35.589,16c-11.349,7.287-22.278,15.228-32.72,23.765c-13.707-17.932-28.005-34.772-42.833-50.248
			c-6.541-6.844-13.187-13.422-19.929-19.713c7.751-6.969,15.445-14.162,23.182-20.733c-2.25,4.419-4.569,8.838-7.004,13.145
			c-1.911,3.406,2.882,7.527,5.579,4.342c8.278-9.771,15.541-20.071,20.222-31.83c1.536-1.048,2.958-2.134,4.38-3.22
			c-1.684,4.345-3.032,8.652-3.07,13.707c-0.035,3.406,3.521,4.904,6.294,3.632c13.742-6.479,21.12-27.938,20.743-44.338
			c0.3-0.486,0.639-1.01,0.901-1.534c0.262,2.694,0.598,5.391,1.084,8.087c0.712,3.821,7.154,4.869,8.764,1.124
			c5.991-13.819,7.901-29.884,6.141-44.824c-0.974-8.164-3.633-22.583-10.598-29.283l-0.336-0.339
			c-0.374-1.31-0.748-2.62-1.163-3.933c3.073,5.093,6.406,9.962,10.563,14.192c3.745,3.783,8.876-0.262,8.199-4.754
			c-2.134-14.081-9.921-31.12-17.637-43.102c-7.301-11.46-18.499-17.902-29.245-25.615c-0.374-0.448-0.824-0.824-1.275-1.16
			c3.632,0.412,7.266,0.824,10.898,1.086c4.719,0.336,5.166-5.693,2.172-7.978c-7.604-5.767-17.937-8.164-27.676-7.975
			c-0.598-0.674-0.936-1.01-0.936-1.01c-11.797-22.583-23.593-45.124-35.386-67.669c-8.177-15.618-16.486-31.403-25.61-46.593
			c1.802,0.401,3.59,0.88,5.333,1.474c3.38,1.13,6.271,2.337,9.874,1.713c3.006-0.506,3.756-4.321,2.629-6.659
			c-1.613-3.423-5.069-5.373-8.973-6.462c9.688-3.503,18.926-8.761,27.526-14.019c3.865-2.373,1.313-8.953-3.044-7.551
			c-1.163,0.35-2.364,0.701-3.53,1.09c6.497-5.803,11.416-13.628,13.595-22.039c0.939-3.7-4.092-7.436-6.647-4.01
			c-0.751,0.972-1.502,1.946-2.252,2.921c0.901-1.637,1.764-3.271,2.629-4.908c11.151-21.688,19.188-44.697,24.858-68.448
			c9.123-38.041,12.129-77.991,12.052-117.277c-0.189-74.328-12.318-152.239-56.099-211.073
			c-15.135-20.363-34.547-38.43-58.242-46.022c-15.735-5.06-33.458-4.672-48.516,1.675c1.428-0.895,2.891-1.79,4.395-2.65
			c3.115-1.79,1.875-7.707-1.917-7.318c-21.479,2.258-35.485,22.506-38.527,43.452c-0.3-1.013-0.527-2.026-0.827-2.997
			c-1.236-3.895-7.434-4.557-8.299,0c-4.619,24.452,1.128,54.821,10.966,79.156c7.021,57.86,19.601,114.863,27.449,172.643
			c2.217,16.315,4.018,32.707,5.258,49.137c-2.706-9.109-6.009-17.793-9.727-25.424c-1.313-2.764-4.619-1.869-5.743,0.312
			c-0.3,0.663-0.412,1.44-0.227,2.297c3.68,15.302,8.26,30.293,10.777,45.866c2.253,13.978,2.029,28.111,3.83,42.051
			c-0.821,5.423-1.65,11.063-2.205,16.602c-5.945-1.956-12.06-3.58-18.255-4.856c0.45-0.077,0.898-0.115,1.349-0.227
			c3.633-0.786,4.006-5.917,1.009-7.713c-7.863-4.719-21.567-5.543-32.465-2.246c-0.15-2.211-1.872-4.345-4.457-4.534
			c-15.691-1.122-37.408,8.614-47.594,20.522l-0.3,0.451c-4.707,1.923-9.325,4.039-13.853,6.328
			c-0.344-7.906-1.571-16.351-2.777-24.327c1.805-13.939,1.578-28.073,3.83-42.051c2.517-15.573,7.098-30.564,10.778-45.866
			c0.188-0.857,0.076-1.634-0.224-2.297c-1.128-2.181-4.431-3.076-5.746-0.312c-3.718,7.631-7.022,16.315-9.727,25.424
			c1.239-16.43,3.044-32.822,5.257-49.137c7.849-57.78,20.428-114.783,27.452-172.643c9.836-24.335,15.582-54.704,10.963-79.156
			c-0.863-4.557-7.06-3.895-8.299,0c-0.3,0.971-0.527,1.984-0.827,2.997c-3.041-20.946-17.045-41.194-38.527-43.452
			c-3.792-0.389-5.031,5.528-1.914,7.318c1.502,0.86,2.968,1.755,4.392,2.65c-15.058-6.347-32.78-6.736-48.516-1.675
			c-23.692,7.592-43.108,25.659-58.239,46.022c-43.785,58.834-55.914,136.745-56.102,211.073
			c-0.073,39.286,2.93,79.235,12.055,117.277c5.67,23.751,13.704,46.761,24.858,68.448c0.863,1.637,1.725,3.271,2.629,4.908
			c-0.751-0.974-1.505-1.949-2.255-2.921c-2.552-3.427-7.584,0.309-6.644,4.01c2.175,8.411,7.094,16.236,13.592,22.039
			c-1.162-0.389-2.364-0.739-3.53-1.09c-4.354-1.401-6.909,5.179-3.041,7.551c8.599,5.258,17.837,10.515,27.526,14.019
			c-3.906,1.089-7.36,3.038-8.976,6.462c-1.128,2.338-0.377,6.153,2.629,6.659c3.604,0.624,6.497-0.583,9.874-1.713
			c3.194-1.09,6.536-1.79,9.842-2.338c1.725-0.271,2.965-1.907,3.341-3.659c0.312,0.2,0.626,0.397,0.939,0.593
			c-26.815,36.313-45.822,77.776-62.57,119.686l-0.076,0.188c-2.771-0.262-5.579-0.112-8.311,0.262
			c-7.566,1.087-12.585,4.381-17.714,9.774c-4.157,4.419,1.086,11.157,6.441,8.349c1.31-0.709,2.808-1.272,4.343-1.834
			c-1.234,1.572-2.547,3.297-3.857,5.093c-11.72,8.201-22.168,19.548-30.82,29.957c-10.186,12.247-20.218,27.414-20.969,43.741
			c-0.223,5.617,7.228,6.889,9.998,2.694c1.61-2.47,3.185-4.905,4.681-7.375c-1.01,2.547-1.984,5.093-2.808,7.714l0.15-0.189
			c-0.186,0.488-0.374,0.974-0.562,1.46l-0.112,0.377c-0.262,0.86-0.524,1.722-0.748,2.582c-0.15,0.412-0.224,0.863-0.336,1.313
			c-0.974,3.857-1.648,7.898-2.023,12.244c-1.201,14.605-1.201,34.191,9.736,45.163c1.946,1.984,5.803,1.534,7.001-1.013
			c3.409,17.189,10.825,34.9,20.896,44.824c3.783,3.709,9.064-0.15,8.278-4.793c-1.425-8.276-4.795-15.989-7.866-23.817
			c11.54,16.256,20.073,33.206,35.321,46.034c-2.523,2.528-5.03,5.096-7.522,7.704c-14.353,14.992-28.208,31.263-41.511,48.562
			c-9.781-7.869-19.98-15.219-30.544-22.002c-11.016-7.075-22.709-13.642-35.589-16c-11.864-2.173-22.365,1.095-31.529,7.463
			c-18.217,12.656-31.153,37.558-39.001,56.296c-0.358,0.855-0.706,1.697-1.041,2.526c-10.204,18.499-14.294,42.215-15.113,63.32
			c-0.189,4.831-0.203,9.524-0.082,13.986c0.942,34.576,16.714,67.467,39.485,94.756c-1.391,3.359-2.766,6.722-4.117,10.089
			c-42.101,104.047-66.506,212.032-66.506,296.305c0,13.595,0.616,27.034,1.931,40.32c3.936,42.33,14.058,82.96,29.504,120.809
			c63.571,156.187,216.902,266.256,395.947,266.256c151.782,0,285.106-79.097,360.883-198.437
			c19.775-30.976,35.53-64.574,46.729-100.34c12.9-40.552,19.775-83.807,19.775-128.608
			C1488.044,1472.026,1465.8,1369.755,1427.022,1270.036z M857.275,952.237c6.53,8.932,13.792,17.326,21.689,25.064
			c-3.287,3.062-6.55,6.193-9.79,9.39C868.253,974.437,864.129,962.43,857.275,952.237z"/>
		<g>
			<path style="fill:#F9EBEE;" d="M893.188,593.683c5.258,0.545,9.123-5.217,10.1-10.592c0.37-2.116,0.495-4.293,0.642-6.458
				c-4.463-14.291-8.278-28.798-11.419-43.456c-4.955-23.168-8.299-46.764-9.839-70.436c-3.68,9.382-5.782,19.35-6.27,29.474
				c-0.15,2.841-0.15,5.685-0.035,8.526c0.035,1.054-1.428,1.248-1.617,0.197c-0.488-2.767-0.939-5.49-1.278-8.254
				c-5.331-41.08,4.734-82.741,16.112-125.025c2.364-8.8,5.293-18.223,12.465-23.516c7.999,12.265,11.717,27.449,10.327,42.166
				c2.063-15.847,6.459-30.019,10.439-45.439c2.291-8.876,5.408-18.414,12.841-23.439c9.427,13.512,7.36,31.968,4.92,48.439
				c5.408-10.047,7.848-21.455,11.79-32.201c3.945-10.707,10.027-21.417,19.977-26.554c5.82,6.968,7.66,16.548,8.749,25.697
				c2.629,22.66,2.066,45.71-1.725,68.175c1.239-4.786,3.866-7.863,7.81-11.99c5.564,36.611-5.772,72.875-14.449,109.248
				c1.06,4.921,2.121,9.841,3.182,14.761c0.677,3.155,1.501,6.582,4.057,8.452c6.27,4.554,13.365-4.44,16.109-11.838
				c6.383-17.287,12.768-34.614,19.188-51.901c-1.128-2.181-4.431-3.076-5.746-0.312c-3.718,7.631-7.022,16.315-9.727,25.424
				c1.239-16.43,3.044-32.822,5.257-49.137c7.849-57.78,20.428-114.783,27.452-172.643c9.836-24.335,15.582-54.704,10.963-79.156
				c-0.863-4.557-7.06-3.895-8.299,0c-0.3,0.971-0.527,1.984-0.827,2.997c-3.041-20.946-17.045-41.194-38.527-43.452
				c-3.792-0.389-5.031,5.528-1.914,7.318c1.502,0.86,2.968,1.755,4.392,2.65c-15.058-6.347-32.78-6.736-48.516-1.675
				c-23.692,7.592-43.108,25.659-58.239,46.022c-43.785,58.834-55.914,136.745-56.102,211.073
				c-0.073,39.286,2.93,79.235,12.055,117.277c10.775,21.882,23.207,42.869,37.176,62.726
				C886.841,589.944,889.508,593.294,893.188,593.683z"/>
			<path style="fill:#F9EBEE;" d="M1141.348,521.458c2.552-1.869,3.38-5.296,4.054-8.452c1.063-4.922,2.124-9.844,3.183-14.766
				c-8.68-36.372-20.014-72.634-14.447-109.243c3.942,4.127,6.571,7.204,7.81,11.99c-3.792-22.465-4.357-45.516-1.728-68.175
				c1.09-9.149,2.93-18.729,8.749-25.697c9.951,5.137,16.036,15.847,19.978,26.554c3.942,10.745,6.382,22.153,11.791,32.201
				c-2.441-16.471-4.507-34.927,4.919-48.439c7.436,5.025,10.551,14.564,12.841,23.439c3.98,15.42,8.376,29.592,10.439,45.439
				c-1.389-14.717,2.329-29.901,10.327-42.166c7.171,5.293,10.101,14.717,12.468,23.516c11.378,42.284,21.44,83.945,16.109,125.025
				c-0.339,2.765-0.789,5.488-1.278,8.254c-0.186,1.051-1.651,0.857-1.613-0.197c0.112-2.841,0.112-5.685-0.038-8.526
				c-0.489-10.124-2.591-20.092-6.271-29.474c-1.54,23.672-4.881,47.268-9.838,70.436c-3.142,14.659-6.957,29.167-11.42,43.458
				c0.147,2.165,0.272,4.341,0.642,6.456c0.977,5.376,4.845,11.137,10.1,10.592c3.68-0.389,6.347-3.739,8.526-6.854
				c13.969-19.856,26.398-40.844,37.176-62.726c9.123-38.041,12.129-77.991,12.052-117.277
				c-0.189-74.328-12.318-152.239-56.099-211.073c-15.135-20.363-34.547-38.43-58.242-46.022
				c-15.735-5.06-33.458-4.672-48.516,1.675c1.428-0.895,2.891-1.79,4.395-2.65c3.115-1.79,1.875-7.707-1.917-7.318
				c-21.479,2.258-35.485,22.506-38.527,43.452c-0.3-1.013-0.527-2.026-0.827-2.997c-1.236-3.895-7.434-4.557-8.299,0
				c-4.619,24.452,1.128,54.821,10.966,79.156c7.021,57.86,19.601,114.863,27.449,172.643c2.217,16.315,4.018,32.707,5.258,49.137
				c-2.706-9.109-6.009-17.793-9.727-25.424c-1.313-2.764-4.619-1.869-5.743,0.312c6.421,17.287,12.803,34.614,19.188,51.901
				C1127.98,517.018,1135.078,526.011,1141.348,521.458z"/>
			<path style="fill:#F9EBEE;" d="M1336.524,851.017c-2.134-14.081-9.921-31.12-17.637-43.102
				c-7.301-11.46-18.499-17.902-29.245-25.615c-0.374-0.448-0.824-0.824-1.275-1.16c3.632,0.412,7.266,0.824,10.898,1.086
				c4.719,0.336,5.166-5.693,2.172-7.978c-7.604-5.767-17.937-8.164-27.676-7.975c-0.598-0.674-0.936-1.01-0.936-1.01
				c-11.797-22.583-23.593-45.124-35.386-67.669c-8.177-15.618-16.486-31.403-25.61-46.593c-4.502-7.495-9.203-14.845-14.184-21.958
				c-10.124-14.457-21.407-27.938-34.54-39.67c-1.543-1.38-3.141-2.719-4.794-4.017c-11.333-8.907-25.174-15.915-40.086-20.822
				c-5.945-1.956-12.06-3.58-18.255-4.856c0.45-0.077,0.898-0.115,1.349-0.227c3.633-0.786,4.006-5.917,1.009-7.713
				c-7.863-4.719-21.567-5.543-32.465-2.246c-0.15-2.211-1.872-4.345-4.457-4.534c-15.691-1.122-37.408,8.614-47.594,20.522
				l-0.3,0.451c-4.707,1.923-9.325,4.039-13.853,6.328c-14.246,7.204-27.59,16.147-39.961,26.372
				c-13.776,11.39-26.344,24.367-37.595,38.303c-2.513,3.112-4.959,6.271-7.339,9.471c-0.165,0.221-0.327,0.444-0.492,0.667
				c-26.815,36.313-45.822,77.776-62.57,119.686l-0.076,0.188c-2.771-0.262-5.579-0.112-8.311,0.262
				c-7.566,1.087-12.585,4.381-17.714,9.774c-4.157,4.419,1.086,11.157,6.441,8.349c1.31-0.709,2.808-1.272,4.343-1.834
				c-1.234,1.572-2.547,3.297-3.857,5.093c-11.72,8.201-22.168,19.548-30.82,29.957c-10.186,12.247-20.218,27.414-20.969,43.741
				c-0.223,5.617,7.228,6.889,9.998,2.694c1.61-2.47,3.185-4.905,4.681-7.375c-1.01,2.547-1.984,5.093-2.808,7.714l0.15-0.189
				c-0.186,0.488-0.374,0.974-0.562,1.46l-0.112,0.377c-0.262,0.86-0.524,1.722-0.748,2.582c-0.15,0.412-0.224,0.863-0.336,1.313
				c-3.073,13.256,0.448,27.97,9.509,38.194c2.511,2.809,5.805,5.467,9.55,5.131c2.808-0.262,5.167-2.172,7.301-4.007
				c5.732-4.869,11.349-9.812,16.889-14.943c-0.801,6.182-0.475,12.529,0.936,18.618c1.083,4.666,7.207,5.897,10.216,2.169
				c7.681-9.515,15.358-19.026,23.039-28.538c1.722,7.228,1.61,18.049,5.767,24.193c1.383,2.058,3.256,4.192,5.69,4.192
				c2.284,0,4.118-1.835,5.582-3.557c7.077-8.426,13.03-17.825,17.599-27.823c-3.444,7.228,2.584,13.068,10.448,14.529
				c7.902,1.425,15.803-2.358,22.545-6.703c13.892-8.95,25.723-21.008,34.449-35.051c-2.358,4.419,1.911,10.86,7.154,10.672
				c5.54-0.224,9.924-4.716,13.106-9.285c3.144-4.569,5.879-9.736,10.598-12.659c0.424,11.846,4.852,24.49,14.083,31.465
				c-3.263-4.695-4.665-10.401-2.922-15.3c0.647-1.825,3.465-1.401,3.609,0.441c0.707,9.117,7.263,18.411,18.126,18.6
				c10.13,0.177,18.464-4.76,20.699-13.789c1.94-10.455,2.449-21.282,1.614-31.826c-5.914,0.572-11.661-2.806-16.655-5.841
				c-3.25-1.979-6.35-4.216-9.268-6.659c-0.474-0.395-0.965-0.874-1.466-1.378c-5.558,2.308-10.713-3.253-11.408-9.208
				c-0.312-2.65,2.735-4.29,4.949-3.771c6.197,1.454,9.839,6.45,14.614,10.277c5.057,4.051,11.093,7.919,17.381,10.13
				c1.239,0.435,2.605,0.435,3.844,0c6.285-2.211,12.323-6.079,17.378-10.13c4.775-3.827,8.42-8.823,14.613-10.277
				c2.214-0.518,5.261,1.122,4.952,3.771c-0.698,5.955-5.85,11.517-11.41,9.208c-0.5,0.504-0.992,0.983-1.463,1.378
				c-2.921,2.444-6.02,4.681-9.271,6.659c-4.218,2.565-8.979,5.377-13.922,5.839c1.647,10.951,1.303,21.37-0.81,32.155
				c2.37,8.85,10.666,13.433,20.596,13.462c0.019,0,0.037,0,0.056,0c1.129-0.12,2.235-0.32,3.303-0.603
				c2.655-0.706,5.133-1.868,7.48-3.275c4.347-3.633,6.865-9.3,7.286-14.722c0.144-1.857,2.964-2.252,3.609-0.441
				c0.168,0.47,0.305,0.949,0.415,1.432c0.524-2.658,0.642-5.463,0.719-8.159c2.246,3.818,6.217,5.729,10.148,7.789
				c0.901,0.448,1.872,0.898,2.885,0.937c2.208,0.035,4.118-1.837,4.866-3.933c0.712-2.096,0.524-4.38,0.3-6.626
				c4.23,7.563,9.812,16.062,15.726,22.43c1.611,1.76,3.336,3.482,5.582,4.345c2.208,0.86,5.016,0.636,6.553-1.163
				c0.898-1.048,1.272-2.435,1.499-3.783c0.636-3.668,0.486-7.451-0.412-11.046c12.656,5.991,25.912,11.684,39.769,13.704
				c13.854,2.022,28.347,1.051,41.303-4.304c0.524,4.604,0.86,9.886,3.556,13.669c0.489,0.636,1.048,1.31,1.799,1.572
				c1.422,0.447,2.808-0.636,3.821-1.687c3.668-3.744,6.438-8.349,8.049-13.33c0.974,7.004,4.007,13.857,7.528,20.033
				c2.211,3.822,5.617,7.79,10.036,7.566c3.109-0.15,5.655-2.396,7.828-4.607c4.118-4.231,7.751-8.911,10.822-13.931
				c0.712,9.85,10.148,17.151,19.436,13.745c9.285-3.447,14.79-13.445,15.838-23.292c1.013-9.326-1.348-18.612-3.783-27.673
				l-0.336-0.339c-0.374-1.31-0.748-2.62-1.163-3.933c3.073,5.093,6.406,9.962,10.563,14.192
				C1332.07,859.554,1337.201,855.509,1336.524,851.017z"/>
			<path style="fill:#4D0F0F;" d="M1101.37,862.604c-0.421,5.421-2.939,11.089-7.286,14.722c-2.839,2.374-6.459,3.879-10.783,3.878
				c-0.019,0-0.037,0-0.056,0c-9.93-0.029-18.226-4.613-20.596-13.462c2.112-10.784,2.457-21.203,0.81-32.155
				c-0.927,0.087-1.862,0.091-2.8-0.005c-0.023,0.002-0.045,0.004-0.069,0.006c0.835,10.545,0.325,21.372-1.614,31.826
				c-2.235,9.029-10.569,13.966-20.699,13.789c-10.863-0.188-17.419-9.482-18.126-18.6c-0.144-1.843-2.962-2.266-3.609-0.441
				c-1.743,4.899-0.341,10.606,2.922,15.3c3.603,5.184,9.479,9.135,15.907,9.399c10.051,0.413,21.782-5.025,25.392-13.777
				c3.609,8.752,15.341,14.19,25.388,13.777c11.684-0.48,21.554-13.153,19.244-23.267c-0.11-0.483-0.247-0.962-0.415-1.432
				C1104.334,860.352,1101.514,860.747,1101.37,862.604z"/>
			<g>
				<path style="fill:#4D0F0F;" d="M970.645,753.853c-13.628,0-24.676,13.356-24.676,29.83c0,16.474,11.048,29.831,24.676,29.831
					c13.628,0,24.676-13.357,24.676-29.831C995.321,767.209,984.273,753.853,970.645,753.853z"/>
				<path style="fill:#4D0F0F;" d="M1151.59,753.853c-13.63,0-24.676,13.356-24.676,29.83c0,16.474,11.046,29.831,24.676,29.831
					c13.628,0,24.676-13.357,24.676-29.831C1176.266,767.209,1165.218,753.853,1151.59,753.853z"/>
			</g>
			<path style="fill:#A03232;" d="M966.902,785.904c1.404-1.072,2.521-2.469,3.257-4.211c0.069-0.172,0.736-1.789,0.76-1.844
				c-0.007,0.02-0.085,0.211-0.277,0.674c-0.459,1.121-0.371,0.924,0.262-0.595c0.336-0.601,0.565-1.239,0.695-1.908
				c0.424-1.522,0.756-3.056,0.874-4.637c0.065-0.865-0.023-1.578-0.144-2.467c-0.057-0.427-0.574-2.047-0.866-2.966
				c-1.404-3.071-4.582-6.183-8.237-5.707c-2.235,0.291-4.165,0.547-6.132,1.704c-2.173,1.281-3.819,3.306-4.937,5.532
				c-2.158,4.295-3.2,10.538,0.053,14.552c0.028,0.067,0.057,0.135,0.086,0.203c1.227,2.897,5.066,4.592,8.004,4.592
				C963.053,788.827,965.162,787.689,966.902,785.904z M967.645,785.077c-0.054,0.07-0.11,0.141-0.165,0.211
				c-0.009,0.006-0.019,0.011-0.029,0.017C967.517,785.229,967.582,785.153,967.645,785.077z"/>
			<path style="fill:#A03232;" d="M1139.361,783.781c2.538,1.116,5.876,1.869,8.355,0c1.837-1.383,3.315-2.65,4.23-4.822
				c0.465-1.104,0.957-2.322,1.245-3.494c0.904-3.635,1.428-7.398-0.609-10.798c-1.472-2.452-4.713-4.848-7.763-4.451
				c-1.804,0.236-3.479,0.3-5.087,1.337c-1.228,0.792-2.267,1.725-3.15,2.868c-1.272,1.645-2.158,3.703-2.579,5.755
				C1133.023,774.976,1134.4,781.599,1139.361,783.781z"/>
			<path style="fill:#FFFFFF;" d="M1052.483,811.406c2.496,1.107,5.072,2.111,7.777,2.49c8.964,1.248,24.09-7.348,29.289-14.581
				c3.188-4.442,0.745-9.082-3.479-11.799c-2.785-1.795-6.071-2.635-9.32-3.279c-3.621-0.718-21.273-1.967-34.247,0.265
				c-5.346,0.922-17.337,3.874-13.507,11.699C1032.061,802.463,1046.404,808.71,1052.483,811.406z"/>
			<path style="fill:#FFFFFF;" d="M1037.352,780.413c5.025,0.61,10.416-1.433,15.523-1.666c5.287-0.239,10.363,0.636,15.615,0.804
				c2.885,0.088,4.231-4.287,1.519-5.608c-9.241-4.505-26.578-5.947-34.95,0.939
				C1032.624,776.886,1034.902,780.115,1037.352,780.413z"/>
			<g>
				<path style="fill:#F28F89;" d="M874.75,500.938c0.189,1.051,1.652,0.857,1.617-0.197c-0.115-2.841-0.115-5.685,0.035-8.526
					c0.488-10.124,2.59-20.092,6.27-29.474c1.54,23.672,4.884,47.268,9.839,70.436c3.141,14.658,6.956,29.165,11.419,43.456
					c6.206,19.87,13.669,39.321,22.338,58.165c-0.137,0.699-0.189,1.414-0.165,2.136c11.252-13.936,23.82-26.914,37.595-38.303
					c-1.933-25.975-0.527-52.201,4.176-77.798c0.977-5.373,2.14-10.748,3.345-16.121c0.491-2.156,0.996-4.312,1.51-6.468
					c8.677-36.374,20.012-72.638,14.449-109.248c-3.945,4.127-6.571,7.204-7.81,11.99c3.792-22.465,4.354-45.516,1.725-68.175
					c-1.089-9.149-2.929-18.729-8.749-25.697c-9.951,5.137-16.033,15.847-19.977,26.554c-3.942,10.745-6.383,22.153-11.79,32.201
					c2.44-16.471,4.507-34.927-4.92-48.439c-7.433,5.025-10.551,14.564-12.841,23.439c-3.98,15.42-8.376,29.592-10.439,45.439
					c1.389-14.717-2.328-29.901-10.327-42.166c-7.171,5.293-10.1,14.717-12.465,23.516c-11.378,42.284-21.443,83.945-16.112,125.025
					C873.811,495.448,874.262,498.171,874.75,500.938z"/>
				<path style="fill:#F28F89;" d="M1150.097,504.712c1.201,5.373,2.364,10.748,3.342,16.121
					c3.905,21.242,5.536,42.917,4.874,64.523c1.653,1.298,3.251,2.638,4.794,4.017c13.133,11.733,24.415,25.213,34.54,39.67
					c7.57-17.04,14.161-34.554,19.737-52.409c4.463-14.291,8.278-28.799,11.42-43.458c4.957-23.168,8.299-46.764,9.838-70.436
					c3.68,9.382,5.782,19.35,6.271,29.474c0.15,2.841,0.15,5.685,0.038,8.526c-0.038,1.054,1.428,1.248,1.613,0.197
					c0.488-2.767,0.939-5.49,1.278-8.254c5.331-41.08-4.731-82.741-16.109-125.025c-2.367-8.8-5.296-18.223-12.468-23.516
					c-7.998,12.265-11.717,27.449-10.327,42.166c-2.063-15.847-6.459-30.019-10.439-45.439c-2.291-8.876-5.405-18.414-12.841-23.439
					c-9.426,13.512-7.36,31.968-4.919,48.439c-5.408-10.047-7.849-21.455-11.791-32.201c-3.942-10.707-10.027-21.417-19.978-26.554
					c-5.82,6.968-7.66,16.548-8.749,25.697c-2.629,22.66-2.063,45.71,1.728,68.175c-1.239-4.786-3.869-7.863-7.81-11.99
					c-5.567,36.609,5.767,72.871,14.447,109.243C1149.099,500.397,1149.606,502.555,1150.097,504.712z"/>
			</g>
			<path style="fill:#F9EBEE;" d="M741.973,1282.098c0.025,0.019,0.051,0.039,0.076,0.058c6.797,5.076,13.781,9.701,20.836,13.817
				c0.129,0.075,0.257,0.15,0.386,0.225c8.483,4.926,17.572,9.384,27.144,11.077c2.413,0.427,4.856,0.678,7.329,0.717
				c12.279,0.191,31.653-7.169,36.137-18.603c5.478,3.939,13.2,4.492,19.182,1.372c5.247-2.737,9.622-8.329,10.553-14.214
				c0.129-0.825,0.193-1.655,0.181-2.484c25.365-7.204,38.78-37.193,35.394-63.344c-3.385-26.148-19.453-48.796-36.522-68.891
				c-2.505-2.95-5.047-5.87-7.619-8.763c-2.704-3.043-5.443-6.054-8.219-9.033c-2.243-2.407-4.509-4.793-6.798-7.157
				c0-0.001-0.001-0.002-0.002-0.004c-5.917-6.114-11.982-12.083-18.191-17.9c-0.32-0.3-0.641-0.6-0.961-0.899
				c-8.238-7.68-16.726-15.093-25.443-22.224c-4.747-3.881-9.559-7.681-14.44-11.393c-15.794-12.014-33.981-23.619-53.779-22.253
				c-7.675,0.53-14.471,2.322-20.477,5.127c-11.918,5.565-20.728,15.118-27.131,26.727c-10.204,18.499-14.294,42.215-15.113,63.32
				c-0.189,4.831-0.203,9.524-0.082,13.986c0.942,34.576,16.714,67.467,39.485,94.756
				C715.188,1259.648,728.196,1271.8,741.973,1282.098z"/>
			<path style="fill:#F9EBEE;" d="M1418.154,1047.329c-6.007-2.804-12.801-4.596-20.476-5.126
				c-19.797-1.366-37.985,10.239-53.779,22.253c-5.651,4.298-11.213,8.711-16.683,13.237c-7.932,6.563-15.669,13.36-23.199,20.381
				c-8.952,8.345-17.609,17.006-25.952,25.959c-0.16,0.173-0.321,0.346-0.481,0.518c-3.805,4.096-7.543,8.251-11.215,12.467
				c-0.225,0.257-0.448,0.517-0.671,0.775c-1.163,1.339-2.32,2.683-3.468,4.035c-17.072,20.095-33.14,42.743-36.525,68.891
				c-3.383,26.151,10.033,56.14,35.395,63.344c-0.097,6.748,4.751,13.578,10.733,16.698c3.816,1.99,8.337,2.483,12.534,1.56
				c2.384-0.525,4.665-1.505,6.649-2.932c3.023,7.712,12.822,13.57,22.649,16.508c4.742,1.418,9.491,2.157,13.488,2.095
				c12.282-0.191,23.852-5.626,34.473-11.793c20.529-11.92,40.47-28.153,57.004-47.288c24.04-27.823,40.879-61.784,41.852-97.547
				c0.121-4.463,0.106-9.155-0.083-13.986c-0.818-21.108-4.91-44.828-15.115-63.328
				C1438.879,1062.443,1430.07,1052.892,1418.154,1047.329z"/>
			<g>
				<path style="fill:#E07069;" d="M967.875,520.833c0.977-5.373,2.14-10.748,3.345-16.121c-3.345,8.178-6.647,16.353-9.989,24.532
					c-2.283,5.617-7.478,12.179-12.363,11.424c-0.904-0.14-1.797-0.53-2.66-1.223c-2.287-1.79-2.891-5.022-3.342-7.943
					c-3.691-25.02-7.077-53.344-6.9-79.474c0.006-1.022-1.381-1.134-1.546-0.124c-4.961,30.287-11.378,60.315-19.227,89.916
					c-1.466,5.567-5.446,12.538-10.666,10.513c-1.914-0.739-3.192-2.608-4.319-4.36c-2.929-4.713-5.52-9.659-7.698-14.796
					c3.141,14.658,6.956,29.165,11.419,43.456c6.206,19.87,13.669,39.321,22.338,58.165c-0.137,0.699-0.189,1.414-0.165,2.136
					c11.252-13.936,23.82-26.914,37.595-38.303C961.766,572.656,963.172,546.431,967.875,520.833z"/>
				<path style="fill:#E07069;" d="M1228.803,533.177c-2.179,5.137-4.77,10.083-7.699,14.796c-1.125,1.752-2.402,3.621-4.318,4.36
					c-5.22,2.025-9.2-4.946-10.663-10.513c-7.848-29.601-14.269-59.629-19.23-89.916c-0.165-1.01-1.552-0.898-1.543,0.124
					c0.174,26.13-3.212,54.454-6.903,79.474c-0.451,2.921-1.051,6.153-3.342,7.943c-0.862,0.693-1.756,1.083-2.66,1.223
					c-4.884,0.754-10.08-5.807-12.36-11.424c-3.345-8.178-6.647-16.353-9.989-24.532c1.201,5.373,2.364,10.748,3.342,16.121
					c3.905,21.242,5.536,42.917,4.874,64.523c1.653,1.298,3.251,2.638,4.794,4.017c13.133,11.733,24.415,25.213,34.54,39.67
					c7.57-17.04,14.161-34.554,19.737-52.409C1221.847,562.344,1225.662,547.836,1228.803,533.177z"/>
				<path style="fill:#E07069;" d="M1063.458,835.586c4.943-0.463,9.703-3.274,13.922-5.839c3.25-1.979,6.35-4.216,9.271-6.659
					c0.471-0.395,0.963-0.874,1.463-1.378c5.561,2.308,10.713-3.253,11.41-9.208c0.309-2.65-2.738-4.29-4.952-3.771
					c-6.194,1.454-9.838,6.45-14.613,10.277c-5.055,4.051-11.093,7.919-17.378,10.13c-1.239,0.435-2.605,0.435-3.844,0
					c-6.288-2.211-12.323-6.079-17.381-10.13c-4.775-3.827-8.417-8.823-14.614-10.277c-2.214-0.518-5.26,1.122-4.949,3.771
					c0.695,5.955,5.85,11.517,11.408,9.208c0.5,0.504,0.992,0.983,1.466,1.378c2.918,2.444,6.017,4.681,9.268,6.659
					c4.994,3.035,10.741,6.413,16.655,5.841c0.024-0.003,0.046-0.004,0.069-0.006
					C1061.596,835.678,1062.531,835.673,1063.458,835.586z"/>
			</g>
			<path style="fill:#54ABA5;" d="M1427.022,1270.036c-2.689-7.069-5.489-14.111-8.395-21.126
				c-16.534,19.135-36.475,35.368-57.004,47.288c-10.622,6.167-22.191,11.602-34.473,11.793c-3.997,0.062-8.745-0.677-13.488-2.095
				c-9.827-2.938-19.625-8.796-22.649-16.508c-1.984,1.427-4.265,2.407-6.649,2.932c-4.197,0.923-8.718,0.43-12.534-1.56
				c-5.982-3.121-10.831-9.951-10.733-16.698c-25.362-7.204-38.777-37.193-35.395-63.344c3.385-26.148,19.453-48.796,36.525-68.891
				c1.148-1.351,2.305-2.696,3.468-4.035c0.224-0.259,0.446-0.518,0.671-0.775c3.671-4.216,7.41-8.371,11.215-12.467
				c0.161-0.172,0.321-0.346,0.481-0.518c8.343-8.954,17-17.615,25.952-25.959c4.668-6.649,8.601-13.782,11.25-21.518
				c1.251-3.656,2.23-7.451,3.325-11.183c-4.33-6.055-8.727-12.004-13.186-17.836c-13.707-17.932-28.005-34.772-42.833-50.248
				c-6.541-6.844-13.187-13.422-19.929-19.713c-55.187-51.492-116.869-83.636-181.985-83.636
				c-64.962,0-126.563,31.998-181.694,83.363c-3.287,3.062-6.55,6.193-9.79,9.39c-0.945,0.932-1.888,1.871-2.829,2.815
				c-2.523,2.528-5.03,5.096-7.522,7.704c-14.353,14.992-28.208,31.263-41.511,48.562c-4.074,5.299-8.097,10.693-12.067,16.179
				c1.578,4.806,2.745,9.824,4.382,14.603c2.65,7.736,6.583,14.869,11.25,21.517c0.321,0.3,0.641,0.599,0.961,0.899
				c6.208,5.817,12.273,11.786,18.191,17.9c0.001,0.001,0.002,0.002,0.002,0.004c2.289,2.364,4.555,4.75,6.798,7.157
				c2.776,2.979,5.515,5.99,8.219,9.033c2.572,2.893,5.114,5.813,7.619,8.763c17.068,20.095,33.137,42.743,36.522,68.891
				c3.385,26.151-10.029,56.14-35.394,63.344c0.012,0.829-0.052,1.659-0.181,2.484c-0.93,5.885-5.305,11.477-10.553,14.214
				c-5.982,3.12-13.704,2.567-19.182-1.372c-4.484,11.434-23.858,18.794-36.137,18.603c-2.473-0.038-4.916-0.29-7.329-0.717
				c-9.572-1.693-18.661-6.151-27.144-11.077c-0.128-0.075-0.256-0.15-0.386-0.225c-7.055-4.117-14.038-8.741-20.836-13.817
				c-0.025-0.02-0.051-0.039-0.076-0.058c-13.776-10.298-26.785-22.45-38.074-35.978c-1.391,3.359-2.766,6.722-4.117,10.089
				c-42.101,104.047-66.506,212.032-66.506,296.305c0,13.595,0.616,27.034,1.931,40.32c3.936,42.33,14.058,82.96,29.504,120.809
				c63.571,156.187,216.902,266.256,395.947,266.256c151.782,0,285.106-79.097,360.883-198.437
				c19.775-30.976,35.53-64.574,46.729-100.34c12.9-40.552,19.775-83.807,19.775-128.608
				C1488.044,1472.026,1465.8,1369.755,1427.022,1270.036z"/>
			<g>
				<path style="fill:#75C5BF;" d="M1043.899,1623.344c17.607,0.927,16.53-3.939,23.172-19.386
					c8.263-19.236,13.053-39.163,14.446-60.097c2.626-38.545-3.709-97.402-49.514-104.28c-1.004-0.153-2.008-0.386-2.856-0.615
					c-10.739,20.932-23.251,40.397-27.735,65.193c-5.867,32.209-0.848,67.277,14.831,96.089
					C1023.969,1614.385,1027.136,1622.416,1043.899,1623.344z"/>
				<path style="fill:#75C5BF;" d="M716.462,1437.188c-4.322,15.064-9.268,29.972-10.734,45.884
					c-1.472,15.755-0.697,31.205,2.008,46.346C720.48,1499.988,721.873,1469.091,716.462,1437.188z"/>
				<path style="fill:#75C5BF;" d="M997.629,1275.597c78.249,8.42,146.992,55.613,227.867,51.751
					c19.899-1.002,39.485-4.776,58.541-10.63c0.197-8.123,0.313-16.259,0.327-24.396c-4.197,0.923-8.718,0.43-12.534-1.56
					c-5.982-3.121-10.831-9.951-10.733-16.698c-25.362-7.204-38.777-37.193-35.395-63.344c3.385-26.148,19.453-48.796,36.525-68.891
					c1.148-1.351,2.305-2.696,3.468-4.035c-2.804-9.596-5.989-19.095-9.603-28.472c-7.373-19.279-16.857-38.067-28.26-55.581
					c-0.006,0.005-0.013,0.009-0.019,0.014c-36.307,26.881-97.638,44.568-167.155,44.568c-72.609,0-136.333-19.309-171.866-48.277
					c-0.012-0.01-0.025-0.021-0.037-0.031c-10.613,13.417-20.744,27.286-30.531,41.039c-2.5,3.515-4.979,7.022-7.438,10.512
					c0.002,0,0.002,0,0.003,0.001l0.465,0.386c2.099,2.155,3.736,4.604,4.919,7.313c0.429,0.979,0.798,1.991,1.107,3.037
					c1.078,4.095,1.078,8.266,0,12.435c-0.309,1.469-0.545,2.938-0.774,4.404c-0.331,1.395-0.821,2.702-1.457,3.923
					c2.572,2.893,5.114,5.813,7.619,8.763c17.068,20.095,33.137,42.743,36.522,68.891c3.385,26.151-10.029,56.14-35.394,63.344
					c0.012,0.829-0.052,1.659-0.181,2.484c5.398,1.244,10.813,2.229,16.219,2.913
					C919.306,1284.478,958.157,1271.349,997.629,1275.597z M1168.876,1184.603c32.286,0,32.213,50.052,0,50.052
					C1136.588,1234.656,1136.588,1184.603,1168.876,1184.603z M937.532,1192.947c1.16-4.172,3.324-7.801,6.339-10.893
					c2.24-2.394,4.863-4.092,7.954-5.096c2.935-1.545,6.103-2.24,9.5-2.087c4.401,0,8.573,1.16,12.435,3.4
					c1.622,1.237,3.324,2.547,4.946,3.783c3.088,3.091,5.173,6.721,6.333,10.893c1.157,4.328,1.157,8.728,0,13.053
					c-0.156,0.851-0.229,1.622-0.386,2.473c-0.079,0.465-0.079,0.851-0.156,1.313c-0.848,1.931-1.619,3.783-2.47,5.714
					c-1.007,2.011-2.319,3.709-3.942,5.022c-2.932,3.012-6.485,5.019-10.504,6.103c-2.084,0.309-4.171,0.619-6.256,0.848
					c-3.324,0.156-6.332-0.539-9.191-2.008c-2.935-0.927-5.484-2.626-7.648-4.943c-3.401-2.859-5.87-7.648-6.568-12.049
					c-0.15-0.851-0.229-1.622-0.386-2.473C936.375,1201.675,936.375,1197.274,937.532,1192.947z"/>
				<path style="fill:#75C5BF;" d="M708.119,1386.903c5.793-11.201,24.411-15.061,31.67-1.546
					c34.146,63.341,19.236,146.145-22.088,202.3c-7.572,10.274-27.576,15.064-33.988,0c-4.092-9.653-8.034-20.622-11.357-32.519
					v-0.153l-0.044-0.157c-1.373,32.125,2.125,62.622,10.404,90.594c0.05,0.031,0.1,0.062,0.15,0.091v0.077
					c35.144,23.557,88.98,17.071,129.456,27.343c39.934,10.198,72.997,36.693,112.313,49.052
					c44.029,13.904,82.418,11.74,125.984-2.629c39.549-12.976,77.472-30.973,119.879-30.278h0.038
					c25.919-28.023,47.3-59.79,62.464-93.846c1.53-3.425,3.012-6.866,4.451-10.323c-0.429,0.143-0.864,0.288-1.295,0.431
					c-2.167,0.309-4.407,0.619-6.568,0.927c-3.397,0.153-6.565-0.618-9.5-2.164c-3.014-0.925-5.638-2.626-7.878-5.02
					c-3.709-2.935-5.099-7.03-6.797-11.122c-2.549-4.328-3.786-9.038-3.786-14.136c0-5.019,1.236-9.733,3.786-14.137
					c5.019-8.496,14.29-13.825,24.175-13.825c9.807,0,19.075,5.247,24.096,13.661c10.287-33.885,17.144-68.85,21.77-104.26
					c1.928-15.226,3.533-30.516,4.774-45.822c-0.013,0.003-0.028,0.006-0.042,0.009c-6.412,1.39-12.903,2.473-19.389,3.321
					c-46.811,6.103-96.401,0.079-140.74-16.141c-46.19-16.918-82.262-58.784-132.238-62.49c-26.572-2.011-52.602,6.179-79.017,8.11
					c-21.014,1.543-42.563,0.077-63.497-2.317c-19-2.147-37.245-6.482-54.891-12.66c-9.572-1.693-18.661-6.151-27.144-11.077
					c-0.128-0.075-0.256-0.15-0.386-0.225c-7.061-3.325-14.034-6.931-20.929-10.8c-0.309-0.153-0.698-0.386-1.007-0.539
					c-0.029-0.017-0.06-0.034-0.09-0.051c-14.929,33.476-27.648,67.933-38.013,103.075
					C704.53,1387.131,706.364,1386.903,708.119,1386.903z M1010.064,1397.486c5.871-3.477,13.13-2.858,19.003,0.309
					c2.626-1.313,5.564-2.008,8.808-2.008c62.332,0,81.025,86.589,81.179,135.485c0.079,41.786-14.52,139.962-70.754,141.737
					c-54.38,1.855-83.578-79.097-88.983-122.196C952.982,1500.606,962.173,1426.142,1010.064,1397.486z M854.961,1470.79
					c35.298,0,35.224,54.766,0,54.766C819.738,1525.556,819.738,1470.79,854.961,1470.79z"/>
				<path style="fill:#75C5BF;" d="M836.809,1729.089c-10.195-3.863-20.855-7.413-31.591-9.653
					c-22.171-4.557-40.862,4.324-62.414,6.95c-5.249,0.619-10.351,1.004-15.373,1.081c-0.028,0-0.056,0.001-0.085,0.001
					c19.428,22.153,43.907,40.508,73.331,54.058c4.01-2.771,9.028-4.004,13.811-4.237c6.103-0.309,13.127,2.935,17.378,7.183
					c2.473,2.24,4.171,4.866,5.096,7.957c0.465,0.927,0.848,1.855,1.16,2.859c0.009,0.022,0.014,0.044,0.023,0.065
					c4.712,1.352,9.521,2.6,14.428,3.741c27.784,6.497,56.043,8.419,83.828,6.497c18.144-1.223,36.133-4.097,53.797-8.453
					c-31.665-1.778-61.089-12.514-89.975-31.513C879.293,1751.878,860.525,1737.974,836.809,1729.089z"/>
				<g>
					<path style="fill:#F28F89;" d="M888.756,1050.015c0.012,0.01,0.025,0.021,0.037,0.031
						c35.533,28.968,99.257,48.277,171.866,48.277c69.518,0,130.848-17.687,167.155-44.568c0.006-0.005,0.013-0.009,0.019-0.014
						c21.694-16.141,34.507-35.601,34.74-56.453c-6.541-6.844-13.187-13.422-19.929-19.713
						c-55.187-51.492-116.869-83.636-181.985-83.636c-64.962,0-126.563,31.998-181.694,83.363c-3.287,3.062-6.55,6.193-9.79,9.39
						c-0.945,0.932-1.888,1.871-2.829,2.815c-2.523,2.528-5.03,5.096-7.522,7.704
						C858.977,1016.587,869.931,1034.652,888.756,1050.015z"/>
					<path style="fill:#F28F89;" d="M740.949,1284.635c0.309,0.153,0.698,0.386,1.007,0.539c6.895,3.869,13.867,7.475,20.929,10.8
						c-7.055-4.117-14.038-8.741-20.836-13.817c-0.025-0.02-0.051-0.039-0.076-0.058c-13.776-10.298-26.785-22.45-38.074-35.978
						c-1.391,3.359-2.766,6.722-4.117,10.089c13.333,11.022,27.283,20.504,41.078,28.375
						C740.889,1284.6,740.92,1284.618,740.949,1284.635z"/>
					<path style="fill:#F28F89;" d="M840.03,1116.872c0.001,0.001,0.002,0.002,0.002,0.004c2.289,2.364,4.555,4.75,6.798,7.157
						c2.776,2.979,5.515,5.99,8.219,9.033c0.636-1.221,1.126-2.527,1.457-3.923c0.229-1.466,0.466-2.935,0.774-4.404
						c1.078-4.169,1.078-8.34,0-12.435c-0.309-1.046-0.678-2.059-1.107-3.037c-1.183-2.71-2.82-5.158-4.919-7.313l-0.465-0.386
						c-0.001-0.001-0.001-0.001-0.003-0.001c-1.391-1.004-2.857-2.16-4.245-3.243c-3.63-2.084-7.569-3.167-11.82-3.167
						c-3.164-0.153-6.176,0.541-8.958,2.011c-1.41,0.443-2.711,1.05-3.924,1.806C828.048,1104.789,834.113,1110.758,840.03,1116.872
						z"/>
					<path style="fill:#F28F89;" d="M1266.367,1137.019c3.671-4.216,7.41-8.371,11.215-12.467
						C1271.769,1126.792,1268.046,1131.563,1266.367,1137.019z"/>
					<path style="fill:#F28F89;" d="M1394.787,1408.701c-4.163-1.22-8.911-0.946-13.177,1.044
						c-37.623,17.554-41.783,82.074-36.705,117.789c4.64,32.651,27.443,103.234,72.712,94.494
						c45.277-8.743,46.935-78.894,43.011-113.259c-3.918-34.317-5.391-97.11-48.851-104.944
						C1404.617,1402.534,1398.698,1404.759,1394.787,1408.701z M1399.188,1559.985c-13.683-18.829-14.237-51.922-11.028-73.542
						c2.43-16.379,10.791-30.573,15.127-45.796c20.257,17.739,21.204,41.153,21.28,68.123
						C1424.603,1521.458,1421.756,1591.043,1399.188,1559.985z"/>
					<path style="fill:#F28F89;" d="M672.356,1554.986v0.153c3.324,11.896,7.266,22.866,11.357,32.519
						c6.412,15.064,26.416,10.274,33.988,0c41.324-56.155,56.234-138.958,22.088-202.3c-7.259-13.515-25.877-9.656-31.67,1.546
						c-1.755,0-3.589,0.228-5.273,0.755c-0.018,0.005-0.035,0.01-0.053,0.016c-2.32,0.621-4.481,1.702-6.335,3.247
						c-42.908,36.114-39.555,108.927-24.146,163.907L672.356,1554.986z M705.728,1483.072c1.466-15.912,6.412-30.82,10.734-45.884
						c5.411,31.903,4.018,62.799-8.726,92.23C705.031,1514.278,704.257,1498.828,705.728,1483.072z"/>
					<path style="fill:#F28F89;" d="M1420.61,1715.188c-36.999,16.45-83.963,22.477-123.897,14.908
						c-43.102-8.19-75.85-38.621-121.193-40.941c-1.688-0.076-3.374-0.076-4.984-0.076h-0.038
						c-42.407-0.695-80.331,17.301-119.879,30.278c-43.567,14.369-81.955,16.533-125.984,2.629
						c-39.316-12.359-72.379-38.854-112.313-49.052c-40.476-10.271-94.312-3.786-129.456-27.343v-0.077
						c-0.05-0.029-0.1-0.06-0.15-0.091c-0.877-0.527-1.753-1.179-2.555-1.763c-17.069-12.591-31.903-31.129-44.954-50.827
						c3.936,42.33,14.058,82.96,29.504,120.809c18.363,9.256,39.113,14.354,62.635,13.826c0.029,0,0.057-0.001,0.085-0.001
						c5.022-0.076,10.124-0.462,15.373-1.081c21.552-2.626,40.243-11.508,62.414-6.95c10.736,2.24,21.396,5.79,31.591,9.653
						c23.716,8.885,42.484,22.789,63.415,36.537c28.885,18.999,58.31,29.735,89.975,31.513l0.017,0.002h0.074
						c14.446,0.851,29.43-0.153,45.033-3.088c49.205-9.271,94.623-32.133,142.821-44.568c59.479-15.373,96.71,29.813,152.092,38.465
						c31.285,4.866,61.875,2.24,91.305-6.488c19.775-30.976,35.53-64.574,46.729-100.34
						C1453.365,1693.712,1438.686,1707.154,1420.61,1715.188z"/>
					<path style="fill:#F28F89;" d="M839.129,1801.93c0.073-2.292-0.23-4.51-0.983-6.576c-0.009-0.021-0.015-0.043-0.023-0.065
						c-0.312-1.004-0.695-1.931-1.16-2.859c-0.924-3.091-2.623-5.717-5.096-7.957c-4.251-4.248-11.275-7.493-17.378-7.183
						c-4.784,0.233-9.801,1.466-13.811,4.237c-0.006,0.004-0.01,0.008-0.016,0.011c-1.313,0.774-2.473,1.779-3.554,2.936
						c-1.316,1.701-2.629,3.323-3.862,5.022c-2.241,3.783-3.321,7.954-3.4,12.435c-0.153,1.393-0.309,2.859-0.462,4.248
						c-0.309,2.782-0.389,4.328,0.771,7.878l2.549,6.026c1.392,1.931,2.782,3.706,4.325,5.561c2.24,2.396,4.866,4.095,7.955,5.099
						c2.938,1.546,6.103,2.24,9.506,2.084c6.176-0.23,13.36-2.238,17.455-7.183c2.935-3.553,5.794-6.951,6.877-11.588
						c0.539-2.393,1.001-5.405,0.771-7.878C839.432,1804.789,839.282,1803.323,839.129,1801.93z"/>
					<path style="fill:#F28F89;" d="M1219.471,1808.286c-30.87,0-30.92,47.974,0,47.974
						C1250.341,1856.26,1250.394,1808.286,1219.471,1808.286z"/>
					<path style="fill:#F28F89;" d="M973.76,1178.271c-3.863-2.24-8.034-3.4-12.435-3.4c-3.397-0.153-6.565,0.542-9.5,2.087
						c-3.091,1.004-5.714,2.703-7.954,5.096c-3.015,3.091-5.179,6.721-6.339,10.893c-1.157,4.328-1.157,8.728,0,13.053
						c0.156,0.851,0.235,1.622,0.386,2.473c0.698,4.401,3.168,9.191,6.568,12.049c2.164,2.317,4.713,4.016,7.648,4.943
						c2.859,1.469,5.867,2.164,9.191,2.008c2.084-0.23,4.172-0.539,6.256-0.848c4.019-1.083,7.572-3.091,10.504-6.103
						c1.622-1.313,2.935-3.011,3.942-5.022c0.851-1.931,1.623-3.783,2.47-5.714c0.077-0.462,0.077-0.848,0.156-1.313
						c0.156-0.851,0.229-1.622,0.386-2.473c1.157-4.325,1.157-8.726,0-13.053c-1.16-4.172-3.244-7.801-6.333-10.893
						C977.084,1180.817,975.382,1179.508,973.76,1178.271z"/>
					<path style="fill:#F28F89;" d="M1168.876,1234.656c32.213,0,32.286-50.052,0-50.052
						C1136.588,1184.603,1136.588,1234.656,1168.876,1234.656z"/>
					<path style="fill:#F28F89;" d="M854.961,1525.556c35.224,0,35.298-54.766,0-54.766
						C819.738,1470.79,819.738,1525.556,854.961,1525.556z"/>
					<path style="fill:#F28F89;" d="M1037.875,1395.788c-3.244,0-6.182,0.695-8.808,2.008c-5.873-3.168-13.133-3.786-19.003-0.309
						c-47.891,28.656-57.083,103.12-50.747,153.328c5.405,43.099,34.603,124.051,88.983,122.196
						c56.234-1.775,70.833-99.952,70.754-141.737C1118.901,1482.377,1100.207,1395.788,1037.875,1395.788z M1081.516,1543.861
						c-1.392,20.934-6.182,40.861-14.446,60.097c-6.641,15.447-5.564,20.313-23.172,19.386c-16.763-0.928-19.93-8.958-27.655-23.095
						c-15.679-28.812-20.698-63.88-14.831-96.089c4.484-24.796,16.995-44.262,27.735-65.193c0.848,0.229,1.852,0.463,2.856,0.615
						C1077.807,1446.459,1084.142,1505.316,1081.516,1543.861z"/>
					<path style="fill:#F28F89;" d="M1253.685,1539.526c-5.021-8.414-14.289-13.661-24.096-13.661
						c-9.886,0-19.156,5.329-24.175,13.825c-2.549,4.404-3.786,9.118-3.786,14.137c0,5.099,1.236,9.809,3.786,14.136
						c1.699,4.092,3.088,8.187,6.797,11.122c2.24,2.394,4.863,4.095,7.878,5.02c2.935,1.546,6.103,2.317,9.5,2.164
						c2.161-0.309,4.401-0.618,6.568-0.927c0.431-0.143,0.866-0.288,1.295-0.431c0.03-0.01,0.06-0.021,0.091-0.031v-0.079
						c3.633-1.081,6.801-3.012,9.426-5.714c1.083-0.771,1.852-1.778,2.47-2.935c1.007-0.927,1.781-1.931,2.24-3.168
						c0.236-0.542,0.389-1.081,0.619-1.546c0.465-1.157,1.004-2.317,1.469-3.474c2.549-4.328,3.786-9.038,3.859-14.136
						c-0.074-5.019-1.31-9.733-3.859-14.137l-0.076-0.153C1253.688,1539.533,1253.687,1539.529,1253.685,1539.526z"/>
					<path style="fill:#F28F89;" d="M908.803,1322.252c26.415-1.931,52.446-10.121,79.017-8.11
						c49.976,3.706,86.048,45.572,132.238,62.49c44.338,16.221,93.928,22.244,140.74,16.141c6.486-0.848,12.977-1.931,19.389-3.321
						c0.014-0.003,0.029-0.006,0.042-0.009c34.201-7.109,66.24-21.321,92.491-45.1c19.003-17.148,44.803-46.037,54.303-74.308
						c-2.689-7.069-5.489-14.111-8.395-21.126c-16.534,19.135-36.475,35.368-57.004,47.288
						c-10.622,6.167-22.191,11.602-34.473,11.793c-3.997,0.062-8.745-0.677-13.488-2.095c-9.662,4.122-19.514,7.759-29.538,10.794
						c-0.029,0.008-0.059,0.017-0.087,0.026c-19.056,5.855-38.642,9.628-58.541,10.63c-80.875,3.862-149.618-43.331-227.867-51.751
						c-39.472-4.248-78.323,8.881-117.795,3.863c-5.407-0.684-10.822-1.669-16.219-2.913c-0.93,5.885-5.305,11.477-10.553,14.214
						c-5.982,3.12-13.704,2.567-19.182-1.372c-4.484,11.434-23.858,18.794-36.137,18.603c-2.473-0.038-4.916-0.29-7.329-0.717
						c17.646,6.178,35.891,10.513,54.891,12.66C866.239,1322.329,887.789,1323.794,908.803,1322.252z"/>
				</g>
				<g>
					<path style="fill:#F4A6A3;" d="M857.281,1124.739c1.078-4.169,1.078-8.34,0-12.435c-0.309-1.046-0.678-2.059-1.107-3.037
						c-1.183-2.71-2.82-5.158-4.919-7.313l-0.465-0.386c-0.465,0.659-0.93,1.317-1.395,1.975c-2.215,3.143-4.411,6.274-6.593,9.384
						c-0.926,1.32-1.847,2.637-2.769,3.949c2.289,2.364,4.555,4.75,6.798,7.157c2.776,2.979,5.515,5.99,8.219,9.033
						c0.636-1.221,1.126-2.527,1.457-3.923C856.736,1127.677,856.972,1126.208,857.281,1124.739z"/>
					<path style="fill:#F4A6A3;" d="M937.918,1208.473c0.698,4.401,3.168,9.191,6.568,12.049c2.164,2.317,4.713,4.016,7.648,4.943
						c2.859,1.469,5.867,2.164,9.191,2.008c2.084-0.23,4.172-0.539,6.256-0.848c4.019-1.083,7.572-3.091,10.504-6.103
						c1.622-1.313,2.935-3.011,3.942-5.022c0.851-1.931,1.623-3.783,2.47-5.714c0.077-0.462,0.077-0.848,0.156-1.313
						c0.156-0.851,0.229-1.622,0.386-2.473c1.157-4.325,1.157-8.726,0-13.053c-1.16-4.172-3.244-7.801-6.333-10.893
						c-1.622-1.237-3.324-2.546-4.946-3.783c-3.863-2.24-8.034-3.4-12.435-3.4c-3.397-0.153-6.565,0.542-9.5,2.087
						c-3.091,1.004-5.714,2.703-7.954,5.096c-3.015,3.091-5.179,6.721-6.339,10.893c-1.157,4.328-1.157,8.728,0,13.053
						C937.688,1206.85,937.768,1207.622,937.918,1208.473z"/>
					<path style="fill:#F4A6A3;" d="M1168.876,1234.656c32.213,0,32.286-50.052,0-50.052
						C1136.588,1184.603,1136.588,1234.656,1168.876,1234.656z"/>
					<path style="fill:#F4A6A3;" d="M1227.814,1053.755c-6.412-9.889-13.518-19.388-21.167-28.35
						c-10.782-12.716-22.686-24.376-35.599-34.597c-11.013-8.715-22.762-16.383-35.178-22.764
						c-10.454-5.373-21.383-9.832-32.745-13.238c-1.709-0.513-3.429-1.004-5.158-1.468c-3.917-1.057-7.782-1.97-11.598-2.744
						c-0.081-0.016-0.163-0.033-0.244-0.049c-0.293-0.059-0.585-0.117-0.876-0.174c-0.125-0.024-0.249-0.049-0.374-0.072
						c-0.478-0.093-0.957-0.184-1.435-0.272c-0.156-0.029-0.312-0.058-0.468-0.087c-0.239-0.043-0.477-0.087-0.715-0.129
						c-0.22-0.039-0.443-0.079-0.664-0.117c-0.194-0.034-0.388-0.069-0.581-0.102c-0.403-0.069-0.807-0.136-1.208-0.202
						c-0.133-0.022-0.265-0.043-0.399-0.065c-0.333-0.054-0.665-0.106-0.996-0.158l-0.353-0.055c-0.446-0.068-0.892-0.135-1.337-0.2
						c-0.023-0.003-0.047-0.006-0.071-0.01c-0.456-0.066-0.913-0.129-1.369-0.192c-0.032-0.005-0.065-0.009-0.098-0.013
						c-52.048-7.067-94.681,11.985-131.302,42.798c-0.116,0.097-0.231,0.195-0.346,0.291c-0.13,0.109-0.258,0.218-0.387,0.328
						c-0.552,0.468-1.102,0.939-1.653,1.413c-1.976,1.702-3.933,3.437-5.875,5.203c-4.045,3.683-8.018,7.503-11.921,11.438
						c-12.262,12.363-23.846,25.871-34.903,39.877c35.533,28.968,99.257,48.277,171.866,48.277
						C1130.176,1098.323,1191.507,1080.636,1227.814,1053.755z"/>
					<path style="fill:#F4A6A3;" d="M681.534,1478.72c-3.281,18.759-5.876,37.628-7.785,56.644
						c-0.694,6.641-1.157,13.133-1.392,19.621v0.153c3.324,11.896,7.266,22.866,11.357,32.519c6.412,15.064,26.416,10.274,33.988,0
						c41.324-56.155,56.234-138.958,22.088-202.3c-7.259-13.515-25.877-9.656-31.67,1.546c-1.755,0-3.589,0.228-5.273,0.755
						c-0.018,0.005-0.035,0.01-0.053,0.016c-7.419,25.259-13.674,50.827-18.614,76.704
						C683.252,1469.152,682.372,1473.933,681.534,1478.72z M705.728,1483.072c1.466-15.912,6.412-30.82,10.734-45.884
						c5.411,31.903,4.018,62.799-8.726,92.23C705.031,1514.278,704.257,1498.828,705.728,1483.072z"/>
					<path style="fill:#F4A6A3;" d="M854.961,1525.556c35.224,0,35.298-54.766,0-54.766
						C819.738,1470.79,819.738,1525.556,854.961,1525.556z"/>
					<path style="fill:#F4A6A3;" d="M1048.3,1673.01c56.234-1.775,70.833-99.952,70.754-141.737
						c-0.153-48.896-18.847-135.485-81.179-135.485c-3.244,0-6.182,0.695-8.808,2.008c-5.873-3.168-13.133-3.786-19.003-0.309
						c-47.891,28.656-57.083,103.12-50.747,153.328C964.722,1593.914,993.92,1674.865,1048.3,1673.01z M1001.412,1504.159
						c4.484-24.796,16.995-44.262,27.735-65.193c0.848,0.229,1.852,0.463,2.856,0.615c45.804,6.877,52.14,65.735,49.514,104.28
						c-1.392,20.934-6.182,40.861-14.446,60.097c-6.641,15.447-5.564,20.313-23.172,19.386c-16.763-0.928-19.93-8.958-27.655-23.095
						C1000.565,1571.436,995.545,1536.369,1001.412,1504.159z"/>
					<path style="fill:#F4A6A3;" d="M838.122,1795.289c-0.312-1.004-0.695-1.931-1.16-2.859c-0.924-3.091-2.623-5.717-5.096-7.957
						c-4.251-4.248-11.275-7.493-17.378-7.183c-4.784,0.233-9.801,1.466-13.811,4.237c-0.006,0.004-0.01,0.008-0.016,0.011
						c1.682,0.769,3.384,1.522,5.102,2.262C815.95,1788.186,826.753,1792.049,838.122,1795.289z"/>
					<path style="fill:#F4A6A3;" d="M1050.62,1719.356c-43.567,14.369-81.955,16.533-125.984,2.629
						c-39.316-12.359-72.379-38.854-112.313-49.052c-40.476-10.271-94.312-3.786-129.456-27.343
						c9.035,30.743,23.943,58.395,44.565,81.876c5.022-0.076,10.124-0.462,15.373-1.081c21.552-2.626,40.243-11.508,62.414-6.95
						c10.736,2.24,21.396,5.79,31.591,9.653c23.716,8.885,42.484,22.789,63.415,36.537c28.885,18.999,58.31,29.735,89.975,31.513
						l0.017,0.002h0.074c9.431-2.338,18.756-5.096,27.96-8.245c0.13-0.044,0.258-0.089,0.387-0.133
						c0.604-0.208,1.206-0.415,1.808-0.625c0.756-0.264,1.51-0.531,2.265-0.8c0.105-0.037,0.211-0.076,0.316-0.114
						c0.779-0.279,1.556-0.56,2.333-0.845c0.066-0.024,0.131-0.049,0.197-0.073c14.112-5.184,27.92-11.291,41.361-18.237
						c0.146-0.075,0.29-0.152,0.435-0.228c0.537-0.279,1.075-0.559,1.612-0.841c0.49-0.257,0.979-0.516,1.468-0.775
						c0.088-0.047,0.178-0.095,0.268-0.142c1.291-0.686,2.58-1.377,3.865-2.08c28.638-15.648,55.293-35.162,78.898-57.626
						c5.872-5.588,11.556-11.359,17.035-17.299C1128.092,1688.383,1090.168,1706.38,1050.62,1719.356z"/>
					<path style="fill:#F4A6A3;" d="M1229.589,1525.865c-9.886,0-19.156,5.329-24.175,13.825c-2.549,4.404-3.786,9.118-3.786,14.137
						c0,5.099,1.236,9.809,3.786,14.136c1.699,4.092,3.088,8.187,6.797,11.122c2.24,2.394,4.863,4.095,7.878,5.02
						c2.935,1.546,6.103,2.317,9.5,2.164c2.161-0.309,4.401-0.618,6.568-0.927c0.431-0.143,0.866-0.288,1.295-0.431
						c0.03-0.01,0.06-0.021,0.091-0.031v-0.079c6.182-14.905,11.511-29.969,16.148-45.263c-0.003-0.004-0.005-0.007-0.006-0.01
						C1248.664,1531.112,1239.396,1525.865,1229.589,1525.865z"/>
					<path style="fill:#F4A6A3;" d="M908.803,1322.252c26.415-1.931,52.446-10.121,79.017-8.11
						c49.976,3.706,86.048,45.572,132.238,62.49c44.338,16.221,93.928,22.244,140.74,16.141c6.486-0.848,12.977-1.931,19.389-3.321
						c0.187-2.012,0.355-4.014,0.512-6.011c0.294-3.753,0.548-7.484,0.801-11.214c0.848-11.741,1.387-23.713,1.931-35.453
						c0.309-6.721,0.46-13.366,0.695-20.083c-0.029,0.008-0.059,0.017-0.087,0.026c-19.056,5.855-38.642,9.628-58.541,10.63
						c-80.875,3.862-149.618-43.331-227.867-51.751c-39.472-4.248-78.323,8.881-117.795,3.863
						c-5.407-0.684-10.822-1.669-16.219-2.913c-0.93,5.885-5.305,11.477-10.553,14.214c-5.982,3.12-13.704,2.567-19.182-1.372
						c-4.484,11.434-23.858,18.794-36.137,18.603c-2.473-0.038-4.916-0.29-7.329-0.717c17.646,6.178,35.891,10.513,54.891,12.66
						C866.239,1322.329,887.789,1323.794,908.803,1322.252z"/>
					<path style="fill:#F4A6A3;" d="M762.885,1295.973c-7.055-4.117-14.038-8.741-20.836-13.817c-0.367,0.826-0.734,1.651-1.1,2.479
						c0.309,0.153,0.698,0.386,1.007,0.539C748.851,1289.042,755.824,1292.648,762.885,1295.973z"/>
				</g>
			</g>
		</g>
	</g>
</g>
</svg>
