<?xml version="1.0" encoding="utf-8"?>
<!-- Generator: Adobe Illustrator 27.5.0, SVG Export Plug-In . SVG Version: 6.00 Build 0)  -->
<svg version="1.1" xmlns="http://www.w3.org/2000/svg" xmlns:xlink="http://www.w3.org/1999/xlink" x="0px" y="0px"
	 viewBox="0 0 2122 2122" style="enable-background:new 0 0 2122 2122;" xml:space="preserve">
<g id="Capa_3">
</g>
<g id="Capa_4">
	<g>
		<path style="fill:#F9EBEE;" d="M1606.64,1804.994c9.799-7.756,15.248-20.737,13.931-33.17
			c-1.317-12.432-8.76-28.131-20.012-33.625c10.983-20.781,5.944-41.063-7.262-60.531c-8.755-12.795-23.774-20.193-39.07-23.004
			c-15.243-2.771-35.662,0.769-51.135,2.086c12.114-13.295,9.573-37.028-5.082-47.463c-9.247-6.556-21.925-6.824-32.179-2.167
			c6.257-42.469,8.814-85.117,5.905-127.611c-4.31-62.573-23.778-122.831-47.962-182.139c-11.108-27.299-23.2-54.405-35.254-81.45
			c0.014,0.003,0.028,0.006,0.042,0.009c-3.443-7.723-6.893-15.441-10.33-23.161c-11.146-25.21-22-50.401-31.734-75.686
			c7.169-6.806,13.725-14.232,19.402-22.164c-0.592,3.315-1.136,6.673-1.543,10.029c-0.592,5.082,7.35,6.943,9.573,2.589
			c7.986-15.84,14.249-39.251,11.981-58.219c0.133-0.818,0.314-1.587,0.451-2.405c2.223-14.43,1.817-28.586-0.681-42.292
			c-0.362-2.086-0.773-4.172-1.269-6.262c3.085-0.588,5.896-3.447,4.902-7.213c-4.539-17.378-14.342-34.08-28.047-45.968
			l-0.133-0.182c3.174-0.999,5.353-4.897,3.447-8.349c-8.075-14.837-23.822-26.089-39.432-34.486
			c-0.954-0.906-1.861-1.813-2.767-2.675c-1.317-1.18-2.634-2.315-3.951-3.451l0.229,0.093c5.989,0.999,11.208-5.944,6.263-10.753
			c-9.215-8.985-23.463-13.979-36.939-16.79c-2.042-2.815-3.858-5.763-5.216-9.122c-13.605-33.383-20.195-67.855-35.242-100.704
			c2.408,0.514,4.798,1.138,7.126,1.932c4.096,1.369,7.6,2.831,11.966,2.074c3.641-0.612,4.551-5.236,3.185-8.067
			c-1.957-4.152-6.142-6.508-10.874-7.829c11.74-4.249,22.932-10.616,33.351-16.988c4.688-2.875,1.595-10.85-3.685-9.15
			c-1.409,0.423-2.867,0.846-4.277,1.321c7.874-7.032,13.834-16.517,16.472-26.706c1.14-4.483-4.958-9.013-8.055-4.861
			c-0.911,1.18-1.82,2.36-2.726,3.54c1.091-1.981,2.138-3.963,3.182-5.945c13.516-26.279,23.254-54.164,30.125-82.944
			c11.055-46.098,14.696-94.503,14.603-142.11c-0.225-90.064-14.922-184.474-67.979-255.763
			c-18.337-24.676-41.86-46.569-70.571-55.767c-19.066-6.133-40.544-5.662-58.792,2.026c1.732-1.084,3.504-2.167,5.324-3.206
			c3.778-2.171,2.276-9.343-2.319-8.872c-26.025,2.739-43,27.273-46.686,52.654c-0.362-1.224-0.636-2.453-0.998-3.633
			c-1.503-4.716-9.01-5.522-10.056,0c-5.598,29.629,1.365,66.432,13.286,95.92c8.51,70.108,23.753,139.182,33.262,209.198
			c2.682,19.767,4.869,39.629,6.371,59.541c-3.278-11.039-7.281-21.563-11.788-30.81c-1.591-3.351-5.594-2.263-6.96,0.379
			c-0.362,0.801-0.499,1.744-0.273,2.783c4.458,18.542,10.012,36.706,13.061,55.578c2.727,16.939,2.457,34.068,4.639,50.954
			c-0.461,3.042-0.922,6.14-1.353,9.256c-4.71-2.384-9.501-4.604-14.362-6.646c-0.588-0.999-1.224-1.998-1.724-3.041
			c-2.497-4.853-4.446-9.984-5.988-15.199c-1.317-4.446-7.491-2.541-6.807,1.86c0.632,3.766,1.679,7.85,3.129,11.841
			c-11.933-7.487-25.682-12.432-38.026-19.239c-12.114-6.669-23.91-13.794-36.661-19.194c-3.902-1.631-5.811,3.858-3.721,6.355
			c4.221,5.079,9.392,10.073,15.111,14.793c-15.473-4.494-31.989-6.355-46.101-3.903c-4.588,0.814-3.951,7.487,0,8.667
			c4.764,1.405,9.617,2.404,14.474,3.222l-0.181,0.044c-16.297-1.44-33.278-0.569-48.294,3.772
			c1.351-14.474,1.496-29.077,3.824-43.542c3.049-18.872,8.602-37.036,13.061-55.578c0.226-1.039,0.092-1.982-0.274-2.783
			c-1.365-2.642-5.369-3.729-6.959-0.379c-4.507,9.247-8.51,19.771-11.789,30.81c1.502-19.912,3.689-39.775,6.372-59.541
			c9.509-70.016,24.752-139.09,33.262-209.198c11.921-29.489,18.884-66.291,13.286-95.92c-1.047-5.522-8.554-4.716-10.056,0
			c-0.363,1.18-0.637,2.408-0.999,3.633c-3.685-25.381-20.661-49.915-46.685-52.654c-4.595-0.471-6.098,6.702-2.32,8.872
			c1.82,1.039,3.593,2.122,5.324,3.206c-18.248-7.689-39.726-8.16-58.792-2.026c-28.711,9.199-52.235,31.092-70.572,55.767
			c-53.057,71.289-67.753,165.699-67.978,255.763c-0.093,47.608,3.548,96.013,14.603,142.11
			c6.871,28.78,16.609,56.665,30.125,82.944c1.047,1.982,2.09,3.963,3.182,5.945c-0.906-1.18-1.816-2.36-2.727-3.54
			c-3.097-4.152-9.191,0.379-8.055,4.861c2.638,10.189,8.598,19.674,16.472,26.706c-1.409-0.475-2.868-0.898-4.277-1.321
			c-5.28-1.7-8.373,6.275-3.685,9.15c10.419,6.372,21.611,12.739,33.351,16.988c-4.732,1.321-8.917,3.677-10.874,7.829
			c-1.365,2.831-0.455,7.455,3.186,8.067c4.365,0.757,7.869-0.705,11.965-2.074c1.621-0.554,3.274-1.024,4.944-1.433
			c-17.964,37.656-29.692,78.108-40.638,118.444c-19.605,2.042-39.613,11.39-51.454,25.639c-4.269,5.127,0.951,11.482,6.895,8.941
			c8.26-3.585,16.242-7.58,24.591-10.802c-8.481,5.856-16.149,12.799-23.004,20.511c-14.068,5.627-24.958,18.651-33.713,30.629
			c-9.122,12.432-18.107,26.911-19.513,42.565c-0.226,2.404,2.042,4.309,4.358,4.583c-0.185,0.814-0.367,1.675-0.455,2.493
			c-3.447,18.152-1.861,38.164,3.54,52.593c1.857,5.034,9.436,4.446,9.573-1.273c0.181-5.9,0.226-11.752,0.407-17.559
			c4.813,41.43,26.23,80.862,57.132,110.084c1.675,1.587,2.038,2.405,4.221,1.631c2.6-10.665,0.912-22.266-4.485-31.931
			c5.921,9.345,13.591,17.349,22.425,24.013c-3.214,2.263-6.364,4.634-9.491,6.992c-4.837,3.645-10.048,7.902-10.942,13.886
			c-0.713,4.745,3.466,9.92,7.703,10.141c-12.509,5.058-20.526,25.321-20.087,38.759c0.025,0.755,0.071,1.506,0.133,2.254
			c-12.108,0.835-24.03,3.288-35.717,7.176c0.08-0.537,0.115-1.058,0.091-1.564c-0.178-3.585-3.266-6.456-12.759-9.457
			c-18.502-5.84-39.255-7.169-58.445-4.309c-7.169,1.067-14.208,2.912-21.128,5.078c-13.54,4.237-26.943,9.871-37.656,19.17
			c-8.727,7.571-15.509,17.902-17.632,29.142c-0.721,3.83,2.509,7.249,6.351,6.593l4.7-0.801
			c-14.966,31.52-20.218,66.823-17.41,101.595c-38.486,64.256-67.016,139.69-81.067,207.539c-1.722,8.251-3.224,16.389-4.503,24.383
			c-0.01,0.065-0.022,0.127-0.033,0.192c-0.032,0.202-0.064,0.403-0.094,0.604c-0.043,0.268-0.085,0.534-0.127,0.801
			c-0.115,0.727-0.228,1.454-0.336,2.178c-0.014,0.089-0.028,0.179-0.042,0.267c-0.135,0.892-0.266,1.781-0.395,2.669l-0.024,0.156
			c-0.125,0.865-0.247,1.728-0.369,2.59c-0.006,0.037-0.01,0.075-0.016,0.114c-0.253,1.814-0.493,3.62-0.723,5.418
			c-0.002,0.017-0.004,0.034-0.006,0.05c-0.344,2.71-0.661,5.401-0.95,8.069c-0.002,0.018-0.004,0.035-0.006,0.052
			c-0.286,2.654-0.546,5.287-0.777,7.897l-0.012,0.126c-0.151,1.726-0.292,3.443-0.419,5.148c-0.004,0.043-0.008,0.087-0.01,0.13
			c-0.06,0.801-0.117,1.6-0.171,2.398c-0.004,0.062-0.01,0.125-0.014,0.188c-0.111,1.644-0.21,3.278-0.298,4.902
			c-0.008,0.143-0.016,0.285-0.022,0.427c-0.038,0.707-0.075,1.41-0.107,2.112c-0.004,0.091-0.008,0.179-0.012,0.269
			c-0.036,0.789-0.071,1.577-0.103,2.361c-0.004,0.13-0.008,0.259-0.014,0.389c-0.024,0.645-0.046,1.286-0.067,1.926
			c-0.008,0.188-0.014,0.378-0.018,0.565c-0.02,0.667-0.04,1.331-0.056,1.994c-0.002,0.101-0.004,0.201-0.008,0.3
			c-0.016,0.748-0.032,1.494-0.044,2.238c-0.002,0.181-0.004,0.36-0.008,0.541c-0.008,0.566-0.014,1.132-0.02,1.695
			c-0.003,0.224-0.004,0.449-0.007,0.673c-0.004,0.724-0.008,1.448-0.008,2.167c0,0.59,0.002,1.179,0.006,1.768
			c0,0.143,0.002,0.286,0.002,0.428c0.004,0.425,0.009,0.852,0.013,1.278c0.002,0.223,0.006,0.445,0.01,0.668
			c0.004,0.357,0.01,0.714,0.016,1.072c0.004,0.224,0.008,0.448,0.012,0.673c0.008,0.359,0.016,0.72,0.024,1.079l0.018,0.713
			c0.008,0.336,0.018,0.673,0.029,1.009c0.006,0.233,0.012,0.467,0.02,0.699c0.012,0.404,0.026,0.807,0.042,1.21
			c0.006,0.167,0.01,0.334,0.016,0.501c0.018,0.436,0.036,0.872,0.054,1.307c0.01,0.258,0.02,0.518,0.032,0.775
			c0.02,0.454,0.042,0.907,0.064,1.36l0.03,0.595c0.021,0.379,0.038,0.758,0.06,1.137c0.01,0.205,0.022,0.408,0.034,0.612
			c0.022,0.372,0.044,0.743,0.066,1.114c0.014,0.228,0.028,0.454,0.042,0.682c0.022,0.349,0.044,0.699,0.068,1.047
			c0.014,0.214,0.028,0.428,0.044,0.643c0.026,0.397,0.056,0.795,0.084,1.192c0.012,0.166,0.025,0.332,0.036,0.497
			c0.033,0.429,0.066,0.858,0.101,1.287c0.012,0.153,0.024,0.306,0.036,0.458c0.036,0.463,0.076,0.924,0.117,1.385
			c0.01,0.118,0.018,0.235,0.028,0.353c0.05,0.572,0.103,1.144,0.155,1.716c0.01,0.109,0.022,0.218,0.032,0.328
			c0.042,0.445,0.084,0.889,0.129,1.333c0.02,0.21,0.042,0.419,0.062,0.628c0.036,0.356,0.072,0.713,0.111,1.069
			c0.022,0.229,0.048,0.458,0.072,0.687l0.111,1.024c0.027,0.225,0.05,0.452,0.077,0.677c0.038,0.342,0.078,0.683,0.119,1.026
			c0.024,0.218,0.05,0.435,0.076,0.652c0.048,0.408,0.099,0.816,0.149,1.222c0.018,0.148,0.034,0.296,0.054,0.443
			c0.06,0.487,0.123,0.973,0.185,1.459c0.01,0.084,0.022,0.167,0.032,0.251c0.074,0.57,0.151,1.139,0.23,1.708
			c0.012,0.092,0.026,0.186,0.038,0.28c0.064,0.462,0.129,0.924,0.195,1.385c0.026,0.187,0.054,0.374,0.081,0.561
			c0.054,0.37,0.109,0.742,0.163,1.111c0.03,0.203,0.061,0.406,0.093,0.609c0.054,0.367,0.111,0.735,0.167,1.102
			c0.03,0.188,0.06,0.378,0.089,0.566c0.06,0.386,0.123,0.772,0.185,1.156c0.028,0.177,0.056,0.355,0.085,0.532
			c0.068,0.41,0.135,0.821,0.205,1.23c0.024,0.145,0.048,0.292,0.073,0.437c0.078,0.471,0.161,0.943,0.241,1.412
			c0.016,0.091,0.032,0.182,0.048,0.272c0.099,0.568,0.199,1.135,0.302,1.702c0.008,0.037,0.015,0.074,0.022,0.111
			c0.092,0.518,0.189,1.037,0.286,1.555c0.026,0.134,0.05,0.267,0.076,0.401c0.077,0.408,0.155,0.815,0.233,1.221
			c0.039,0.198,0.077,0.395,0.115,0.592c0.071,0.358,0.141,0.715,0.211,1.072l0.115,0.571c0.077,0.383,0.155,0.766,0.234,1.149
			c0.034,0.168,0.07,0.337,0.104,0.505c0.081,0.389,0.163,0.776,0.244,1.164c0.036,0.166,0.07,0.334,0.107,0.5
			c0.105,0.493,0.212,0.986,0.32,1.477c0.01,0.048,0.021,0.095,0.033,0.144c0.123,0.559,0.245,1.118,0.373,1.675
			c0.018,0.085,0.038,0.169,0.058,0.254c0.105,0.463,0.212,0.926,0.318,1.388c0.038,0.16,0.074,0.319,0.113,0.479
			c0.088,0.38,0.179,0.761,0.269,1.141c0.042,0.181,0.087,0.364,0.129,0.545c0.092,0.382,0.185,0.763,0.278,1.145
			c0.038,0.153,0.076,0.307,0.113,0.461c0.101,0.404,0.201,0.807,0.302,1.21c0.038,0.152,0.077,0.303,0.115,0.454
			c0.099,0.393,0.2,0.786,0.3,1.18c0.04,0.155,0.08,0.311,0.121,0.467c0.133,0.513,0.268,1.025,0.403,1.538
			c0.004,0.014,0.008,0.028,0.012,0.042c0.149,0.564,0.3,1.126,0.453,1.689c0.003,0.008,0.005,0.017,0.007,0.027
			c0.145,0.527,0.29,1.053,0.435,1.579c0.04,0.146,0.083,0.293,0.123,0.44c0.104,0.374,0.209,0.748,0.316,1.122
			c0.056,0.195,0.111,0.389,0.167,0.582c0.103,0.36,0.207,0.72,0.31,1.079c0.05,0.17,0.101,0.34,0.149,0.51
			c0.106,0.36,0.211,0.719,0.318,1.079c0.054,0.181,0.107,0.362,0.161,0.543c0.117,0.387,0.234,0.773,0.351,1.16
			c0.042,0.14,0.084,0.28,0.127,0.419c0.143,0.465,0.286,0.928,0.429,1.391l0.06,0.193c0.334,1.078,0.677,2.152,1.025,3.224
			c0.038,0.118,0.076,0.236,0.115,0.354c0.133,0.41,0.268,0.818,0.403,1.227c0.05,0.15,0.101,0.301,0.151,0.451
			c0.127,0.385,0.256,0.768,0.385,1.152c0.05,0.148,0.101,0.296,0.151,0.444c0.125,0.366,0.249,0.732,0.374,1.097
			c0.065,0.187,0.127,0.372,0.192,0.557c0.115,0.329,0.229,0.659,0.344,0.989c0.068,0.196,0.137,0.392,0.208,0.588
			c0.127,0.358,0.253,0.717,0.383,1.076c0.054,0.154,0.109,0.309,0.165,0.464c0.368,1.027,0.743,2.052,1.124,3.075
			c0.064,0.172,0.129,0.344,0.193,0.517c0.133,0.359,0.268,0.717,0.403,1.073c0.058,0.154,0.117,0.307,0.175,0.461
			c0.139,0.362,0.278,0.725,0.417,1.087c0.066,0.171,0.133,0.34,0.198,0.511c0.129,0.334,0.26,0.669,0.391,1.002
			c0.076,0.198,0.155,0.397,0.233,0.594c0.127,0.324,0.256,0.647,0.385,0.97c0.07,0.18,0.143,0.36,0.216,0.539
			c0.137,0.346,0.276,0.689,0.417,1.033c0.069,0.171,0.137,0.343,0.208,0.514c0.201,0.492,0.403,0.985,0.606,1.476
			c0.014,0.033,0.029,0.066,0.042,0.101c0.201,0.487,0.405,0.974,0.61,1.461c0.048,0.118,0.101,0.236,0.149,0.354
			c0.161,0.379,0.322,0.757,0.483,1.135c0.076,0.181,0.155,0.362,0.234,0.543c0.137,0.322,0.276,0.643,0.415,0.965
			c0.082,0.189,0.165,0.379,0.249,0.568c0.133,0.304,0.266,0.608,0.399,0.912c0.095,0.215,0.192,0.431,0.286,0.646
			c0.127,0.287,0.253,0.573,0.382,0.858c0.093,0.208,0.188,0.418,0.28,0.625c0.135,0.296,0.267,0.592,0.403,0.887
			c0.09,0.201,0.183,0.403,0.274,0.603c0.189,0.414,0.381,0.826,0.572,1.239c0.034,0.075,0.068,0.152,0.105,0.229
			c0.225,0.485,0.453,0.97,0.68,1.455c0.091,0.193,0.181,0.384,0.272,0.575c0.139,0.291,0.276,0.582,0.415,0.873
			c0.105,0.219,0.211,0.438,0.316,0.657c0.133,0.277,0.266,0.553,0.399,0.829c0.103,0.209,0.206,0.419,0.306,0.628
			c0.139,0.285,0.28,0.57,0.419,0.854c0.105,0.213,0.212,0.427,0.316,0.64c0.135,0.271,0.27,0.542,0.405,0.812
			c0.103,0.208,0.208,0.418,0.312,0.626c0.143,0.287,0.288,0.573,0.433,0.86c0.105,0.206,0.209,0.413,0.314,0.62
			c0.109,0.212,0.218,0.423,0.326,0.636c0.284,0.554,0.57,1.107,0.858,1.659c0.088,0.169,0.175,0.337,0.263,0.506
			c0.121,0.233,0.244,0.465,0.367,0.698c0.129,0.245,0.258,0.49,0.389,0.735c0.131,0.248,0.264,0.497,0.397,0.745
			c0.117,0.219,0.234,0.439,0.353,0.659c0.137,0.258,0.278,0.515,0.417,0.773c0.117,0.215,0.233,0.43,0.35,0.645
			c0.141,0.259,0.282,0.519,0.425,0.778l0.344,0.625c0.141,0.257,0.284,0.513,0.425,0.769c0.119,0.214,0.237,0.427,0.356,0.64
			c0.149,0.263,0.296,0.527,0.443,0.789c0.079,0.138,0.155,0.275,0.234,0.413c0.413,0.73,0.828,1.458,1.247,2.184
			c0.014,0.025,0.028,0.049,0.042,0.074c0.203,0.352,0.409,0.703,0.612,1.055c0.054,0.093,0.109,0.187,0.165,0.281
			c0.189,0.323,0.378,0.646,0.568,0.968c0.082,0.141,0.167,0.282,0.25,0.422c0.182,0.306,0.363,0.611,0.546,0.916
			c0.087,0.147,0.173,0.293,0.262,0.439c0.185,0.31,0.371,0.619,0.558,0.928c0.076,0.128,0.155,0.256,0.232,0.383
			c0.206,0.338,0.411,0.674,0.616,1.012c0.042,0.068,0.085,0.137,0.127,0.206c0.23,0.375,0.459,0.748,0.691,1.122
			c0.008,0.012,0.016,0.024,0.022,0.035c1.011,1.63,2.036,3.248,3.077,4.856c0.058,0.088,0.115,0.177,0.173,0.266
			c0.221,0.343,0.445,0.684,0.669,1.025c0.056,0.085,0.111,0.171,0.167,0.256c0.233,0.356,0.469,0.712,0.704,1.068
			c0.04,0.061,0.083,0.124,0.123,0.185c0.247,0.373,0.495,0.743,0.743,1.115c0.022,0.031,0.044,0.063,0.064,0.096
			c1.236,1.84,2.493,3.667,3.77,5.478c0.427,0.604,0.854,1.206,1.285,1.807l0.044,0.063c0.284,0.395,0.568,0.789,0.852,1.182
			c0.004,0.005,0.008,0.01,0.012,0.014c0.286,0.395,0.572,0.789,0.86,1.182l0.05,0.068c0.598,0.816,1.2,1.627,1.806,2.437
			c0.176,0.233,0.351,0.465,0.526,0.697c0.457,0.606,0.916,1.211,1.379,1.814c0.167,0.219,0.334,0.44,0.503,0.659
			c1.252,1.626,2.523,3.237,3.81,4.836c0.05,0.062,0.099,0.125,0.149,0.187c0.068,0.085,0.137,0.168,0.206,0.252
			c5.574,6.899,11.456,13.536,17.628,19.889c52.706,54.192,126.331,87.821,207.869,87.821c20.487,0,40.484-2.118,59.775-6.214
			c4.43-0.929,8.822-1.961,13.175-3.089c0.101-0.026,0.2-0.05,0.3-0.077c0.113-0.029,0.224-0.059,0.336-0.088
			c0.356-0.094,0.713-0.189,1.069-0.283c0.302-0.08,0.602-0.16,0.902-0.241c0.328-0.088,0.657-0.177,0.985-0.267
			c0.336-0.091,0.67-0.184,1.007-0.276c0.322-0.09,0.643-0.18,0.964-0.27c0.32-0.09,0.641-0.18,0.961-0.271
			c0.338-0.097,0.678-0.195,1.017-0.291c0.288-0.084,0.576-0.167,0.864-0.252c0.369-0.107,0.735-0.215,1.102-0.323
			c0.272-0.08,0.544-0.162,0.814-0.243c0.379-0.113,0.755-0.226,1.131-0.34c0.264-0.081,0.526-0.161,0.787-0.242
			c0.371-0.113,0.739-0.227,1.108-0.341c0.28-0.086,0.558-0.175,0.838-0.262c0.369-0.116,0.737-0.232,1.106-0.35
			c0.248-0.079,0.493-0.159,0.739-0.239c0.395-0.127,0.787-0.254,1.18-0.382c0.235-0.076,0.467-0.154,0.701-0.232
			c0.397-0.13,0.793-0.261,1.188-0.393c0.245-0.082,0.489-0.166,0.735-0.249c0.395-0.133,0.787-0.266,1.182-0.4
			c0.024-0.008,0.046-0.017,0.071-0.025c1.18-0.404,2.356-0.816,3.528-1.234l0.103-0.036c0.415-0.148,0.83-0.299,1.242-0.449
			c0.216-0.079,0.431-0.155,0.647-0.234c0.405-0.148,0.81-0.298,1.214-0.448c0.216-0.081,0.433-0.16,0.649-0.241
			c0.386-0.145,0.773-0.291,1.159-0.437c0.242-0.091,0.484-0.182,0.725-0.274c0.377-0.144,0.753-0.29,1.128-0.435
			c0.244-0.094,0.487-0.188,0.731-0.282c0.377-0.147,0.751-0.295,1.128-0.443c0.244-0.096,0.485-0.192,0.727-0.287
			c0.363-0.144,0.723-0.288,1.084-0.432c0.263-0.107,0.527-0.212,0.793-0.32c0.361-0.146,0.721-0.293,1.079-0.441
			c0.244-0.1,0.487-0.2,0.731-0.3c0.372-0.154,0.743-0.309,1.116-0.464c0.243-0.103,0.487-0.204,0.731-0.307
			c0.375-0.158,0.749-0.317,1.124-0.477c0.225-0.096,0.449-0.191,0.674-0.288c0.377-0.162,0.753-0.324,1.13-0.488
			c0.243-0.106,0.489-0.214,0.733-0.32c0.36-0.158,0.721-0.316,1.081-0.475c0.246-0.11,0.493-0.219,0.739-0.329
			c0.359-0.16,0.719-0.321,1.078-0.484c0.232-0.104,0.461-0.208,0.693-0.313c0.381-0.174,0.761-0.347,1.142-0.522
			c0.212-0.098,0.425-0.196,0.638-0.294c0.379-0.175,0.757-0.351,1.136-0.528l0.731-0.344c0.354-0.167,0.709-0.334,1.063-0.502
			c0.211-0.102,0.423-0.203,0.634-0.304c0.393-0.19,0.788-0.378,1.18-0.568c0.135-0.065,0.268-0.131,0.401-0.195
			c0.459-0.224,0.92-0.448,1.38-0.675c0.002-0.001,0.004-0.003,0.006-0.004c1.685-0.831,3.359-1.677,5.024-2.54
			c0.054-0.028,0.109-0.055,0.163-0.083c0.411-0.214,0.822-0.429,1.232-0.645c0.18-0.094,0.359-0.187,0.538-0.282
			c0.385-0.203,0.767-0.407,1.15-0.611c0.195-0.104,0.391-0.208,0.586-0.312c0.401-0.215,0.8-0.431,1.2-0.647l0.513-0.278
			c0.403-0.219,0.804-0.441,1.204-0.661c0.177-0.098,0.354-0.196,0.531-0.293c0.375-0.207,0.749-0.416,1.122-0.624
			c0.213-0.12,0.427-0.239,0.638-0.358c0.336-0.189,0.669-0.378,1.003-0.568c0.248-0.14,0.493-0.28,0.739-0.421
			c0.338-0.194,0.677-0.388,1.015-0.583c0.221-0.128,0.443-0.255,0.662-0.383c0.346-0.202,0.693-0.404,1.039-0.606
			c0.221-0.131,0.443-0.261,0.665-0.391c0.348-0.206,0.697-0.412,1.043-0.619c0.215-0.129,0.429-0.256,0.644-0.385
			c0.346-0.209,0.695-0.416,1.039-0.626c0.217-0.131,0.433-0.263,0.648-0.394c0.346-0.211,0.694-0.422,1.041-0.635
			c0.207-0.128,0.415-0.256,0.622-0.385c0.354-0.219,0.709-0.438,1.063-0.659l0.568-0.356c0.367-0.23,0.733-0.461,1.1-0.692
			c0.175-0.112,0.35-0.223,0.525-0.335c0.387-0.245,0.775-0.493,1.16-0.741l0.375-0.242c0.419-0.269,0.836-0.538,1.253-0.81
			c0.159-0.105,0.318-0.209,0.477-0.314c0.383-0.25,0.767-0.501,1.148-0.754c0.127-0.085,0.253-0.169,0.379-0.253
			c1.887-1.252,3.755-2.526,5.61-3.821c0.149-0.104,0.298-0.206,0.445-0.31c0.362-0.255,0.725-0.511,1.087-0.767
			c0.171-0.122,0.342-0.243,0.515-0.366c0.337-0.24,0.673-0.48,1.009-0.722c0.201-0.144,0.401-0.288,0.602-0.433
			c0.324-0.235,0.649-0.47,0.973-0.707c0.206-0.149,0.411-0.298,0.616-0.448c0.33-0.242,0.661-0.485,0.991-0.729
			c0.189-0.139,0.377-0.278,0.566-0.418c0.334-0.25,0.67-0.499,1.005-0.75c0.194-0.146,0.389-0.291,0.582-0.437
			c0.32-0.241,0.64-0.484,0.958-0.726c0.211-0.159,0.421-0.32,0.632-0.48c0.296-0.227,0.592-0.453,0.886-0.681
			c0.229-0.176,0.457-0.352,0.687-0.529c0.29-0.225,0.582-0.453,0.874-0.679c0.224-0.174,0.445-0.349,0.669-0.524
			c0.294-0.231,0.588-0.462,0.88-0.694c0.217-0.171,0.431-0.342,0.647-0.513c0.306-0.244,0.612-0.487,0.916-0.732
			c0.198-0.158,0.393-0.316,0.588-0.474c0.306-0.247,0.612-0.495,0.918-0.743c0.221-0.181,0.445-0.364,0.667-0.545
			c0.278-0.229,0.558-0.456,0.836-0.686c0.018-0.016,0.036-0.03,0.054-0.045l77.89,1.051c-4.065,9.682-6.571,20.012-7.258,30.487
			c-0.411,6.533-0.137,13.113,0.818,19.557c1.679,11.663,5.49,23.053,11.204,33.351c6.037,10.846,18.743,16.198,30.765,13.069
			c103.552-27.137,212.638-56.174,305.115-108.542c0.6-1.717,1.2-3.439,1.8-5.16c1.826,2.241,3.772,4.38,5.868,6.388
			c9.71,9.299,23.278,15.517,36.48,13.202c8.623-1.543,18.333-8.985,17.382-17.696c25.139,17.696,57.579,24.639,87.801,18.832
			c6.625-1.273,13.343-3.266,18.607-7.443c5.264-4.221,13.564-9.98,12.295-16.609c13.838,4.95,30.765-1.406,37.979-14.201
			c4.402-7.849,5.856-18.695,3.677-27.998C1613.853,1813.89,1611.042,1808.578,1606.64,1804.994z M968.038,637.118
			c-0.453,0.212-0.904,0.426-1.356,0.641c-0.028-0.187-0.054-0.373-0.082-0.559C967.079,637.173,967.559,637.146,968.038,637.118z"
			/>
		<g>
			<path style="fill:#EBD6DA;" d="M982.28,1353.193c25.332-7.197,51.615-11.899,77.573-16.47
				c9.166-15.655,14.434-35.896,20.374-53.044c12.699-36.556,32.044-70.212,56.158-100.325c14.978-2.86,29.593-9.753,43.131-17.162
				c0.431-0.235,0.862-0.472,1.291-0.708c10.063-5.567,19.955-11.428,29.654-17.574c9.676-6.13,19.159-12.543,28.429-19.229
				c-6.266,8.941-13.705,18.695-19.968,27.681c-1.768,2.497-3.628,5.401-2.952,8.349c1.317,5.719,9.621,5.807,15.34,4.083
				c27.68-8.349,50.322-27.499,71.921-46.375c-3.995,4.538-3.266,17.245,2.223,18.651c5.944,1.587,12.07-1.635,17.197-5.038
				c8.166-5.412,15.986-11.565,23.202-18.342c0,0,0,0,0.643-0.606c7.17-6.807,13.726-14.232,19.402-22.164
				c-0.592,3.315-1.135,6.673-1.543,10.028c-0.592,5.083,7.35,6.943,9.573,2.59c7.986-15.84,14.249-39.251,11.982-58.22
				c0.133-0.817,0.314-1.587,0.451-2.404c2.223-14.43,1.817-28.586-0.681-42.292c-1.088-1.587-1.998-3.311-2.767-5.083
				c-1.18,11.346-5.264,22.779-13.568,30.629c-8.304,7.805-21.281,11.208-31.539,6.218c-6.396-3.085-11.027-8.985-14.019-15.429
				c-2.996-6.395-4.72-13.476-6.218-20.419c-2.36,7.761-5.034,16.066-11.478,21.055c-2.267,1.724-5.538,2.948-7.898,1.406
				c-1.224-0.818-1.949-2.131-2.541-3.448c-2.175-4.72-2.811-9.936-3.311-15.111c-7.35,21.192-15.972,43.379-33.761,57.128
				c-5.671,4.402-12.614,7.849-19.782,7.35c-7.169-0.499-13.705-5.626-14.024-12.839c-4.897,8.393-11.752,15.61-19.783,21.055
				c-1.043,0.681-2.223,1.361-3.447,1.043c-2.042-0.544-2.267-3.315-2.042-5.445c0.451-4.313,1.994-7.898,2.449-12.207
				c-11.752,9.074-27.362,12.296-42.155,10.665c-14.748-1.635-28.723-7.805-41.2-15.836c-3.222-2.042-7.443-5.9-10.072-8.667
				c-4.587,6.17-12.163,10.572-19.698,9.392c-7.575-1.135-15.425-9.485-12.932-16.698c-2.674,4.583-6.17,8.711-10.254,12.114
				c-1.136,0.955-2.449,1.861-3.902,1.998c-2.086,0.182-3.947-1.272-5.353-2.77c-3.447-3.673-4.994-6.259-5.9-11.16
				c-9.255,1.043-18.603,2.13-27.906,1.313c-9.303-0.813-18.695-3.673-25.864-9.662c-6.037-5.082-9.847-12.207-13.842-19.062
				c1.998,4.084,3.178,10.214-0.906,12.256c-2.36,1.224-5.22,0.181-7.487-1.092c-4.426-2.465-8.869-6.47-12.141-10.926
				c1.733,20.193-25.14,32.424-42.257,25.493c-7.487-3.033-12.581-8.683-15.57-15.61c-4.893,7.7-15.775,13.451-24.18,10.314
				c-11.091-4.14-14.804-22.742-11.14-32.638c0.001-0.003,0.002-0.006,0.004-0.008c0.056-1.132,0.135-2.264,0.237-3.395
				c-4.99,6.806-16.923,12.34-24.958,14.925c-0.906,0.274-1.905,0.548-2.811,0.274c-1.909-0.588-2.453-2.948-2.497-4.946
				c-0.044-3.766,0.544-7.531,1.861-11.071c-7.853,4.672-18.739,8.486-27.817,9.347c-7.169,0.681-15.928-0.862-18.602-7.535
				c-1.909,3.902-8.53,9.533-11.575,12.662c-0.858,0.862-1.812,1.768-3.04,2.086c-3.311,0.91-6.214-2.811-6.669-6.214
				c-0.451-3.451,0.455-6.988-0.451-10.346c-3.677,7.169-12.936,13.25-18.924,18.651c-5.944,5.352-14.656,8.481-22.187,5.714
				c-7.08-2.585-11.801-10.435-10.846-17.833c-3.448,18.152-1.861,38.164,3.54,52.594c1.857,5.034,9.436,4.446,9.573-1.273
				c0.182-5.9,0.226-11.752,0.407-17.559c4.812,41.43,26.23,80.862,57.132,110.084c1.675,1.587,2.038,2.404,4.221,1.631
				c2.601-10.665,0.913-22.265-4.485-31.931c5.922,9.345,13.591,17.349,22.426,24.013c-3.215,2.263-6.365,4.633-9.492,6.992
				c-4.837,3.645-10.048,7.902-10.942,13.886c-0.712,4.745,3.466,9.919,7.704,10.141c-12.51,5.058-20.526,25.321-20.088,38.76
				c0.025,0.755,0.07,1.506,0.133,2.253c3.077-0.212,6.165-0.32,9.267-0.32C863.932,1211.531,931.152,1272.15,982.28,1353.193z"/>
			<path style="fill:#EBD6DA;" d="M1606.64,1804.994c9.799-7.756,15.248-20.737,13.931-33.17
				c-1.317-12.432-8.76-28.131-20.012-33.625c10.983-20.781,5.944-41.063-7.262-60.531c-8.755-12.795-23.774-20.193-39.07-23.004
				c-15.243-2.771-35.662,0.769-51.135,2.086c12.114-13.295,9.573-37.028-5.082-47.463c-9.247-6.556-21.925-6.824-32.179-2.167
				c-4.952,33.599-12.219,67.084-20.928,100.293c-4.146,15.807-8.619,31.551-13.325,47.214
				c-11.263,37.431-23.85,74.402-36.496,110.684c1.826,2.241,3.772,4.38,5.868,6.388c9.71,9.299,23.278,15.517,36.48,13.202
				c8.623-1.543,18.333-8.985,17.382-17.696c25.139,17.696,57.579,24.639,87.801,18.832c6.625-1.273,13.343-3.266,18.607-7.443
				c5.264-4.221,13.564-9.98,12.295-16.609c13.838,4.95,30.765-1.406,37.979-14.201c4.402-7.849,5.856-18.695,3.677-27.998
				C1613.853,1813.89,1611.042,1808.578,1606.64,1804.994z"/>
			<path style="fill:#EBD6DA;" d="M1386.426,1752.175c-6.955-3.205-13.142-8.328-18.327-14.572
				c-9.933-11.964-16.186-28.051-17.109-42.689c-3.085,13.882-18.288,22.412-32.489,22.279
				c-12.143-0.155-23.618-5.219-34.223-11.408c-1.76-1.028-3.498-2.087-5.21-3.159c-6.081-3.859-12.118-7.942-17.29-12.932
				c-24.14-23.459-25.545-61.804-19.331-94.881c2.994-16.072,11.067-28.107,18.669-40.54c6.222-10.174,12.13-20.613,14.682-33.745
				c13.387-68.832,46.375-133.721,94.067-185.087c4.539-4.857,9.621-9.847,16.154-10.983c6.533-1.135,14.386,3.721,13.749,10.302
				c4.446-13.025,8.031-22.28,17.652-32.175c1.905-1.949,4.04-3.673,6.351-5.216c-11.107-27.299-23.199-54.405-35.253-81.451
				c-1.616-0.323-3.15-1.088-4.675-1.807c-12.026-5.715-25.82-8.168-38.844-5.401c-13.02,2.77-26.364,8.397-30.31,21.103
				c-7.398,23.911-14.929,47.733-22.597,71.559c-21.692,67.382-30.085,160.539-94.656,189.625
				c-3.413,1.543-6.842,3.052-10.284,4.529c-19.849,8.515-40.167,15.932-60.816,22.195c-0.002,0-0.005,0.001-0.007,0.002
				c-21.441,6.562-43.244,11.885-65.282,15.888c5.451,19.79,9.813,39.254,12.984,57.966c4.002,23.622,6.108,46.047,6.108,66.424
				c0,24.16-2.949,47.631-8.526,70.064c-5.137,20.67-12.505,40.459-21.856,59.094l-0.068,0.209
				c-0.296,0.593-0.595,1.185-0.895,1.775c-0.103,0.202-0.206,0.404-0.31,0.606c-0.198,0.388-0.396,0.776-0.596,1.163
				c-0.121,0.234-0.242,0.466-0.363,0.699c-0.189,0.36-0.375,0.721-0.564,1.079c-0.133,0.253-0.267,0.503-0.4,0.755
				c-0.17,0.32-0.339,0.64-0.51,0.96c-0.152,0.284-0.305,0.568-0.458,0.852c-0.167,0.312-0.335,0.622-0.503,0.933
				c-0.137,0.252-0.275,0.502-0.412,0.754c-0.181,0.329-0.361,0.658-0.542,0.987l-0.435,0.782c-0.176,0.317-0.352,0.633-0.53,0.949
				c-0.146,0.26-0.293,0.519-0.44,0.779c-0.182,0.32-0.363,0.64-0.545,0.959c-0.149,0.263-0.3,0.525-0.451,0.786
				c-0.175,0.304-0.35,0.607-0.525,0.91c-0.159,0.274-0.318,0.548-0.477,0.82c-0.175,0.298-0.35,0.596-0.525,0.895
				c-0.158,0.268-0.316,0.536-0.475,0.804c-0.186,0.312-0.371,0.623-0.557,0.935c-0.152,0.253-0.303,0.507-0.456,0.76
				c-0.183,0.305-0.367,0.609-0.553,0.913c-0.162,0.268-0.325,0.536-0.488,0.803c-0.178,0.289-0.356,0.578-0.534,0.867
				c-0.171,0.278-0.342,0.555-0.513,0.832c-0.175,0.28-0.351,0.56-0.526,0.839c-0.173,0.278-0.346,0.554-0.519,0.831
				c-0.19,0.3-0.381,0.599-0.571,0.899c-0.161,0.253-0.321,0.506-0.483,0.759c-0.203,0.315-0.406,0.629-0.608,0.943
				c-0.156,0.24-0.31,0.482-0.466,0.722c-0.206,0.316-0.413,0.631-0.619,0.946c-0.157,0.239-0.313,0.477-0.47,0.716
				c-0.211,0.32-0.424,0.639-0.636,0.958c-0.19,0.284-0.378,0.568-0.568,0.851c-0.325,0.486-0.652,0.971-0.98,1.454
				c-0.168,0.248-0.336,0.493-0.505,0.739c-0.199,0.291-0.397,0.581-0.596,0.87c-0.196,0.283-0.392,0.564-0.587,0.846
				c-0.182,0.261-0.363,0.524-0.546,0.785c-0.2,0.287-0.402,0.572-0.603,0.857c-0.173,0.247-0.347,0.493-0.521,0.739
				c-0.199,0.281-0.401,0.562-0.601,0.843c-0.187,0.26-0.373,0.522-0.561,0.782c-0.201,0.279-0.403,0.557-0.604,0.835
				c-0.181,0.248-0.361,0.497-0.542,0.745c-0.206,0.281-0.411,0.561-0.617,0.841c-0.185,0.25-0.368,0.5-0.552,0.749
				c-0.211,0.284-0.422,0.567-0.634,0.851c-0.181,0.243-0.361,0.484-0.542,0.725c-0.213,0.282-0.424,0.564-0.638,0.845
				c-0.189,0.25-0.378,0.498-0.568,0.747c-0.194,0.254-0.388,0.507-0.582,0.761c-0.215,0.282-0.432,0.564-0.65,0.845
				c-0.188,0.242-0.375,0.484-0.563,0.726c-0.213,0.273-0.425,0.546-0.639,0.817l-0.577,0.734c-0.219,0.278-0.44,0.555-0.66,0.833
				c-0.189,0.236-0.377,0.473-0.565,0.708c-0.218,0.272-0.436,0.544-0.655,0.815c-0.201,0.247-0.4,0.495-0.6,0.742
				c-0.21,0.259-0.42,0.516-0.629,0.773c-0.205,0.249-0.407,0.497-0.612,0.746c-0.215,0.262-0.433,0.524-0.65,0.787
				c-0.206,0.246-0.409,0.494-0.614,0.74c-0.218,0.261-0.436,0.52-0.654,0.779c-0.202,0.24-0.404,0.481-0.606,0.721
				c-0.205,0.242-0.412,0.483-0.617,0.724c-0.228,0.269-0.456,0.538-0.686,0.806c-0.15,0.175-0.301,0.348-0.452,0.523
				c-0.274,0.318-0.548,0.637-0.823,0.952c-0.067,0.078-0.135,0.154-0.203,0.23c-0.666,0.765-1.336,1.526-2.01,2.284
				c-0.114,0.127-0.225,0.255-0.339,0.381c-0.25,0.28-0.501,0.559-0.753,0.838c-0.192,0.214-0.385,0.429-0.579,0.644
				c-0.211,0.232-0.423,0.465-0.634,0.697c-0.236,0.259-0.471,0.517-0.708,0.775c-0.214,0.233-0.43,0.467-0.646,0.699
				c-0.223,0.241-0.446,0.483-0.67,0.724c-0.235,0.254-0.473,0.507-0.711,0.76c-0.21,0.226-0.421,0.45-0.633,0.676
				c-0.237,0.252-0.476,0.503-0.716,0.755c-0.213,0.224-0.425,0.447-0.638,0.671c-0.246,0.256-0.492,0.513-0.738,0.769
				c-0.202,0.21-0.405,0.42-0.608,0.63c-0.25,0.257-0.501,0.516-0.752,0.773c-0.214,0.219-0.428,0.438-0.643,0.657
				c-0.244,0.247-0.488,0.495-0.733,0.743l-0.634,0.64c-0.252,0.253-0.503,0.505-0.755,0.756c-0.215,0.214-0.429,0.426-0.643,0.64
				c-0.249,0.245-0.497,0.492-0.747,0.738c-0.216,0.214-0.434,0.426-0.651,0.638c-0.258,0.254-0.518,0.507-0.779,0.76
				c-0.194,0.189-0.39,0.378-0.585,0.566c-0.276,0.266-0.551,0.532-0.828,0.797c-0.195,0.187-0.39,0.372-0.585,0.559
				c-0.284,0.27-0.568,0.54-0.853,0.809c-0.177,0.167-0.355,0.334-0.532,0.501c-0.298,0.279-0.595,0.559-0.894,0.837
				c-0.184,0.172-0.368,0.342-0.554,0.513c-0.292,0.271-0.585,0.543-0.878,0.813c-0.183,0.167-0.365,0.333-0.547,0.5
				c-0.306,0.279-0.61,0.559-0.917,0.837c-0.127,0.115-0.254,0.229-0.383,0.344c-0.354,0.321-0.711,0.643-1.067,0.963
				c-0.033,0.029-0.066,0.058-0.1,0.088c-1.285,1.149-2.581,2.286-3.887,3.414c-0.127,0.109-0.253,0.219-0.379,0.328
				c-0.308,0.263-0.616,0.526-0.925,0.789c-0.189,0.162-0.379,0.324-0.569,0.485c-0.321,0.271-0.643,0.542-0.965,0.813
				c-0.173,0.145-0.346,0.292-0.519,0.437c-0.302,0.253-0.606,0.504-0.909,0.756c-0.197,0.163-0.392,0.326-0.588,0.488l77.889,1.051
				c5.867-13.973,14.985-26.594,26.593-36.351c24.458-20.604,61.623-26.5,92.976-32.763l-1.043-0.637
				c12.75-0.818,25.501-1.679,38.203-2.541c22.041-1.464,44.099-2.928,66.176-4.003c12.785-0.622,25.577-1.114,38.375-1.397
				c10.89-0.225,24.277,1.136,28.675,11.12c4.221,9.666-3.13,20.282-10.572,27.725c-48.324,48.461-118.614,70.923-186.178,59.895
				c-17.153,14.567-34.712,29.452-55.63,37.801c-13.343,5.308-30.54,7.032-40.342-3.496c-1.498-1.587-2.723-3.403-3.673-5.308
				c1.679,11.663,5.489,23.053,11.204,33.351c6.037,10.846,18.743,16.198,30.765,13.069
				c103.552-27.136,212.638-56.174,305.115-108.542c0.6-1.718,1.2-3.439,1.8-5.16c12.647-36.282,25.234-73.252,36.496-110.684
				C1416.873,1759.255,1400.449,1758.619,1386.426,1752.175z"/>
			<path style="fill:#CD6C28;" d="M1074.032,1591.579c-3.172-18.712-7.533-38.176-12.984-57.966
				c-13.778,2.503-27.648,4.491-41.577,5.94c-0.91,0.137-1.772,0.226-2.678,0.318c-2.707,4.104-5.495,8.152-8.357,12.145
				c-10.703,14.925-22.483,29.06-35.244,42.279c-3.339,3.46-6.746,6.859-10.217,10.192c-10.117,9.666-20.963,18.921-33.713,24.728
				c-2.693,1.217-5.486,2.267-8.337,3.121c-10.655,3.19-22.149,3.631-32.457-0.306c-7.831-3.004-14.924-10.164-19.233-18.425
				c-2.783-5.334-4.406-11.129-4.315-16.561v-0.588c-12.98-16.384-17.882-38.071-17.153-58.945
				c0.336-9.112,1.649-18.12,3.579-27.025c0.002-0.009,0.002-0.017,0.004-0.025c2.489-11.486,6.001-22.798,9.756-33.937
				c0.089-0.261,0.194-0.545,0.308-0.843c0,0,0,0,0.006-0.019c1.361-3.518,4.41-9.272,6.041-12.07
				c-2.36,2.766-5.719,4.72-9.303,5.352c6.363-18.964,16.356-36.965,29.318-52.326c1.375-1.631,2.785-3.231,4.227-4.8
				c5.302-5.769,11.045-11.108,17.193-15.918c4.617-3.614,9.461-6.93,14.515-9.904c-5.445,1.273-10.938,2.497-16.384,3.77
				c2.541-4.631,7.169-7.668,11.756-10.346c7.9-4.658,16.051-8.762,24.398-12.412c12.644-5.531,25.739-10.021,39.1-13.816
				c-51.13-81.043-118.349-141.661-191.967-141.661c-3.101,0-6.19,0.109-9.267,0.32c-12.108,0.835-24.03,3.288-35.717,7.176
				c-0.719,4.752-5.218,10.799-6.675,19.773c-0.616,3.783-0.804,7.603-0.737,11.432c0.084,4.88,0.58,9.775,1.123,14.629
				c0.687,6.116,1.452,12.222,2.239,18.327c2.114,16.405,4.39,32.795,5.725,49.279c0.2,2.459,0.379,4.918,0.534,7.38
				c1.269,20.274,3.673,45.924-5.066,64.893c-3.79,8.22-9.984,15.094-16.56,21.321c-9.495,8.995-20.161,17.01-31.927,22.604
				c-4.341,2.062-8.83,3.799-13.465,5.129c-7.614,2.183-15.659,3.182-23.583,2.804c-9.992-0.476-19.789-3.14-28.282-8.386
				c-16.659-10.293-26.099-28.693-31.299-47.886c-0.987-3.643-1.823-7.315-2.523-10.966c-1.581-8.224-2.717-16.54-3.391-24.885
				c-38.486,64.256-67.016,139.69-81.067,207.539c-1.722,8.251-3.224,16.389-4.503,24.383c-0.01,0.065-0.022,0.127-0.033,0.192
				c-0.032,0.202-0.064,0.403-0.094,0.604c-0.043,0.268-0.085,0.534-0.127,0.801c-0.115,0.727-0.228,1.454-0.336,2.178
				c-0.014,0.089-0.028,0.179-0.042,0.267c-0.135,0.892-0.266,1.781-0.395,2.669l-0.024,0.156c-0.125,0.865-0.247,1.728-0.369,2.59
				c-0.006,0.037-0.01,0.075-0.016,0.114c-0.253,1.814-0.493,3.62-0.723,5.418c-0.002,0.017-0.004,0.034-0.006,0.05
				c-0.344,2.71-0.661,5.401-0.95,8.069c-0.002,0.018-0.004,0.035-0.006,0.052c-0.286,2.654-0.546,5.287-0.777,7.897l-0.012,0.126
				c-0.151,1.726-0.292,3.443-0.419,5.148c-0.004,0.043-0.008,0.087-0.01,0.13c-0.06,0.801-0.117,1.6-0.171,2.398
				c-0.004,0.062-0.01,0.125-0.014,0.188c-0.111,1.644-0.21,3.278-0.298,4.902c-0.008,0.143-0.016,0.285-0.022,0.427
				c-0.038,0.707-0.075,1.41-0.107,2.112c-0.004,0.091-0.008,0.179-0.012,0.269c-0.036,0.789-0.071,1.577-0.103,2.361
				c-0.004,0.13-0.008,0.259-0.014,0.389c-0.024,0.645-0.046,1.286-0.067,1.926c-0.008,0.188-0.014,0.378-0.018,0.565
				c-0.02,0.667-0.04,1.331-0.056,1.994c-0.002,0.101-0.004,0.201-0.008,0.3c-0.016,0.748-0.032,1.494-0.044,2.238
				c-0.002,0.181-0.004,0.36-0.008,0.541c-0.008,0.566-0.014,1.132-0.02,1.695c-0.003,0.224-0.004,0.449-0.007,0.673
				c-0.004,0.724-0.008,1.448-0.008,2.167c0,0.59,0.002,1.179,0.006,1.768c0,0.143,0.002,0.286,0.002,0.428
				c0.004,0.425,0.009,0.852,0.013,1.278c0.002,0.223,0.006,0.445,0.01,0.668c0.004,0.357,0.01,0.714,0.016,1.072
				c0.004,0.224,0.008,0.448,0.012,0.673c0.008,0.359,0.016,0.72,0.024,1.079l0.018,0.713c0.008,0.336,0.018,0.673,0.029,1.009
				c0.006,0.233,0.012,0.467,0.02,0.699c0.012,0.404,0.026,0.807,0.042,1.21c0.006,0.167,0.01,0.334,0.016,0.501
				c0.018,0.436,0.036,0.872,0.054,1.307c0.01,0.258,0.02,0.518,0.032,0.775c0.02,0.454,0.042,0.907,0.064,1.36l0.03,0.595
				c0.021,0.379,0.038,0.758,0.06,1.137c0.01,0.205,0.022,0.408,0.034,0.612c0.022,0.372,0.044,0.743,0.066,1.114
				c0.014,0.228,0.028,0.454,0.042,0.682c0.022,0.349,0.044,0.699,0.068,1.047c0.014,0.214,0.028,0.428,0.044,0.643
				c0.026,0.397,0.056,0.795,0.084,1.192c0.012,0.166,0.025,0.332,0.036,0.497c0.033,0.429,0.066,0.858,0.101,1.287
				c0.012,0.153,0.024,0.306,0.036,0.458c0.036,0.463,0.076,0.924,0.117,1.385c0.01,0.118,0.018,0.235,0.028,0.353
				c0.05,0.572,0.103,1.144,0.155,1.716c0.01,0.109,0.022,0.218,0.032,0.328c0.042,0.445,0.084,0.889,0.129,1.333
				c0.02,0.21,0.042,0.419,0.062,0.628c0.036,0.356,0.072,0.713,0.111,1.069c0.022,0.229,0.048,0.458,0.072,0.687l0.111,1.024
				c0.027,0.225,0.05,0.452,0.077,0.677c0.038,0.342,0.078,0.683,0.119,1.026c0.024,0.218,0.05,0.435,0.076,0.652
				c0.048,0.408,0.099,0.816,0.149,1.222c0.018,0.148,0.034,0.296,0.054,0.443c0.06,0.487,0.123,0.973,0.185,1.459
				c0.01,0.084,0.022,0.167,0.032,0.251c0.074,0.57,0.151,1.139,0.23,1.708c0.012,0.092,0.026,0.186,0.038,0.28
				c0.064,0.462,0.129,0.924,0.195,1.385c0.026,0.187,0.054,0.374,0.081,0.561c0.054,0.37,0.109,0.742,0.163,1.111
				c0.03,0.203,0.061,0.406,0.093,0.609c0.054,0.367,0.111,0.735,0.167,1.102c0.03,0.188,0.06,0.378,0.089,0.566
				c0.06,0.386,0.123,0.772,0.185,1.156c0.028,0.177,0.056,0.355,0.085,0.532c0.068,0.41,0.135,0.821,0.205,1.23
				c0.024,0.145,0.048,0.292,0.073,0.437c0.078,0.471,0.161,0.943,0.241,1.412c0.016,0.091,0.032,0.182,0.048,0.272
				c0.099,0.568,0.199,1.135,0.302,1.702c0.008,0.037,0.015,0.074,0.022,0.111c0.092,0.518,0.189,1.037,0.286,1.555
				c0.026,0.134,0.05,0.267,0.076,0.401c0.077,0.408,0.155,0.815,0.233,1.221c0.039,0.198,0.077,0.395,0.115,0.592
				c0.071,0.358,0.141,0.715,0.211,1.072l0.115,0.571c0.077,0.383,0.155,0.766,0.234,1.149c0.034,0.168,0.07,0.337,0.104,0.505
				c0.081,0.389,0.163,0.776,0.244,1.164c0.036,0.166,0.07,0.334,0.107,0.5c0.105,0.493,0.212,0.986,0.32,1.477
				c0.01,0.048,0.021,0.095,0.033,0.144c0.123,0.559,0.245,1.118,0.373,1.675c0.018,0.085,0.038,0.169,0.058,0.254
				c0.105,0.463,0.212,0.926,0.318,1.388c0.038,0.16,0.074,0.319,0.113,0.479c0.088,0.38,0.179,0.761,0.269,1.141
				c0.042,0.181,0.087,0.364,0.129,0.545c0.092,0.382,0.185,0.763,0.278,1.145c0.038,0.153,0.076,0.307,0.113,0.461
				c0.101,0.404,0.201,0.807,0.302,1.21c0.038,0.152,0.077,0.303,0.115,0.454c0.099,0.393,0.2,0.786,0.3,1.18
				c0.04,0.155,0.08,0.311,0.121,0.467c0.133,0.513,0.268,1.025,0.403,1.538c0.004,0.014,0.008,0.028,0.012,0.042
				c0.149,0.564,0.3,1.126,0.453,1.689c0.003,0.008,0.005,0.017,0.007,0.027c0.145,0.527,0.29,1.053,0.435,1.579
				c0.04,0.146,0.083,0.293,0.123,0.44c0.104,0.374,0.209,0.748,0.316,1.122c0.056,0.195,0.111,0.389,0.167,0.582
				c0.103,0.36,0.207,0.72,0.31,1.079c0.05,0.17,0.101,0.34,0.149,0.51c0.106,0.36,0.211,0.719,0.318,1.079
				c0.054,0.181,0.107,0.362,0.161,0.543c0.117,0.387,0.234,0.773,0.351,1.16c0.042,0.14,0.084,0.28,0.127,0.419
				c0.143,0.465,0.286,0.928,0.429,1.391l0.06,0.193c0.334,1.078,0.677,2.152,1.025,3.224c0.038,0.118,0.076,0.236,0.115,0.354
				c0.133,0.41,0.268,0.818,0.403,1.227c0.05,0.15,0.101,0.301,0.151,0.451c0.127,0.385,0.256,0.768,0.385,1.152
				c0.05,0.148,0.101,0.296,0.151,0.444c0.125,0.366,0.249,0.732,0.374,1.097c0.065,0.187,0.127,0.372,0.192,0.557
				c0.115,0.329,0.229,0.659,0.344,0.989c0.068,0.196,0.137,0.392,0.208,0.588c0.127,0.358,0.253,0.717,0.383,1.076
				c0.054,0.154,0.109,0.309,0.165,0.464c0.368,1.027,0.743,2.052,1.124,3.075c0.064,0.172,0.129,0.344,0.193,0.517
				c0.133,0.359,0.268,0.717,0.403,1.073c0.058,0.154,0.117,0.307,0.175,0.461c0.139,0.362,0.278,0.725,0.417,1.087
				c0.066,0.171,0.133,0.34,0.198,0.511c0.129,0.334,0.26,0.669,0.391,1.002c0.076,0.198,0.155,0.397,0.233,0.594
				c0.127,0.324,0.256,0.647,0.385,0.97c0.07,0.18,0.143,0.36,0.216,0.539c0.137,0.346,0.276,0.689,0.417,1.033
				c0.069,0.171,0.137,0.343,0.208,0.514c0.201,0.492,0.403,0.985,0.606,1.476c0.014,0.033,0.029,0.066,0.042,0.101
				c0.201,0.487,0.405,0.974,0.61,1.461c0.048,0.118,0.101,0.236,0.149,0.354c0.161,0.379,0.322,0.757,0.483,1.135
				c0.076,0.181,0.155,0.362,0.234,0.543c0.137,0.322,0.276,0.643,0.415,0.965c0.082,0.189,0.165,0.379,0.249,0.568
				c0.133,0.304,0.266,0.608,0.399,0.912c0.095,0.215,0.192,0.431,0.286,0.646c0.127,0.287,0.253,0.573,0.382,0.858
				c0.093,0.208,0.188,0.418,0.28,0.625c0.135,0.296,0.267,0.592,0.403,0.887c0.09,0.201,0.183,0.403,0.274,0.603
				c0.189,0.414,0.381,0.826,0.572,1.239c0.034,0.075,0.068,0.152,0.105,0.229c0.225,0.485,0.453,0.97,0.68,1.455
				c0.091,0.193,0.181,0.384,0.272,0.575c0.139,0.291,0.276,0.582,0.415,0.873c0.105,0.219,0.211,0.438,0.316,0.657
				c0.133,0.277,0.266,0.553,0.399,0.829c0.103,0.209,0.206,0.419,0.306,0.628c0.139,0.285,0.28,0.57,0.419,0.854
				c0.105,0.213,0.212,0.427,0.316,0.64c0.135,0.271,0.27,0.542,0.405,0.812c0.103,0.208,0.208,0.418,0.312,0.626
				c0.143,0.287,0.288,0.573,0.433,0.86c0.105,0.206,0.209,0.413,0.314,0.62c0.109,0.212,0.218,0.423,0.326,0.636
				c0.284,0.554,0.57,1.107,0.858,1.659c0.088,0.169,0.175,0.337,0.263,0.506c0.121,0.233,0.244,0.465,0.367,0.698
				c0.129,0.245,0.258,0.49,0.389,0.735c0.131,0.248,0.264,0.497,0.397,0.745c0.117,0.219,0.234,0.439,0.353,0.659
				c0.137,0.258,0.278,0.515,0.417,0.773c0.117,0.215,0.233,0.43,0.35,0.645c0.141,0.259,0.282,0.519,0.425,0.778l0.344,0.625
				c0.141,0.257,0.284,0.513,0.425,0.769c0.119,0.214,0.237,0.427,0.356,0.64c0.149,0.263,0.296,0.527,0.443,0.789
				c0.079,0.138,0.155,0.275,0.234,0.413c0.413,0.73,0.828,1.458,1.247,2.184c0.014,0.025,0.028,0.049,0.042,0.074
				c0.203,0.352,0.409,0.703,0.612,1.055c0.054,0.093,0.109,0.187,0.165,0.281c0.189,0.323,0.378,0.646,0.568,0.968
				c0.082,0.141,0.167,0.282,0.25,0.422c0.182,0.306,0.363,0.611,0.546,0.916c0.087,0.147,0.173,0.293,0.262,0.439
				c0.185,0.31,0.371,0.619,0.558,0.928c0.076,0.128,0.155,0.256,0.232,0.383c0.206,0.338,0.411,0.674,0.616,1.012
				c0.042,0.068,0.085,0.137,0.127,0.206c0.23,0.375,0.459,0.748,0.691,1.122c0.008,0.012,0.016,0.024,0.022,0.035
				c1.011,1.63,2.036,3.248,3.077,4.856c0.058,0.088,0.115,0.177,0.173,0.266c0.221,0.343,0.445,0.684,0.669,1.025
				c0.056,0.085,0.111,0.171,0.167,0.256c0.233,0.356,0.469,0.712,0.704,1.068c0.04,0.061,0.083,0.124,0.123,0.185
				c0.247,0.373,0.495,0.743,0.743,1.115c0.022,0.031,0.044,0.063,0.064,0.096c1.236,1.84,2.493,3.667,3.77,5.478
				c0.427,0.604,0.854,1.206,1.285,1.807l0.044,0.063c0.284,0.395,0.568,0.789,0.852,1.182c0.004,0.005,0.008,0.01,0.012,0.014
				c0.286,0.395,0.572,0.789,0.86,1.182l0.05,0.068c0.598,0.816,1.2,1.627,1.806,2.437c0.176,0.233,0.351,0.465,0.526,0.697
				c0.457,0.606,0.916,1.211,1.379,1.814c0.167,0.219,0.334,0.44,0.503,0.659c1.252,1.626,2.523,3.237,3.81,4.836
				c0.05,0.062,0.099,0.125,0.149,0.187c0.068,0.085,0.137,0.168,0.206,0.252c5.574,6.899,11.456,13.536,17.628,19.889
				c52.706,54.192,126.331,87.821,207.869,87.821c20.487,0,40.484-2.118,59.775-6.214c4.43-0.929,8.822-1.961,13.175-3.089
				c0.101-0.026,0.2-0.05,0.3-0.077c0.113-0.029,0.224-0.059,0.336-0.088c0.356-0.094,0.713-0.189,1.069-0.283
				c0.302-0.08,0.602-0.16,0.902-0.241c0.328-0.088,0.657-0.177,0.985-0.267c0.336-0.091,0.67-0.184,1.007-0.276
				c0.322-0.09,0.643-0.18,0.964-0.27c0.32-0.09,0.641-0.18,0.961-0.271c0.338-0.097,0.678-0.195,1.017-0.291
				c0.288-0.084,0.576-0.167,0.864-0.252c0.369-0.107,0.735-0.215,1.102-0.323c0.272-0.08,0.544-0.162,0.814-0.243
				c0.379-0.113,0.755-0.226,1.131-0.34c0.264-0.081,0.526-0.161,0.787-0.242c0.371-0.113,0.739-0.227,1.108-0.341
				c0.28-0.086,0.558-0.175,0.838-0.262c0.369-0.116,0.737-0.232,1.106-0.35c0.248-0.079,0.493-0.159,0.739-0.239
				c0.395-0.127,0.787-0.254,1.18-0.382c0.235-0.076,0.467-0.154,0.701-0.232c0.397-0.13,0.793-0.261,1.188-0.393
				c0.245-0.082,0.489-0.166,0.735-0.249c0.395-0.133,0.787-0.266,1.182-0.4c0.024-0.008,0.046-0.017,0.071-0.025
				c1.18-0.404,2.356-0.816,3.528-1.234l0.103-0.036c0.415-0.148,0.83-0.299,1.242-0.449c0.216-0.079,0.431-0.155,0.647-0.234
				c0.405-0.148,0.81-0.298,1.214-0.448c0.216-0.081,0.433-0.16,0.649-0.241c0.386-0.145,0.773-0.291,1.159-0.437
				c0.242-0.091,0.484-0.182,0.725-0.274c0.377-0.144,0.753-0.29,1.128-0.435c0.244-0.094,0.487-0.188,0.731-0.282
				c0.377-0.147,0.751-0.295,1.128-0.443c0.244-0.096,0.485-0.192,0.727-0.287c0.363-0.144,0.723-0.288,1.084-0.432
				c0.263-0.107,0.527-0.212,0.793-0.32c0.361-0.146,0.721-0.293,1.079-0.441c0.244-0.1,0.487-0.2,0.731-0.3
				c0.372-0.154,0.743-0.309,1.116-0.464c0.243-0.103,0.487-0.204,0.731-0.307c0.375-0.158,0.749-0.317,1.124-0.477
				c0.225-0.096,0.449-0.191,0.674-0.288c0.377-0.162,0.753-0.324,1.13-0.488c0.243-0.106,0.489-0.214,0.733-0.32
				c0.36-0.158,0.721-0.316,1.081-0.475c0.246-0.11,0.493-0.219,0.739-0.329c0.359-0.16,0.719-0.321,1.078-0.484
				c0.232-0.104,0.461-0.208,0.693-0.313c0.381-0.174,0.761-0.347,1.142-0.522c0.212-0.098,0.425-0.196,0.638-0.294
				c0.379-0.175,0.757-0.351,1.136-0.528l0.731-0.344c0.354-0.167,0.709-0.334,1.063-0.502c0.211-0.102,0.423-0.203,0.634-0.304
				c0.393-0.19,0.788-0.378,1.18-0.568c0.135-0.065,0.268-0.131,0.401-0.195c0.459-0.224,0.92-0.448,1.38-0.675
				c0.002-0.001,0.004-0.003,0.006-0.004c1.685-0.831,3.359-1.677,5.024-2.54c0.054-0.028,0.109-0.055,0.163-0.083
				c0.411-0.214,0.822-0.429,1.232-0.645c0.18-0.094,0.359-0.187,0.538-0.282c0.385-0.203,0.767-0.407,1.15-0.611
				c0.195-0.104,0.391-0.208,0.586-0.312c0.401-0.215,0.8-0.431,1.2-0.647l0.513-0.278c0.403-0.219,0.804-0.441,1.204-0.661
				c0.177-0.098,0.354-0.196,0.531-0.293c0.375-0.207,0.749-0.416,1.122-0.624c0.213-0.12,0.427-0.239,0.638-0.358
				c0.336-0.189,0.669-0.378,1.003-0.568c0.248-0.14,0.493-0.28,0.739-0.421c0.338-0.194,0.677-0.388,1.015-0.583
				c0.221-0.128,0.443-0.255,0.662-0.383c0.346-0.202,0.693-0.404,1.039-0.606c0.221-0.131,0.443-0.261,0.665-0.391
				c0.348-0.206,0.697-0.412,1.043-0.619c0.215-0.129,0.429-0.256,0.644-0.385c0.346-0.209,0.695-0.416,1.039-0.626
				c0.217-0.131,0.433-0.263,0.648-0.394c0.346-0.211,0.694-0.422,1.041-0.635c0.207-0.128,0.415-0.256,0.622-0.385
				c0.354-0.219,0.709-0.438,1.063-0.659l0.568-0.356c0.367-0.23,0.733-0.461,1.1-0.692c0.175-0.112,0.35-0.223,0.525-0.335
				c0.387-0.245,0.775-0.493,1.16-0.741l0.375-0.242c0.419-0.269,0.836-0.538,1.253-0.81c0.159-0.105,0.318-0.209,0.477-0.314
				c0.383-0.25,0.767-0.501,1.148-0.754c0.127-0.085,0.253-0.169,0.379-0.253c1.887-1.252,3.755-2.526,5.61-3.821
				c0.149-0.104,0.298-0.206,0.445-0.31c0.362-0.255,0.725-0.511,1.087-0.767c0.171-0.122,0.342-0.243,0.515-0.366
				c0.337-0.24,0.673-0.48,1.009-0.722c0.201-0.144,0.401-0.288,0.602-0.433c0.324-0.235,0.649-0.47,0.973-0.707
				c0.206-0.149,0.411-0.298,0.616-0.448c0.33-0.242,0.661-0.485,0.991-0.729c0.189-0.139,0.377-0.278,0.566-0.418
				c0.334-0.25,0.67-0.499,1.005-0.75c0.194-0.146,0.389-0.291,0.582-0.437c0.32-0.241,0.64-0.484,0.958-0.726
				c0.211-0.159,0.421-0.32,0.632-0.48c0.296-0.227,0.592-0.453,0.886-0.681c0.229-0.176,0.457-0.352,0.687-0.529
				c0.29-0.225,0.582-0.453,0.874-0.679c0.224-0.174,0.445-0.349,0.669-0.524c0.294-0.231,0.588-0.462,0.88-0.694
				c0.217-0.171,0.431-0.342,0.647-0.513c0.306-0.244,0.612-0.487,0.916-0.732c0.198-0.158,0.393-0.316,0.588-0.474
				c0.306-0.247,0.612-0.495,0.918-0.743c0.221-0.181,0.445-0.364,0.667-0.545c0.278-0.229,0.558-0.456,0.836-0.686
				c0.018-0.016,0.036-0.03,0.054-0.045c0.198-0.162,0.393-0.325,0.588-0.488c0.304-0.251,0.608-0.503,0.91-0.756
				c0.173-0.145,0.347-0.292,0.52-0.437c0.322-0.271,0.642-0.542,0.964-0.814c0.189-0.161,0.379-0.323,0.568-0.485
				c0.31-0.262,0.618-0.525,0.927-0.789c0.125-0.11,0.251-0.219,0.379-0.328c1.305-1.127,2.602-2.264,3.886-3.413
				c0.034-0.03,0.066-0.059,0.101-0.089c0.356-0.32,0.712-0.641,1.067-0.962c0.127-0.115,0.255-0.229,0.383-0.344
				c0.306-0.278,0.61-0.558,0.916-0.837c0.181-0.167,0.365-0.333,0.546-0.5c0.294-0.27,0.586-0.542,0.878-0.813
				c0.185-0.171,0.37-0.341,0.554-0.513c0.298-0.278,0.596-0.558,0.894-0.837c0.177-0.167,0.354-0.334,0.531-0.501
				c0.286-0.269,0.57-0.54,0.854-0.81c0.195-0.186,0.391-0.372,0.584-0.559c0.278-0.265,0.552-0.531,0.828-0.796
				c0.196-0.189,0.391-0.377,0.586-0.566c0.259-0.253,0.519-0.506,0.779-0.76c0.218-0.213,0.435-0.425,0.65-0.639
				c0.25-0.245,0.499-0.492,0.747-0.738c0.216-0.214,0.429-0.426,0.644-0.639c0.252-0.252,0.503-0.504,0.755-0.756l0.634-0.641
				c0.244-0.247,0.489-0.495,0.733-0.743c0.213-0.219,0.429-0.437,0.642-0.657c0.25-0.256,0.501-0.515,0.751-0.773
				c0.203-0.211,0.407-0.42,0.608-0.63c0.247-0.256,0.493-0.512,0.739-0.769c0.214-0.224,0.425-0.447,0.638-0.671
				c0.24-0.251,0.477-0.503,0.715-0.755c0.214-0.225,0.423-0.45,0.635-0.676c0.237-0.252,0.475-0.506,0.71-0.76
				c0.224-0.241,0.448-0.482,0.671-0.724c0.215-0.233,0.431-0.467,0.644-0.7c0.237-0.258,0.474-0.516,0.709-0.775
				c0.211-0.231,0.422-0.464,0.634-0.697c0.194-0.214,0.387-0.429,0.578-0.643c0.252-0.279,0.503-0.558,0.753-0.838
				c0.115-0.127,0.225-0.255,0.34-0.382c0.672-0.758,1.344-1.518,2.01-2.283c0.066-0.076,0.135-0.153,0.201-0.23
				c0.276-0.316,0.55-0.635,0.824-0.952c0.151-0.176,0.302-0.349,0.451-0.524c0.229-0.268,0.459-0.536,0.687-0.805
				c0.206-0.241,0.411-0.482,0.617-0.724c0.203-0.24,0.405-0.481,0.606-0.721c0.218-0.26,0.437-0.519,0.655-0.779
				c0.206-0.246,0.409-0.493,0.614-0.74c0.217-0.262,0.435-0.524,0.651-0.787c0.206-0.248,0.407-0.497,0.612-0.746
				c0.209-0.258,0.419-0.515,0.628-0.773c0.202-0.247,0.401-0.494,0.6-0.742c0.22-0.27,0.437-0.542,0.655-0.814
				c0.189-0.235,0.377-0.473,0.566-0.709c0.219-0.278,0.441-0.555,0.66-0.833l0.576-0.734c0.214-0.272,0.427-0.545,0.639-0.818
				c0.189-0.241,0.377-0.483,0.564-0.726c0.218-0.281,0.435-0.563,0.651-0.845c0.193-0.254,0.389-0.507,0.582-0.761
				c0.19-0.248,0.379-0.497,0.568-0.747c0.214-0.281,0.425-0.563,0.637-0.845c0.181-0.241,0.362-0.482,0.544-0.725
				c0.211-0.284,0.423-0.567,0.632-0.851c0.185-0.249,0.369-0.499,0.552-0.749c0.208-0.28,0.413-0.56,0.618-0.841
				c0.181-0.248,0.36-0.496,0.542-0.745c0.201-0.278,0.403-0.556,0.604-0.835c0.187-0.26,0.372-0.521,0.56-0.782
				c0.201-0.281,0.403-0.562,0.602-0.843c0.173-0.245,0.346-0.492,0.519-0.739c0.202-0.285,0.405-0.57,0.604-0.857
				c0.183-0.26,0.364-0.523,0.546-0.785c0.195-0.282,0.393-0.563,0.588-0.846c0.199-0.29,0.397-0.58,0.596-0.871
				c0.169-0.245,0.336-0.492,0.505-0.739c0.328-0.484,0.655-0.968,0.981-1.454c0.189-0.283,0.378-0.567,0.568-0.851
				c0.211-0.319,0.424-0.638,0.636-0.958c0.157-0.239,0.312-0.477,0.469-0.716c0.207-0.315,0.415-0.63,0.62-0.946
				c0.155-0.24,0.31-0.481,0.465-0.722c0.203-0.314,0.407-0.628,0.608-0.943c0.163-0.252,0.322-0.506,0.483-0.759
				c0.191-0.3,0.381-0.599,0.572-0.9c0.173-0.277,0.346-0.553,0.52-0.831c0.175-0.279,0.35-0.559,0.525-0.839
				c0.171-0.277,0.342-0.554,0.513-0.832c0.177-0.289,0.357-0.578,0.534-0.867c0.163-0.268,0.326-0.536,0.487-0.804
				c0.185-0.304,0.37-0.608,0.554-0.913c0.153-0.253,0.304-0.506,0.455-0.76c0.187-0.311,0.372-0.622,0.558-0.935
				c0.159-0.267,0.316-0.535,0.475-0.804c0.176-0.298,0.351-0.596,0.524-0.894c0.159-0.273,0.318-0.547,0.477-0.821
				c0.176-0.303,0.351-0.606,0.526-0.91c0.151-0.262,0.302-0.524,0.451-0.786c0.181-0.319,0.362-0.64,0.544-0.96
				c0.147-0.259,0.294-0.519,0.441-0.779c0.177-0.316,0.352-0.632,0.529-0.949l0.435-0.782c0.181-0.328,0.361-0.658,0.542-0.987
				c0.137-0.252,0.274-0.502,0.411-0.754c0.169-0.311,0.336-0.621,0.503-0.933c0.153-0.284,0.306-0.568,0.459-0.852
				c0.172-0.32,0.341-0.641,0.51-0.961c0.133-0.251,0.267-0.502,0.401-0.755c0.189-0.359,0.375-0.719,0.564-1.08
				c0.121-0.233,0.241-0.465,0.363-0.698c0.201-0.387,0.399-0.775,0.596-1.163c0.105-0.203,0.208-0.404,0.31-0.606
				c0.3-0.59,0.6-1.182,0.896-1.775l0.068-0.209c9.351-18.635,16.72-38.424,21.857-59.094c5.576-22.434,8.526-45.904,8.526-70.064
				C1080.14,1637.626,1078.034,1615.201,1074.032,1591.579z"/>
			<g>
				<path style="fill:#EB7E31;" d="M744.406,1610.639c2.285-24.018,8.08-48.872,18.996-68.417
					c3.603-6.451,7.763-12.323,12.539-17.395c16.522-17.549,40.413-25.533,74.07-14.806c0.449,0.143,0.895,0.29,1.34,0.441
					c2.488-11.486,6-22.798,9.755-33.937c0.089-0.262,0.194-0.546,0.308-0.843c-6.635-7.565-12.248-16.177-16.965-25.039
					c-0.011-0.021-0.022-0.041-0.033-0.062c-7.791-14.646-16.78-48.539-19.177-81.299c-0.013-0.17-0.024-0.34-0.037-0.51
					l-0.039-0.571c-1.828-26.364,0.678-51.84,11.608-65.772c0.136-0.174,0.274-0.347,0.413-0.518
					c0.043-0.052,0.086-0.106,0.13-0.158c0.203-0.247,0.41-0.489,0.618-0.728c0.001,0,0.001-0.001,0.002-0.002
					c0.928-1.062,1.912-2.047,2.954-2.948c2.013-1.741,4.242-3.172,6.703-4.251c-11.972-14.114-26.305-26.007-42.573-34.167
					c-6.768-3.393-13.87-6.141-21.277-8.133c-16.758-4.517-31.937-4.549-45.824-1.291c0.085,4.88,0.58,9.776,1.124,14.629
					c0.687,6.115,1.452,12.222,2.239,18.327c1.465-0.246,3.012-0.377,4.643-0.377c31.655,0,31.962,48.546,1.083,49.656
					c0.2,2.459,0.379,4.917,0.533,7.38c1.268,20.274,3.673,45.924-5.067,64.893c-3.79,8.22-9.984,15.095-16.561,21.321
					c-9.495,8.995-20.16,17.01-31.927,22.604c10.237,7.376,15.562,22.764,14.75,36.289c-0.749,12.533-3.959,24.909-9.396,36.226
					c-5.328,11.08-14.812,22.207-27.104,21.873c-8.574-0.234-16.186-6.335-20.273-13.875c-4.088-7.543-5.184-16.331-5.474-24.905
					c-0.474-14.043,1.12-34.719,10.449-47.675c-9.991-0.476-19.789-3.139-28.282-8.386c-16.659-10.293-26.099-28.693-31.298-47.885
					c-27.122,46.872-46.453,98.261-56.668,151.409c4.31-1.764,8.832-2.896,13.637-3.391c0.617-0.056,1.234-0.099,1.852-0.138
					c0.931-0.069,1.867-0.12,2.807-0.144c36.742-0.991,65.711,30.592,84.507,62.175c0.301,0.505,0.6,1.013,0.899,1.52
					c10.2,17.309,18.946,35.595,25.94,54.5l0.166,0.45c0.147,0.397,0.292,0.795,0.437,1.192c9.921,27.204,16.226,55.657,18,84.281
					c28.302-1.921,55.963-10.675,81.09-24.434c-15.843-20.314-23.891-46.434-26.01-72.31
					C742.919,1642.059,742.894,1626.531,744.406,1610.639z"/>
				<g>
					<path style="fill:#FFCF20;" d="M688.934,1752.181c-1.774-28.624-8.081-57.077-18-84.281c-0.145-0.398-0.29-0.795-0.437-1.192
						l-0.167-0.45c-6.993-18.905-15.741-37.191-25.94-54.5c-0.298-0.507-0.598-1.015-0.898-1.52
						c-18.796-31.583-47.765-63.166-84.506-62.175c-0.937,0.041-1.873,0.085-2.807,0.144c-0.618,0.038-1.236,0.082-1.852,0.138
						c-4.805,0.495-9.328,1.627-13.637,3.391c-0.002,0.004-0.002,0.009-0.002,0.013c-18.24,7.263-31.536,24.524-34.814,44.648
						c-0.01,0.065-0.022,0.127-0.033,0.192c-0.032,0.202-0.064,0.403-0.094,0.604c-0.043,0.268-0.085,0.534-0.127,0.801
						c-0.115,0.727-0.228,1.454-0.336,2.178c-0.014,0.089-0.028,0.179-0.042,0.267c-0.135,0.892-0.266,1.781-0.395,2.669
						l-0.024,0.156c-0.125,0.865-0.247,1.728-0.369,2.59c-0.006,0.037-0.01,0.075-0.016,0.114c-0.253,1.814-0.493,3.62-0.723,5.418
						c-0.002,0.017-0.004,0.034-0.006,0.05c-0.344,2.71-0.661,5.401-0.95,8.069c-0.002,0.018-0.004,0.035-0.006,0.052
						c-0.286,2.654-0.546,5.287-0.777,7.897l-0.012,0.126c-0.151,1.726-0.292,3.443-0.419,5.148c-0.004,0.043-0.008,0.087-0.01,0.13
						c-0.06,0.801-0.117,1.6-0.171,2.398c-0.004,0.062-0.01,0.125-0.014,0.188c-0.111,1.644-0.21,3.278-0.298,4.902
						c-0.008,0.143-0.016,0.285-0.022,0.427c-0.038,0.707-0.075,1.41-0.107,2.112c-0.004,0.091-0.008,0.179-0.012,0.269
						c-0.036,0.789-0.071,1.577-0.103,2.361c-0.004,0.13-0.008,0.259-0.014,0.389c-0.024,0.645-0.046,1.286-0.067,1.926
						c-0.008,0.188-0.014,0.378-0.018,0.565c-0.02,0.667-0.04,1.331-0.056,1.994c-0.002,0.101-0.004,0.201-0.008,0.3
						c-0.016,0.748-0.032,1.494-0.044,2.238c-0.002,0.181-0.004,0.36-0.008,0.541c-0.008,0.566-0.014,1.132-0.02,1.695
						c-0.003,0.224-0.004,0.449-0.007,0.673c-0.004,0.724-0.008,1.448-0.008,2.167c0,0.59,0.002,1.179,0.006,1.768
						c0,0.143,0.002,0.286,0.002,0.428c0.004,0.425,0.009,0.852,0.013,1.278c0.002,0.223,0.006,0.445,0.01,0.668
						c0.004,0.357,0.01,0.714,0.016,1.072c0.004,0.224,0.008,0.448,0.012,0.673c0.008,0.359,0.016,0.72,0.024,1.079l0.018,0.713
						c0.008,0.336,0.018,0.673,0.029,1.009c0.006,0.233,0.012,0.467,0.02,0.699c0.012,0.404,0.026,0.807,0.042,1.21
						c0.006,0.167,0.01,0.334,0.016,0.501c0.018,0.436,0.036,0.872,0.054,1.307c0.01,0.258,0.02,0.518,0.032,0.775
						c0.02,0.454,0.042,0.907,0.064,1.36l0.03,0.595c0.021,0.379,0.038,0.758,0.06,1.137c0.01,0.205,0.022,0.408,0.034,0.612
						c0.022,0.372,0.044,0.743,0.066,1.114c0.014,0.228,0.028,0.454,0.042,0.682c0.022,0.349,0.044,0.699,0.068,1.047
						c0.014,0.214,0.028,0.428,0.044,0.643c0.026,0.397,0.056,0.795,0.084,1.192c0.012,0.166,0.025,0.332,0.036,0.497
						c0.033,0.429,0.066,0.858,0.101,1.287c0.012,0.153,0.024,0.306,0.036,0.458c0.036,0.463,0.076,0.924,0.117,1.385
						c0.01,0.118,0.018,0.235,0.028,0.353c0.05,0.572,0.103,1.144,0.155,1.716c0.01,0.109,0.022,0.218,0.032,0.328
						c0.042,0.445,0.084,0.889,0.129,1.333c0.02,0.21,0.042,0.419,0.062,0.628c0.036,0.356,0.072,0.713,0.111,1.069
						c0.022,0.229,0.048,0.458,0.072,0.687l0.111,1.024c0.027,0.225,0.05,0.452,0.077,0.677c0.038,0.342,0.078,0.683,0.119,1.026
						c0.024,0.218,0.05,0.435,0.076,0.652c0.048,0.408,0.099,0.816,0.149,1.222c0.018,0.148,0.034,0.296,0.054,0.443
						c0.06,0.487,0.123,0.973,0.185,1.459c0.01,0.084,0.022,0.167,0.032,0.251c0.074,0.57,0.151,1.139,0.23,1.708
						c0.012,0.092,0.026,0.186,0.038,0.28c0.064,0.462,0.129,0.924,0.195,1.385c0.026,0.187,0.054,0.374,0.081,0.561
						c0.054,0.37,0.109,0.742,0.163,1.111c0.03,0.203,0.061,0.406,0.093,0.609c0.054,0.367,0.111,0.735,0.167,1.102
						c0.03,0.188,0.06,0.378,0.089,0.566c0.06,0.386,0.123,0.772,0.185,1.156c0.028,0.177,0.056,0.355,0.085,0.532
						c0.068,0.41,0.135,0.821,0.205,1.23c0.024,0.145,0.048,0.292,0.073,0.437c0.078,0.471,0.161,0.943,0.241,1.412
						c0.016,0.091,0.032,0.182,0.048,0.272c0.099,0.568,0.199,1.135,0.302,1.702c0.008,0.037,0.015,0.074,0.022,0.111
						c0.092,0.518,0.189,1.037,0.286,1.555c0.026,0.134,0.05,0.267,0.076,0.401c0.077,0.408,0.155,0.815,0.233,1.221
						c0.039,0.198,0.077,0.395,0.115,0.592c0.071,0.358,0.141,0.715,0.211,1.072l0.115,0.571c0.077,0.383,0.155,0.766,0.234,1.149
						c0.034,0.168,0.07,0.337,0.104,0.505c0.081,0.389,0.163,0.776,0.244,1.164c0.036,0.166,0.07,0.334,0.107,0.5
						c0.105,0.493,0.212,0.986,0.32,1.477c0.01,0.048,0.021,0.095,0.033,0.144c0.123,0.559,0.245,1.118,0.373,1.675
						c0.018,0.085,0.038,0.169,0.058,0.254c0.105,0.463,0.212,0.926,0.318,1.388c0.038,0.16,0.074,0.319,0.113,0.479
						c0.088,0.38,0.179,0.761,0.269,1.141c0.042,0.181,0.087,0.364,0.129,0.545c0.092,0.382,0.185,0.763,0.278,1.145
						c0.038,0.153,0.076,0.307,0.113,0.461c0.101,0.404,0.201,0.807,0.302,1.21c0.038,0.152,0.077,0.303,0.115,0.454
						c0.099,0.393,0.2,0.786,0.3,1.18c0.04,0.155,0.08,0.311,0.121,0.467c0.133,0.513,0.268,1.025,0.403,1.538
						c0.004,0.014,0.008,0.028,0.012,0.042c0.149,0.564,0.3,1.126,0.453,1.689c0.003,0.008,0.005,0.017,0.007,0.027
						c0.145,0.527,0.29,1.053,0.435,1.579c0.04,0.146,0.083,0.293,0.123,0.44c0.104,0.374,0.209,0.748,0.316,1.122
						c0.056,0.195,0.111,0.389,0.167,0.582c0.103,0.36,0.207,0.72,0.31,1.079c0.05,0.17,0.101,0.34,0.149,0.51
						c0.106,0.36,0.211,0.719,0.318,1.079c0.054,0.181,0.107,0.362,0.161,0.543c0.117,0.387,0.234,0.773,0.351,1.16
						c0.042,0.14,0.084,0.28,0.127,0.419c0.143,0.465,0.286,0.928,0.429,1.391l0.06,0.193c0.334,1.078,0.677,2.152,1.025,3.224
						c0.038,0.118,0.076,0.236,0.115,0.354c0.133,0.41,0.268,0.818,0.403,1.227c0.05,0.15,0.101,0.301,0.151,0.451
						c0.127,0.385,0.256,0.768,0.385,1.152c0.05,0.148,0.101,0.296,0.151,0.444c0.125,0.366,0.249,0.732,0.374,1.097
						c0.065,0.187,0.127,0.372,0.192,0.557c0.115,0.329,0.229,0.659,0.344,0.989c0.068,0.196,0.137,0.392,0.208,0.588
						c0.127,0.358,0.253,0.717,0.383,1.076c0.054,0.154,0.109,0.309,0.165,0.464c0.368,1.027,0.743,2.052,1.124,3.075
						c0.064,0.172,0.129,0.344,0.193,0.517c0.133,0.359,0.268,0.717,0.403,1.073c0.058,0.154,0.117,0.307,0.175,0.461
						c0.139,0.362,0.278,0.725,0.417,1.087c0.066,0.171,0.133,0.34,0.198,0.511c0.129,0.334,0.26,0.669,0.391,1.002
						c0.076,0.198,0.155,0.397,0.233,0.594c0.127,0.324,0.256,0.647,0.385,0.97c0.07,0.18,0.143,0.36,0.216,0.539
						c0.137,0.346,0.276,0.689,0.417,1.033c0.069,0.171,0.137,0.343,0.208,0.514c0.201,0.492,0.403,0.985,0.606,1.476
						c0.014,0.033,0.029,0.066,0.042,0.101c0.201,0.487,0.405,0.974,0.61,1.461c0.048,0.118,0.101,0.236,0.149,0.354
						c0.161,0.379,0.322,0.757,0.483,1.135c0.076,0.181,0.155,0.362,0.234,0.543c0.137,0.322,0.276,0.643,0.415,0.965
						c0.082,0.189,0.165,0.379,0.249,0.568c0.133,0.304,0.266,0.608,0.399,0.912c0.095,0.215,0.192,0.431,0.286,0.646
						c0.127,0.287,0.253,0.573,0.382,0.858c0.093,0.208,0.188,0.418,0.28,0.625c0.135,0.296,0.267,0.592,0.403,0.887
						c0.09,0.201,0.183,0.403,0.274,0.603c0.189,0.414,0.381,0.826,0.572,1.239c0.034,0.075,0.068,0.152,0.105,0.229
						c0.225,0.485,0.453,0.97,0.68,1.455c0.091,0.193,0.181,0.384,0.272,0.575c0.139,0.291,0.276,0.582,0.415,0.873
						c0.105,0.219,0.211,0.438,0.316,0.657c0.133,0.277,0.266,0.553,0.399,0.829c0.103,0.209,0.206,0.419,0.306,0.628
						c0.139,0.285,0.28,0.57,0.419,0.854c0.105,0.213,0.212,0.427,0.316,0.64c0.135,0.271,0.27,0.542,0.405,0.812
						c0.103,0.208,0.208,0.418,0.312,0.626c0.143,0.287,0.288,0.573,0.433,0.86c0.105,0.206,0.209,0.413,0.314,0.62
						c0.109,0.212,0.218,0.423,0.326,0.636c0.284,0.554,0.57,1.107,0.858,1.659c0.088,0.169,0.175,0.337,0.263,0.506
						c0.121,0.233,0.244,0.465,0.367,0.698c0.129,0.245,0.258,0.49,0.389,0.735c0.131,0.248,0.264,0.497,0.397,0.745
						c0.117,0.219,0.234,0.439,0.353,0.659c0.137,0.258,0.278,0.515,0.417,0.773c0.117,0.215,0.233,0.43,0.35,0.645
						c0.141,0.259,0.282,0.519,0.425,0.778l0.344,0.625c0.141,0.257,0.284,0.513,0.425,0.769c0.119,0.214,0.237,0.427,0.356,0.64
						c0.149,0.263,0.296,0.527,0.443,0.789c0.079,0.138,0.155,0.275,0.234,0.413c0.413,0.73,0.828,1.458,1.247,2.184
						c0.014,0.025,0.028,0.049,0.042,0.074c0.203,0.352,0.409,0.703,0.612,1.055c0.054,0.093,0.109,0.187,0.165,0.281
						c0.189,0.323,0.378,0.646,0.568,0.968c0.082,0.141,0.167,0.282,0.25,0.422c0.182,0.306,0.363,0.611,0.546,0.916
						c0.087,0.147,0.173,0.293,0.262,0.439c0.185,0.31,0.371,0.619,0.558,0.928c0.076,0.128,0.155,0.256,0.232,0.383
						c0.206,0.338,0.411,0.674,0.616,1.012c0.042,0.068,0.085,0.137,0.127,0.206c0.23,0.375,0.459,0.748,0.691,1.122
						c0.008,0.012,0.016,0.024,0.022,0.035c1.011,1.63,2.036,3.248,3.077,4.856c0.058,0.088,0.115,0.177,0.173,0.266
						c0.221,0.343,0.445,0.684,0.669,1.025c0.056,0.085,0.111,0.171,0.167,0.256c0.233,0.356,0.469,0.712,0.704,1.068
						c0.04,0.061,0.083,0.124,0.123,0.185c0.247,0.373,0.495,0.743,0.743,1.115c0.022,0.031,0.044,0.063,0.064,0.096
						c1.236,1.84,2.493,3.667,3.77,5.478c0.427,0.604,0.854,1.206,1.285,1.807l0.044,0.063c0.284,0.395,0.568,0.789,0.852,1.182
						c0.004,0.005,0.008,0.01,0.012,0.014c0.286,0.395,0.572,0.789,0.86,1.182l0.05,0.068c0.598,0.816,1.2,1.627,1.806,2.437
						c0.176,0.233,0.351,0.465,0.526,0.697c0.457,0.606,0.916,1.211,1.379,1.814c0.167,0.219,0.334,0.44,0.503,0.659
						c1.252,1.626,2.523,3.237,3.81,4.836c0.05,0.062,0.099,0.125,0.149,0.187c0.068,0.085,0.137,0.168,0.206,0.252
						c15.646,19.259,39.361,30.935,64.113,29.637c0.236-0.012,0.471-0.024,0.707-0.038l0.5-0.032
						c14.201-0.918,28.683-5.651,38.506-15.896c9.468-9.964,13.636-23.81,16.25-37.305c3.385-17.274,4.819-34.786,4.517-52.292
						C689.339,1760.139,689.18,1756.158,688.934,1752.181z"/>
					<path style="fill:#FFCF20;" d="M744.405,1610.639c-1.512,15.892-1.486,31.419-0.391,44.799
						c2.118,25.876,10.167,51.996,26.009,72.309c2.731,3.5,5.689,6.829,8.892,9.954c7.777,7.587,17.133,13.719,27.221,17.93
						c18.174,7.584,38.731,8.931,56.75,1.289c33.729-14.305,49.106-53.532,54.821-89.718c1.817-11.495,2.996-23.192,3.218-34.865
						c-10.655,3.19-22.149,3.631-32.457-0.306c-7.831-3.004-14.924-10.164-19.233-18.425c-2.783-5.334-4.406-11.129-4.315-16.561
						v-0.588c-12.98-16.384-17.882-38.071-17.153-58.945c0.336-9.112,1.649-18.12,3.579-27.025c0.002-0.009,0.002-0.017,0.004-0.025
						c-0.445-0.151-0.89-0.298-1.339-0.441c-33.657-10.728-57.548-2.743-74.07,14.806c-4.777,5.072-8.937,10.944-12.54,17.395
						C752.487,1561.766,746.691,1586.62,744.405,1610.639z"/>
					<path style="fill:#FFCF20;" d="M1061.318,1708.864c-1.017-7.831-2.827-15.559-5.556-23.093
						c-0.682-1.834-1.427-3.666-2.257-5.456c-2.775-6.002-6.484-11.548-11.875-15.249c-16.178-11.091-38.01-0.777-54.406,10.032
						c-62.175,41.124-119.404,91.571-159.819,154.24c-9.891,15.332-18.937,31.796-21.691,49.815c-0.004,0.02-0.006,0.041-0.01,0.061
						c-2.739,18.071,1.72,38.035,15.27,50.245c1.152,1.019,2.348,1.969,3.589,2.855c11.087,7.938,25.485,9.501,38.701,6.138
						c0.101-0.026,0.2-0.05,0.3-0.077c0.113-0.029,0.224-0.059,0.336-0.088c0.356-0.094,0.713-0.189,1.069-0.283
						c0.302-0.08,0.602-0.16,0.902-0.241c0.328-0.088,0.657-0.177,0.985-0.267c0.336-0.091,0.67-0.184,1.007-0.276
						c0.322-0.09,0.643-0.18,0.964-0.27c0.32-0.09,0.641-0.18,0.961-0.271c0.338-0.097,0.678-0.195,1.017-0.291
						c0.288-0.084,0.576-0.167,0.864-0.252c0.369-0.107,0.735-0.215,1.102-0.323c0.272-0.08,0.544-0.162,0.814-0.243
						c0.379-0.113,0.755-0.226,1.131-0.34c0.264-0.081,0.526-0.161,0.787-0.242c0.371-0.113,0.739-0.227,1.108-0.341
						c0.28-0.086,0.558-0.175,0.838-0.262c0.369-0.116,0.737-0.232,1.106-0.35c0.248-0.079,0.493-0.159,0.739-0.239
						c0.395-0.127,0.787-0.254,1.18-0.382c0.235-0.076,0.467-0.154,0.701-0.232c0.397-0.13,0.793-0.261,1.188-0.393
						c0.245-0.082,0.489-0.166,0.735-0.249c0.395-0.133,0.787-0.266,1.182-0.4c0.024-0.008,0.046-0.017,0.071-0.025
						c1.18-0.404,2.356-0.816,3.528-1.234l0.103-0.036c0.415-0.148,0.83-0.299,1.242-0.449c0.216-0.079,0.431-0.155,0.647-0.234
						c0.405-0.148,0.81-0.298,1.214-0.448c0.216-0.081,0.433-0.16,0.649-0.241c0.386-0.145,0.773-0.291,1.159-0.437
						c0.242-0.091,0.484-0.182,0.725-0.274c0.377-0.144,0.753-0.29,1.128-0.435c0.244-0.094,0.487-0.188,0.731-0.282
						c0.377-0.147,0.751-0.295,1.128-0.443c0.244-0.096,0.485-0.192,0.727-0.287c0.363-0.144,0.723-0.288,1.084-0.432
						c0.263-0.107,0.527-0.212,0.793-0.32c0.361-0.146,0.721-0.293,1.079-0.441c0.244-0.1,0.487-0.2,0.731-0.3
						c0.372-0.154,0.743-0.309,1.116-0.464c0.243-0.103,0.487-0.204,0.731-0.307c0.375-0.158,0.749-0.317,1.124-0.477
						c0.225-0.096,0.449-0.191,0.674-0.288c0.377-0.162,0.753-0.324,1.13-0.488c0.243-0.106,0.489-0.214,0.733-0.32
						c0.36-0.158,0.721-0.316,1.081-0.475c0.246-0.11,0.493-0.219,0.739-0.329c0.359-0.16,0.719-0.321,1.078-0.484
						c0.232-0.104,0.461-0.208,0.693-0.313c0.381-0.174,0.761-0.347,1.142-0.522c0.212-0.098,0.425-0.196,0.638-0.294
						c0.379-0.175,0.757-0.351,1.136-0.528l0.731-0.344c0.354-0.167,0.709-0.334,1.063-0.502c0.211-0.102,0.423-0.203,0.634-0.304
						c0.393-0.19,0.788-0.378,1.18-0.568c0.135-0.065,0.268-0.131,0.401-0.195c0.459-0.224,0.92-0.448,1.38-0.675
						c0.002-0.001,0.004-0.003,0.006-0.004c1.685-0.831,3.359-1.677,5.024-2.54c0.054-0.028,0.109-0.055,0.163-0.083
						c0.411-0.214,0.822-0.429,1.232-0.645c0.18-0.094,0.359-0.187,0.538-0.282c0.385-0.203,0.767-0.407,1.15-0.611
						c0.195-0.104,0.391-0.208,0.586-0.312c0.401-0.215,0.8-0.431,1.2-0.647l0.513-0.278c0.403-0.219,0.804-0.441,1.204-0.661
						c0.177-0.098,0.354-0.196,0.531-0.293c0.375-0.207,0.749-0.416,1.122-0.624c0.213-0.12,0.427-0.239,0.638-0.358
						c0.336-0.189,0.669-0.378,1.003-0.568c0.248-0.14,0.493-0.28,0.739-0.421c0.338-0.194,0.677-0.388,1.015-0.583
						c0.221-0.128,0.443-0.255,0.662-0.383c0.346-0.202,0.693-0.404,1.039-0.606c0.221-0.131,0.443-0.261,0.665-0.391
						c0.348-0.206,0.697-0.412,1.043-0.619c0.215-0.129,0.429-0.256,0.644-0.385c0.346-0.209,0.695-0.416,1.039-0.626
						c0.217-0.131,0.433-0.263,0.648-0.394c0.346-0.211,0.694-0.422,1.041-0.635c0.207-0.128,0.415-0.256,0.622-0.385
						c0.354-0.219,0.709-0.438,1.063-0.659l0.568-0.356c0.367-0.23,0.733-0.461,1.1-0.692c0.175-0.112,0.35-0.223,0.525-0.335
						c0.387-0.245,0.775-0.493,1.16-0.741l0.375-0.242c0.419-0.269,0.836-0.538,1.253-0.81c0.159-0.105,0.318-0.209,0.477-0.314
						c0.383-0.25,0.767-0.501,1.148-0.754c0.127-0.085,0.253-0.169,0.379-0.253c1.887-1.252,3.755-2.526,5.61-3.821
						c0.149-0.104,0.298-0.206,0.445-0.31c0.362-0.255,0.725-0.511,1.087-0.767c0.171-0.122,0.342-0.243,0.515-0.366
						c0.337-0.24,0.673-0.48,1.009-0.722c0.201-0.144,0.401-0.288,0.602-0.433c0.324-0.235,0.649-0.47,0.973-0.707
						c0.206-0.149,0.411-0.298,0.616-0.448c0.33-0.242,0.661-0.485,0.991-0.729c0.189-0.139,0.377-0.278,0.566-0.418
						c0.334-0.25,0.67-0.499,1.005-0.75c0.194-0.146,0.389-0.291,0.582-0.437c0.32-0.241,0.64-0.484,0.958-0.726
						c0.211-0.159,0.421-0.32,0.632-0.48c0.296-0.227,0.592-0.453,0.886-0.681c0.229-0.176,0.457-0.352,0.687-0.529
						c0.29-0.225,0.582-0.453,0.874-0.679c0.224-0.174,0.445-0.349,0.669-0.524c0.294-0.231,0.588-0.462,0.88-0.694
						c0.217-0.171,0.431-0.342,0.647-0.513c0.306-0.244,0.612-0.487,0.916-0.732c0.198-0.158,0.393-0.316,0.588-0.474
						c0.306-0.247,0.612-0.495,0.918-0.743c0.221-0.181,0.445-0.364,0.667-0.545c0.278-0.229,0.558-0.456,0.836-0.686
						c0.018-0.016,0.036-0.03,0.054-0.045c0.198-0.162,0.393-0.325,0.588-0.488c0.304-0.251,0.608-0.503,0.91-0.756
						c0.173-0.145,0.347-0.292,0.52-0.437c0.322-0.271,0.642-0.542,0.964-0.814c0.189-0.161,0.379-0.323,0.568-0.485
						c0.31-0.262,0.618-0.525,0.927-0.789c0.125-0.11,0.251-0.219,0.379-0.328c1.305-1.127,2.602-2.264,3.886-3.413
						c0.034-0.03,0.066-0.059,0.101-0.089c0.356-0.32,0.712-0.641,1.067-0.962c0.127-0.115,0.255-0.229,0.383-0.344
						c0.306-0.278,0.61-0.558,0.916-0.837c0.181-0.167,0.365-0.333,0.546-0.5c0.294-0.27,0.586-0.542,0.878-0.813
						c0.185-0.171,0.37-0.341,0.554-0.513c0.298-0.278,0.596-0.558,0.894-0.837c0.177-0.167,0.354-0.334,0.531-0.501
						c0.286-0.269,0.57-0.54,0.854-0.81c0.195-0.186,0.391-0.372,0.584-0.559c0.278-0.265,0.552-0.531,0.828-0.796
						c0.196-0.189,0.391-0.377,0.586-0.566c0.259-0.253,0.519-0.506,0.779-0.76c0.218-0.213,0.435-0.425,0.65-0.639
						c0.25-0.245,0.499-0.492,0.747-0.738c0.216-0.214,0.429-0.426,0.644-0.639c0.252-0.252,0.503-0.504,0.755-0.756l0.634-0.641
						c0.244-0.247,0.489-0.495,0.733-0.743c0.213-0.219,0.429-0.437,0.642-0.657c0.25-0.256,0.501-0.515,0.751-0.773
						c0.203-0.211,0.407-0.42,0.608-0.63c0.247-0.256,0.493-0.512,0.739-0.769c0.214-0.224,0.425-0.447,0.638-0.671
						c0.24-0.251,0.477-0.503,0.715-0.755c0.214-0.225,0.423-0.45,0.635-0.676c0.237-0.252,0.475-0.506,0.71-0.76
						c0.224-0.241,0.448-0.482,0.671-0.724c0.215-0.233,0.431-0.467,0.644-0.7c0.237-0.258,0.474-0.516,0.709-0.775
						c0.211-0.231,0.422-0.464,0.634-0.697c0.194-0.214,0.387-0.429,0.578-0.643c0.252-0.279,0.503-0.558,0.753-0.838
						c0.115-0.127,0.225-0.255,0.34-0.382c0.672-0.758,1.344-1.518,2.01-2.283c0.066-0.076,0.135-0.153,0.201-0.23
						c0.276-0.316,0.55-0.635,0.824-0.952c0.151-0.176,0.302-0.349,0.451-0.524c0.229-0.268,0.459-0.536,0.687-0.805
						c0.206-0.241,0.411-0.482,0.617-0.724c0.203-0.24,0.405-0.481,0.606-0.721c0.218-0.26,0.437-0.519,0.655-0.779
						c0.206-0.246,0.409-0.493,0.614-0.74c0.217-0.262,0.435-0.524,0.651-0.787c0.206-0.248,0.407-0.497,0.612-0.746
						c0.209-0.258,0.419-0.515,0.628-0.773c0.202-0.247,0.401-0.494,0.6-0.742c0.22-0.27,0.437-0.542,0.655-0.814
						c0.189-0.235,0.377-0.473,0.566-0.709c0.219-0.278,0.441-0.555,0.66-0.833l0.576-0.734c0.214-0.272,0.427-0.545,0.639-0.818
						c0.189-0.241,0.377-0.483,0.564-0.726c0.218-0.281,0.435-0.563,0.651-0.845c0.193-0.254,0.389-0.507,0.582-0.761
						c0.19-0.248,0.379-0.497,0.568-0.747c0.214-0.281,0.425-0.563,0.637-0.845c0.181-0.241,0.362-0.482,0.544-0.725
						c0.211-0.284,0.423-0.567,0.632-0.851c0.185-0.249,0.369-0.499,0.552-0.749c0.208-0.28,0.413-0.56,0.618-0.841
						c0.181-0.248,0.36-0.496,0.542-0.745c0.201-0.278,0.403-0.556,0.604-0.835c0.187-0.26,0.372-0.521,0.56-0.782
						c0.201-0.281,0.403-0.562,0.602-0.843c0.173-0.245,0.346-0.492,0.519-0.739c0.202-0.285,0.405-0.57,0.604-0.857
						c0.183-0.26,0.364-0.523,0.546-0.785c0.195-0.282,0.393-0.563,0.588-0.846c0.199-0.29,0.397-0.58,0.596-0.871
						c0.169-0.245,0.336-0.492,0.505-0.739c0.328-0.484,0.655-0.968,0.981-1.454c0.189-0.283,0.378-0.567,0.568-0.851
						c0.211-0.319,0.424-0.638,0.636-0.958c0.157-0.239,0.312-0.477,0.469-0.716c0.207-0.315,0.415-0.63,0.62-0.946
						c0.155-0.24,0.31-0.481,0.465-0.722c0.203-0.314,0.407-0.628,0.608-0.943c0.163-0.252,0.322-0.506,0.483-0.759
						c0.191-0.3,0.381-0.599,0.572-0.9c0.173-0.277,0.346-0.553,0.52-0.831c0.175-0.279,0.35-0.559,0.525-0.839
						c0.171-0.277,0.342-0.554,0.513-0.832c0.177-0.289,0.357-0.578,0.534-0.867c0.163-0.268,0.326-0.536,0.487-0.804
						c0.185-0.304,0.37-0.608,0.554-0.913c0.153-0.253,0.304-0.506,0.455-0.76c0.187-0.311,0.372-0.622,0.558-0.935
						c0.159-0.267,0.316-0.535,0.475-0.804c0.176-0.298,0.351-0.596,0.524-0.894c0.159-0.273,0.318-0.547,0.477-0.821
						c0.176-0.303,0.351-0.606,0.526-0.91c0.151-0.262,0.302-0.524,0.451-0.786c0.181-0.319,0.362-0.64,0.544-0.96
						c0.147-0.259,0.294-0.519,0.441-0.779c0.177-0.316,0.352-0.632,0.529-0.949l0.435-0.782c0.181-0.328,0.361-0.658,0.542-0.987
						c0.137-0.252,0.274-0.502,0.411-0.754c0.169-0.311,0.336-0.621,0.503-0.933c0.153-0.284,0.306-0.568,0.459-0.852
						c0.172-0.32,0.341-0.641,0.51-0.961c0.133-0.251,0.267-0.502,0.401-0.755c0.189-0.359,0.375-0.719,0.564-1.08
						c0.121-0.233,0.241-0.465,0.363-0.698c0.201-0.387,0.399-0.775,0.596-1.163c0.105-0.203,0.208-0.404,0.31-0.606
						c0.3-0.59,0.6-1.182,0.896-1.775l0.068-0.209C1059.316,1762.07,1064.699,1734.89,1061.318,1708.864z"/>
					<path style="fill:#FFCF20;" d="M708.735,1484.954c0.812-13.525-4.513-28.912-14.75-36.289
						c-4.341,2.062-8.83,3.799-13.465,5.129c-7.614,2.183-15.659,3.182-23.583,2.804c-9.33,12.956-10.924,33.632-10.449,47.675
						c0.29,8.574,1.385,17.362,5.473,24.905c4.088,7.539,11.699,13.641,20.274,13.875c12.292,0.334,21.776-10.794,27.104-21.873
						C704.776,1509.863,707.986,1497.488,708.735,1484.954z"/>
					<path style="fill:#FFCF20;" d="M825.203,1368.771c0.012,0.17,0.024,0.34,0.036,0.511c2.416,32.746,11.417,66.629,19.194,81.278
						c0.012,0.022,0.024,0.044,0.034,0.066c4.714,8.865,10.324,17.472,16.953,25.036c1.361-3.518,4.41-9.272,6.041-12.07
						c-2.36,2.766-5.719,4.72-9.303,5.352c6.363-18.964,16.356-36.965,29.318-52.326c1.375-1.631,2.785-3.231,4.227-4.8
						c5.302-5.769,11.045-11.108,17.193-15.918c4.617-3.614,9.461-6.93,14.515-9.904c-5.445,1.273-10.938,2.497-16.384,3.77
						c2.541-4.631,7.169-7.668,11.756-10.346c7.9-4.658,16.051-8.762,24.398-12.412c-1.671-4.465-3.514-8.864-5.562-13.182
						c-10.628-22.412-27.189-42.678-49.271-53.967c-17.801-9.098-31.072-10.287-40.757-6.037c-2.461,1.079-4.69,2.51-6.703,4.251
						c-1.041,0.901-2.026,1.886-2.955,2.948c0,0.001,0,0.002-0.002,0.002c-0.207,0.24-0.415,0.481-0.618,0.728
						c-0.042,0.052-0.086,0.106-0.129,0.158c-0.139,0.171-0.278,0.344-0.413,0.518c-10.93,13.933-13.437,39.409-11.609,65.772
						L825.203,1368.771z"/>
					<path style="fill:#FFCF20;" d="M755.751,1804.088c-3.738-1.482-7.668-1.863-11.563-1.442
						c-6.21-0.788-12.442-0.437-18.542,1.446c-12.561,3.875-21.381,14.639-24.897,27.012c-4.982,17.517,2.122,35.927,15.679,46.907
						c3.276,2.654,6.929,4.877,10.882,6.545c14.841,6.263,30.68,3.181,42.418-5.826c6.839-5.247,12.284-12.506,15.326-21.102
						c3.778-10.68,2.203-23.004-3.166-32.863C776.101,1814.14,766.636,1808.405,755.751,1804.088z"/>
					<path style="fill:#FFCF20;" d="M996.08,1594.442c3.536-1.151,6.593-3.117,9.174-5.896c2.783-2.581,4.748-5.642,5.896-9.174
						c1.785-3.399,2.606-7.06,2.457-10.987c-0.338-2.525-0.681-5.05-1.019-7.579c-0.9-3.212-2.285-6.142-4.152-8.79
						c-10.703,14.925-22.483,29.06-35.244,42.279c3.736,1.72,7.703,2.587,11.905,2.6
						C989.02,1597.044,992.685,1596.226,996.08,1594.442z"/>
					<path style="fill:#FFCF20;" d="M745.924,1282.812c-1.632,0-3.18,0.131-4.644,0.377c2.114,16.405,4.39,32.795,5.725,49.279
						C777.885,1331.358,777.579,1282.812,745.924,1282.812z"/>
				</g>
				<g>
					<path style="fill:#F7BC15;" d="M628.93,1869.684c0.235-0.012,0.471-0.025,0.707-0.038l0.499-0.032
						c14.2-0.918,28.683-5.651,38.506-15.896c9.468-9.964,13.636-23.81,16.25-37.306c3.385-17.274,4.82-34.786,4.516-52.292
						c-0.069-3.981-0.229-7.962-0.475-11.939c0,0,0,0-0.087,0.006c-16.319,1.128-32.92,0-49.243-3.818
						c-76.593-17.805-112.698-79.911-105.066-154.945c1.413-13.987,3.457-27.9,6.147-41.674
						c-18.24,7.263-31.535,24.524-34.814,44.648c-0.01,0.064-0.022,0.127-0.033,0.191c-0.032,0.202-0.063,0.403-0.095,0.604
						c-0.042,0.268-0.084,0.535-0.127,0.802c-0.114,0.727-0.227,1.454-0.336,2.178c-0.014,0.089-0.028,0.178-0.041,0.267
						c-0.135,0.892-0.267,1.781-0.396,2.669l-0.023,0.156c-0.126,0.865-0.249,1.728-0.37,2.589c-0.005,0.037-0.01,0.076-0.015,0.114
						c-0.254,1.814-0.494,3.62-0.723,5.418c-0.002,0.017-0.004,0.034-0.007,0.05c-0.344,2.71-0.66,5.401-0.95,8.069
						c-0.002,0.018-0.003,0.035-0.005,0.052c-0.287,2.654-0.547,5.287-0.778,7.897l-0.011,0.126
						c-0.152,1.726-0.293,3.443-0.42,5.148c-0.004,0.043-0.007,0.086-0.01,0.13c-0.06,0.802-0.117,1.601-0.171,2.398
						c-0.004,0.062-0.009,0.125-0.013,0.189c-0.112,1.644-0.21,3.278-0.299,4.902c-0.008,0.143-0.015,0.285-0.022,0.427
						c-0.038,0.706-0.074,1.41-0.107,2.112c-0.004,0.09-0.008,0.179-0.012,0.268c-0.036,0.79-0.07,1.577-0.101,2.361
						c-0.005,0.13-0.009,0.259-0.014,0.389c-0.024,0.645-0.047,1.286-0.067,1.926c-0.007,0.188-0.013,0.377-0.018,0.565
						c-0.02,0.667-0.039,1.331-0.055,1.994c-0.003,0.1-0.005,0.2-0.008,0.3c-0.018,0.748-0.033,1.494-0.044,2.237
						c-0.003,0.182-0.005,0.361-0.008,0.542c-0.009,0.566-0.016,1.131-0.022,1.695c-0.002,0.224-0.004,0.449-0.005,0.673
						c-0.005,0.724-0.009,1.448-0.009,2.167c0,0.59,0.002,1.179,0.006,1.768c0,0.143,0.002,0.286,0.003,0.428
						c0.003,0.426,0.007,0.852,0.012,1.278c0.002,0.223,0.007,0.445,0.009,0.668c0.005,0.358,0.01,0.715,0.016,1.072
						c0.004,0.224,0.008,0.448,0.013,0.673c0.007,0.359,0.015,0.719,0.023,1.079l0.018,0.713c0.008,0.336,0.018,0.673,0.028,1.009
						c0.006,0.233,0.013,0.466,0.02,0.699c0.013,0.404,0.027,0.807,0.042,1.21c0.007,0.167,0.011,0.334,0.017,0.501
						c0.017,0.436,0.035,0.872,0.053,1.307c0.01,0.257,0.021,0.517,0.033,0.775c0.021,0.454,0.041,0.907,0.063,1.36l0.03,0.595
						c0.02,0.379,0.039,0.758,0.06,1.136c0.011,0.205,0.023,0.408,0.035,0.612c0.021,0.372,0.043,0.743,0.065,1.114
						c0.014,0.228,0.028,0.454,0.043,0.682c0.022,0.349,0.045,0.698,0.068,1.047c0.015,0.214,0.029,0.428,0.044,0.642
						c0.027,0.397,0.056,0.795,0.084,1.192c0.013,0.166,0.026,0.332,0.037,0.497c0.032,0.428,0.065,0.858,0.1,1.287
						c0.012,0.153,0.024,0.306,0.036,0.458c0.038,0.462,0.077,0.924,0.117,1.385c0.01,0.118,0.019,0.234,0.029,0.352
						c0.049,0.572,0.102,1.144,0.155,1.716c0.01,0.11,0.021,0.219,0.031,0.328c0.042,0.445,0.085,0.889,0.129,1.333
						c0.02,0.209,0.042,0.419,0.062,0.627c0.036,0.357,0.072,0.713,0.111,1.07c0.023,0.229,0.048,0.458,0.072,0.687l0.112,1.024
						c0.025,0.225,0.05,0.452,0.075,0.677c0.039,0.343,0.079,0.684,0.119,1.026c0.025,0.218,0.05,0.435,0.076,0.653
						c0.048,0.408,0.099,0.815,0.149,1.222c0.018,0.148,0.035,0.296,0.054,0.443c0.06,0.487,0.123,0.972,0.185,1.459
						c0.011,0.083,0.022,0.167,0.032,0.25c0.074,0.57,0.151,1.139,0.229,1.708c0.013,0.093,0.026,0.186,0.039,0.28
						c0.064,0.462,0.128,0.924,0.195,1.385c0.026,0.187,0.054,0.375,0.08,0.561c0.054,0.371,0.109,0.742,0.163,1.111
						c0.03,0.204,0.061,0.406,0.093,0.609c0.054,0.368,0.112,0.735,0.168,1.103c0.029,0.188,0.059,0.378,0.089,0.566
						c0.06,0.386,0.122,0.772,0.184,1.157c0.028,0.177,0.056,0.354,0.085,0.532c0.068,0.41,0.135,0.82,0.205,1.23
						c0.024,0.145,0.048,0.292,0.072,0.437c0.08,0.471,0.161,0.943,0.243,1.412c0.016,0.091,0.031,0.181,0.047,0.272
						c0.099,0.568,0.2,1.135,0.303,1.702c0.007,0.037,0.014,0.074,0.021,0.111c0.094,0.518,0.19,1.037,0.287,1.554
						c0.025,0.134,0.05,0.267,0.075,0.401c0.076,0.408,0.155,0.814,0.233,1.221c0.038,0.198,0.077,0.395,0.115,0.592
						c0.07,0.359,0.141,0.715,0.211,1.073l0.115,0.571c0.077,0.383,0.155,0.766,0.234,1.149c0.034,0.168,0.07,0.337,0.104,0.505
						c0.082,0.389,0.163,0.776,0.245,1.164c0.035,0.166,0.07,0.334,0.105,0.5c0.106,0.493,0.213,0.985,0.32,1.477
						c0.011,0.048,0.021,0.096,0.033,0.144c0.123,0.559,0.246,1.118,0.373,1.675c0.019,0.084,0.039,0.169,0.058,0.253
						c0.104,0.464,0.211,0.926,0.318,1.388c0.038,0.16,0.076,0.319,0.113,0.479c0.089,0.381,0.18,0.761,0.27,1.141
						c0.042,0.181,0.087,0.363,0.13,0.544c0.091,0.382,0.184,0.763,0.278,1.145c0.037,0.153,0.075,0.307,0.113,0.461
						c0.099,0.404,0.2,0.808,0.302,1.21c0.037,0.152,0.075,0.303,0.114,0.454c0.1,0.393,0.201,0.786,0.301,1.18
						c0.04,0.155,0.08,0.311,0.12,0.467c0.133,0.512,0.267,1.025,0.404,1.538c0.003,0.014,0.007,0.028,0.011,0.041
						c0.149,0.564,0.3,1.127,0.453,1.69c0.002,0.008,0.005,0.017,0.007,0.026c0.144,0.528,0.289,1.053,0.435,1.58
						c0.04,0.146,0.082,0.293,0.123,0.44c0.105,0.373,0.21,0.748,0.316,1.122c0.055,0.194,0.111,0.389,0.166,0.582
						c0.103,0.361,0.207,0.72,0.311,1.08c0.049,0.17,0.099,0.34,0.149,0.51c0.106,0.359,0.211,0.719,0.317,1.078
						c0.054,0.181,0.108,0.363,0.162,0.544c0.116,0.387,0.233,0.773,0.349,1.16c0.042,0.14,0.085,0.28,0.128,0.419
						c0.142,0.465,0.285,0.928,0.427,1.391l0.06,0.194c0.335,1.077,0.677,2.152,1.025,3.224c0.038,0.118,0.077,0.235,0.116,0.353
						c0.133,0.41,0.267,0.819,0.403,1.227c0.049,0.15,0.1,0.301,0.15,0.451c0.128,0.385,0.255,0.768,0.386,1.152
						c0.05,0.148,0.1,0.296,0.15,0.444c0.125,0.367,0.25,0.732,0.376,1.098c0.063,0.186,0.127,0.372,0.192,0.557
						c0.114,0.329,0.229,0.659,0.344,0.989c0.068,0.195,0.137,0.392,0.206,0.588c0.127,0.359,0.254,0.717,0.382,1.077
						c0.054,0.154,0.109,0.309,0.165,0.464c0.369,1.027,0.743,2.052,1.124,3.075c0.064,0.173,0.129,0.345,0.193,0.518
						c0.134,0.358,0.269,0.717,0.404,1.073c0.058,0.154,0.117,0.307,0.176,0.461c0.138,0.363,0.277,0.725,0.417,1.088
						c0.065,0.171,0.132,0.34,0.197,0.51c0.129,0.334,0.259,0.669,0.39,1.002c0.077,0.199,0.155,0.397,0.234,0.594
						c0.128,0.324,0.255,0.646,0.385,0.969c0.071,0.18,0.143,0.361,0.216,0.54c0.138,0.345,0.277,0.688,0.417,1.033
						c0.068,0.171,0.138,0.343,0.208,0.514c0.201,0.492,0.403,0.985,0.606,1.476c0.014,0.033,0.028,0.067,0.042,0.101
						c0.202,0.487,0.405,0.975,0.61,1.461c0.049,0.118,0.1,0.237,0.15,0.355c0.16,0.379,0.321,0.757,0.482,1.135
						c0.077,0.182,0.155,0.363,0.233,0.544c0.138,0.322,0.277,0.643,0.416,0.964c0.082,0.19,0.165,0.379,0.248,0.568
						c0.133,0.304,0.266,0.608,0.4,0.912c0.095,0.215,0.19,0.431,0.285,0.646c0.128,0.287,0.255,0.573,0.383,0.858
						c0.094,0.208,0.188,0.418,0.281,0.625c0.134,0.296,0.268,0.592,0.402,0.887c0.091,0.202,0.183,0.403,0.274,0.603
						c0.19,0.414,0.38,0.827,0.571,1.239c0.035,0.076,0.069,0.152,0.105,0.229c0.226,0.485,0.453,0.97,0.681,1.455
						c0.091,0.192,0.182,0.384,0.273,0.575c0.138,0.291,0.276,0.582,0.415,0.873c0.105,0.219,0.211,0.438,0.315,0.657
						c0.133,0.277,0.266,0.553,0.4,0.829c0.102,0.209,0.205,0.418,0.306,0.628c0.139,0.285,0.279,0.57,0.419,0.854
						c0.105,0.214,0.211,0.427,0.315,0.641c0.135,0.271,0.27,0.541,0.405,0.811c0.104,0.208,0.208,0.418,0.312,0.627
						c0.144,0.287,0.289,0.573,0.434,0.86c0.104,0.207,0.209,0.413,0.314,0.62c0.108,0.212,0.218,0.424,0.326,0.637
						c0.284,0.554,0.57,1.107,0.857,1.659c0.089,0.169,0.176,0.337,0.264,0.506c0.122,0.233,0.245,0.465,0.367,0.698
						c0.13,0.246,0.258,0.49,0.389,0.735c0.131,0.249,0.264,0.497,0.397,0.745c0.117,0.219,0.234,0.439,0.352,0.659
						c0.138,0.257,0.278,0.515,0.417,0.773c0.117,0.215,0.234,0.429,0.35,0.644c0.141,0.26,0.283,0.52,0.425,0.778l0.344,0.625
						c0.141,0.257,0.284,0.514,0.426,0.769c0.118,0.214,0.238,0.427,0.356,0.641c0.148,0.263,0.295,0.526,0.443,0.789
						c0.077,0.138,0.155,0.275,0.232,0.413c0.413,0.73,0.829,1.458,1.248,2.184c0.014,0.024,0.027,0.049,0.041,0.073
						c0.203,0.352,0.409,0.704,0.613,1.055c0.054,0.094,0.109,0.187,0.164,0.281c0.19,0.323,0.379,0.647,0.569,0.969
						c0.082,0.141,0.166,0.282,0.248,0.422c0.181,0.306,0.363,0.611,0.546,0.917c0.086,0.147,0.174,0.293,0.262,0.439
						c0.185,0.31,0.371,0.619,0.558,0.928c0.077,0.128,0.155,0.256,0.232,0.383c0.205,0.338,0.41,0.674,0.616,1.012
						c0.041,0.069,0.083,0.137,0.126,0.207c0.229,0.375,0.46,0.748,0.691,1.122c0.008,0.012,0.016,0.024,0.023,0.035
						c1.01,1.63,2.035,3.248,3.076,4.856c0.058,0.089,0.115,0.177,0.174,0.267c0.221,0.342,0.445,0.683,0.669,1.025
						c0.056,0.086,0.112,0.172,0.168,0.256c0.233,0.357,0.468,0.713,0.703,1.068c0.042,0.061,0.083,0.124,0.124,0.186
						c0.247,0.372,0.494,0.743,0.743,1.115c0.021,0.031,0.043,0.063,0.064,0.095c1.236,1.841,2.493,3.667,3.77,5.479
						c0.426,0.604,0.854,1.206,1.284,1.807l0.044,0.063c0.284,0.395,0.568,0.789,0.853,1.182c0.003,0.005,0.007,0.01,0.011,0.014
						c0.286,0.395,0.572,0.789,0.86,1.182l0.05,0.069c0.598,0.815,1.201,1.627,1.807,2.437c0.174,0.234,0.349,0.465,0.525,0.696
						c0.457,0.606,0.917,1.211,1.379,1.815c0.168,0.219,0.335,0.44,0.505,0.659c1.252,1.626,2.522,3.237,3.809,4.836
						c0.05,0.062,0.099,0.125,0.149,0.187c0.068,0.085,0.138,0.168,0.206,0.252C580.463,1859.306,604.179,1870.981,628.93,1869.684z
						"/>
					<path style="fill:#F7BC15;" d="M770.024,1727.747c2.729,3.5,5.689,6.829,8.891,9.954c7.778,7.586,17.132,13.719,27.222,17.929
						c18.174,7.585,38.73,8.931,56.749,1.289c33.729-14.305,49.106-53.532,54.821-89.718c1.816-11.495,2.996-23.192,3.218-34.865
						c-10.654,3.189-22.148,3.63-32.457-0.306c-7.83-3.004-14.924-10.164-19.233-18.425c-1.897,5.054-3.942,10.058-6.151,15.006
						c-16.118,36.204-44.205,68.003-78.386,90.338c-4.773,3.119-9.667,6.055-14.663,8.792"/>
					<path style="fill:#F7BC15;" d="M847.61,1293.847c6.867,8.035,12.934,16.826,18.136,26.072
						c4.219,7.501,7.868,15.301,10.906,23.243c8.482,22.018,12.959,45.151,15.05,68.657c5.302-5.769,11.046-11.108,17.193-15.919
						c4.617-3.614,9.46-6.93,14.515-9.903c-5.445,1.273-10.938,2.497-16.383,3.77c2.541-4.632,7.169-7.668,11.756-10.346
						c7.9-4.658,16.051-8.762,24.398-12.413c-1.671-4.464-3.514-8.863-5.562-13.182c-10.628-22.412-27.189-42.678-49.271-53.967
						c-17.8-9.098-31.071-10.287-40.757-6.037C845.13,1294.902,845.146,1294.92,847.61,1293.847z"/>
				</g>
			</g>
			<path style="fill:#EBD6DA;" d="M870.699,728.07c-8.4-19.312-15.763-39.117-22.059-59.279c-0.178,2.623-0.33,5.26-0.779,7.823
				c-1.18,6.513-5.868,13.496-12.239,12.831c-4.459-0.471-7.689-4.526-10.33-8.3c-16.923-24.064-31.986-49.493-45.047-76.009
				c6.871,28.78,16.609,56.665,30.125,82.944c1.047,1.981,2.09,3.963,3.182,5.944c-0.906-1.18-1.816-2.36-2.727-3.54
				c-3.097-4.152-9.19,0.379-8.055,4.861c2.638,10.189,8.599,19.674,16.472,26.705c-1.41-0.475-2.868-0.898-4.277-1.321
				c-5.28-1.699-8.373,6.275-3.685,9.15c10.419,6.372,21.61,12.739,33.351,16.988c-4.732,1.321-8.917,3.677-10.874,7.829
				c-1.365,2.831-0.455,7.455,3.186,8.067c4.366,0.757,7.87-0.705,11.966-2.074c1.622-0.554,3.275-1.024,4.944-1.432
				c4.527-9.492,9.451-18.805,14.859-27.895C869.365,730.262,870.028,729.165,870.699,728.07z"/>
			<path style="fill:#EBD6DA;" d="M940.776,601.927c-3.093-2.263-4.096-6.415-4.914-10.237c-1.287-5.961-2.573-11.923-3.856-17.886
				c-0.622,2.612-1.235,5.224-1.831,7.837c-1.458,6.509-2.867,13.021-4.052,19.533c-4.098,22.294-6.129,44.982-6.078,67.666
				c14.141-12.427,29.751-23.047,46.636-31.082c-0.027-0.186-0.054-0.372-0.082-0.559c-2.573,0.139-5.166,0.236-7.729,0.236
				c-3.584-0.044-5.719-5.674-1.993-7.261c3.226-1.387,6.59-2.576,10.058-3.579c1.351-14.473,1.496-29.077,3.824-43.542
				c3.049-18.873,8.603-37.036,13.061-55.578c0.226-1.039,0.093-1.982-0.273-2.783c-7.781,20.946-15.514,41.941-23.25,62.891
				C956.974,596.55,948.376,607.448,940.776,601.927z"/>
			<path style="fill:#EBD6DA;" d="M1177.437,601.174c-1.184-6.512-2.594-13.024-4.052-19.533c-0.595-2.613-1.208-5.226-1.831-7.837
				c-1.283,5.963-2.569,11.924-3.856,17.886c-0.817,3.822-1.82,7.974-4.913,10.237c-7.6,5.522-16.198-5.376-19.521-14.341
				c-7.737-20.95-15.469-41.945-23.25-62.891c-0.362,0.801-0.5,1.744-0.274,2.783c4.459,18.542,10.013,36.705,13.061,55.578
				c2.726,16.939,2.457,34.067,4.64,50.954c-0.46,3.042-0.922,6.14-1.353,9.256c16.949,8.58,32.864,19.305,47.364,31.68
				C1183.915,650.229,1181.902,625.469,1177.437,601.174z"/>
			<path style="fill:#EBD6DA;" d="M1267.94,689.446c-6.371,0.665-11.059-6.319-12.239-12.831c-0.449-2.563-0.601-5.2-0.779-7.823
				c-6.54,20.943-14.234,41.497-23.042,61.517c3.158,4.903,6.136,9.903,8.916,14.984c2.433,4.452,4.662,8.943,6.733,13.465
				c2.407,0.514,4.798,1.138,7.125,1.932c4.096,1.37,7.6,2.831,11.965,2.074c3.641-0.612,4.551-5.236,3.186-8.067
				c-1.957-4.152-6.142-6.509-10.874-7.829c11.74-4.249,22.932-10.616,33.351-16.988c4.688-2.876,1.595-10.85-3.685-9.15
				c-1.409,0.423-2.868,0.846-4.277,1.321c7.874-7.031,13.834-16.516,16.472-26.705c1.14-4.483-4.958-9.014-8.055-4.861
				c-0.91,1.18-1.82,2.36-2.726,3.54c1.092-1.982,2.139-3.963,3.182-5.944c13.516-26.279,23.254-54.164,30.125-82.944
				c-13.061,26.516-28.123,51.945-45.046,76.009C1275.629,684.919,1272.398,688.975,1267.94,689.446z"/>
			<path style="fill:#4D0F0F;" d="M959.726,1008.253c-0.179,0.046-0.355,0.113-0.522,0.202c-0.764,0.402-1.347,1.228-1.199,2.295
				c1.563,11.265-9.521,20.596-19.452,23.379c-11.22,3.141-22.316-1.329-28.191-11.261c-8.554-14.458,0.092-29.06-1.739-44.041
				c-0.806,0.068-1.615,0.114-2.425,0.131c-0.295,0.006-0.561-0.027-0.801-0.09c-5.055,9.238-5.09,24.16-3.585,34.017
				c0.205,1.341,0.479,2.662,0.809,3.955c-5.163,6.331-13.54,15.425-22.211,10.467c-8.937-5.107-8.43-18.296-7.833-26.903
				c0.145-2.054-2.741-2.167-3.379-0.463c-0.002,0.002-0.003,0.005-0.004,0.008c-3.665,9.895,0.048,28.498,11.14,32.638
				c8.405,3.138,19.287-2.614,24.18-10.314c2.988,6.927,8.083,12.577,15.57,15.61c17.116,6.931,43.989-5.3,42.257-25.493
				c-0.076-0.894-0.208-1.803-0.4-2.727C961.674,1008.392,960.661,1008.018,959.726,1008.253z"/>
			<g>
				<path style="fill:#F28F89;" d="M920.046,668.839c-0.05-22.684,1.982-45.371,6.079-67.666c1.184-6.512,2.594-13.024,4.052-19.533
					c0.594-2.613,1.208-5.226,1.831-7.837c10.513-44.078,24.249-88.022,17.505-132.384c-4.776,5.002-7.962,8.727-9.464,14.531
					c4.595-27.221,5.28-55.155,2.094-82.614c-1.321-11.087-3.548-22.694-10.6-31.14c-12.062,6.23-19.432,19.203-24.209,32.179
					c-4.776,13.02-7.737,26.846-14.289,39.017c2.96-19.956,5.461-42.32-5.96-58.691c-9.009,6.086-12.783,17.644-15.562,28.401
					c-4.821,18.683-10.145,35.86-12.65,55.062c1.688-17.837-2.819-36.238-12.509-51.1c-8.691,6.42-12.243,17.837-15.107,28.498
					c-13.79,51.24-25.984,101.724-19.521,151.498c0.407,3.351,0.954,6.653,1.547,10.004c0.226,1.272,2.002,1.035,1.957-0.238
					c-0.137-3.443-0.137-6.887,0.044-10.334c0.592-12.267,3.137-24.346,7.6-35.715c1.865,28.687,5.912,57.277,11.921,85.348
					c3.806,17.765,8.427,35.346,13.836,52.664c6.295,20.162,13.659,39.967,22.058,59.279
					C884.061,706.271,900.676,685.861,920.046,668.839z"/>
				<path style="fill:#F28F89;" d="M1272.307,415.563c-2.864-10.661-6.415-22.078-15.103-28.498
					c-9.694,14.861-14.196,33.262-12.513,51.1c-2.505-19.203-7.829-36.379-12.65-55.062c-2.779-10.757-6.553-22.315-15.562-28.401
					c-11.421,16.371-8.92,38.735-5.96,58.691c-6.553-12.171-9.513-25.997-14.289-39.017c-4.776-12.976-12.147-25.948-24.205-32.179
					c-7.056,8.445-9.283,20.052-10.604,31.14c-3.186,27.459-2.501,55.393,2.094,82.614c-1.502-5.803-4.688-9.529-9.464-14.531
					c-6.746,44.362,6.99,88.306,17.505,132.384c0.622,2.612,1.234,5.224,1.831,7.837c1.458,6.508,2.868,13.02,4.052,19.533
					c4.464,24.296,6.478,49.056,6.015,73.772c18.798,16.044,35.219,34.858,48.427,55.363c8.808-20.02,16.502-40.575,23.042-61.517
					c5.409-17.318,10.031-34.899,13.836-52.664c6.009-28.071,10.056-56.661,11.921-85.348c4.462,11.369,7.008,23.447,7.599,35.715
					c0.182,3.447,0.182,6.891,0.044,10.334c-0.044,1.273,1.732,1.51,1.957,0.238c0.592-3.351,1.14-6.653,1.547-10.004
					C1298.292,517.287,1286.096,466.804,1272.307,415.563z"/>
				<path style="fill:#F28F89;" d="M957.563,950.859c-5.659-1.075-13.814,7.016-18.224,9.734
					c-10.435,6.44-21.772,8.707-32.988,12.96c-6.557-4.829-13.311-9.299-18.921-15.292c-3.053-3.258-8.034-12.094-13.568-8.804
					c-9.227,5.485,4.249,17.737,8.522,12.449c2.006,2.199,4.1,4.309,6.356,6.254c4.615,3.975,9.492,7.197,15.147,9.316
					c0.238,0.65,0.731,1.185,1.51,1.391c0.24,0.063,0.506,0.097,0.802,0.091c0.809-0.018,1.619-0.063,2.424-0.131
					c7.948-0.674,15.689-3.716,22.896-7.022c4.277-1.965,8.546-4.16,12.582-6.593c0.266-0.157,3.17-2.034,5.816-4.18
					c0.358,0.294,0.785,0.528,1.293,0.664c4.052,1.092,9.75,1.079,10.708-4.209C962.456,954.524,960.503,951.419,957.563,950.859z"
					/>
			</g>
			<g>
				<path style="fill:#4D0F0F;" d="M848.312,863.134c-12.364,0-22.388,16.182-22.388,36.146c0,19.964,10.024,36.146,22.388,36.146
					c12.364,0,22.388-16.182,22.388-36.146C870.7,879.317,860.676,863.134,848.312,863.134z"/>
				<path style="fill:#4D0F0F;" d="M1034.244,863.134c-15.429,0-27.938,16.182-27.938,36.146c0,19.964,12.509,36.146,27.938,36.146
					c15.429,0,27.938-16.182,27.938-36.146C1062.182,879.317,1049.673,863.134,1034.244,863.134z"/>
			</g>
			<path style="fill:#FFFFFF;" d="M905.041,956.917c11.901,2.69,23.605-4.845,33.153-12.441c1.148-0.91,2.368-2.127,2.187-3.581
				c-0.109-0.862-0.705-1.579-1.309-2.203c-6.396-6.581-16.258-8.313-25.433-8.458c-8.425-0.129-16.867,0.79-25.067,2.731
				c-1.724,0.407-3.512,0.902-4.808,2.106c-1.297,1.204,0.435,5.063,1.273,6.621C889.121,949.309,896.612,955.011,905.041,956.917z"
				/>
			<path style="fill:#FFFFFF;" d="M888.042,927.198c5.731,1.156,11.486-0.403,17.225-1.176c6.158-0.83,11.788-0.745,17.942,0.064
				c3.81,0.499,4.208-4.756,1.76-6.508c-5.199-3.717-11.784-4.024-17.978-3.472c-6.512,0.576-14.084,1.007-19.863,4.084
				C884.32,921.685,884.808,926.546,888.042,927.198z"/>
			<path style="fill:#A03232;" d="M841.07,903.344c2.4-3.536,3.475-7.829,4.748-11.852c1.385-4.365,3.443-8.792,3.065-13.451
				c-0.362-4.43-5.667-9.182-10.088-5.791c-8.893,6.826-11.011,23.113-3.552,31.844C836.898,906.03,839.829,905.168,841.07,903.344z
				"/>
			<path style="fill:#A03232;" d="M1023.478,899.844c2.855-2.283,3.729-7.813,4.938-11.184c1.377-3.838,3.689-7.41,3.5-11.615
				c-0.189-4.076-3.653-6.54-7.563-5.759c-10.519,2.09-16.685,23.032-7.25,29.379
				C1019.197,902.072,1021.714,901.254,1023.478,899.844z"/>
			<g>
				<path style="fill:#E07069;" d="M930.176,581.641c-4.052,9.908-8.055,19.815-12.106,29.722
					c-2.762,6.812-9.061,14.762-14.98,13.842c-1.095-0.169-2.176-0.642-3.22-1.482c-2.775-2.167-3.504-6.086-4.048-9.621
					c-4.475-30.318-8.578-64.64-8.365-96.303c0.008-1.237-1.671-1.374-1.872-0.153c-6.013,36.705-13.79,73.089-23.299,108.956
					c-1.776,6.746-6.596,15.192-12.924,12.739c-2.32-0.894-3.867-3.162-5.231-5.284c-3.548-5.707-6.69-11.7-9.328-17.93
					c3.806,17.765,8.428,35.346,13.836,52.664c6.296,20.162,13.659,39.967,22.059,59.279c13.362-21.799,29.977-42.209,49.347-59.23
					c-0.05-22.685,1.98-45.372,6.078-67.666C927.309,594.661,928.718,588.149,930.176,581.641z"/>
				<path style="fill:#E07069;" d="M1268.758,616.127c-2.638,6.23-5.779,12.223-9.328,17.93c-1.365,2.122-2.912,4.39-5.232,5.284
					c-6.327,2.453-11.148-5.993-12.924-12.739c-9.509-35.868-17.286-72.251-23.298-108.956c-0.202-1.22-1.881-1.084-1.873,0.153
					c0.214,31.663-3.891,65.984-8.365,96.303c-0.544,3.536-1.273,7.455-4.048,9.621c-1.044,0.84-2.125,1.313-3.22,1.482
					c-5.919,0.919-12.217-7.031-14.98-13.842c-4.052-9.907-8.055-19.814-12.106-29.722c1.458,6.509,2.867,13.021,4.052,19.533
					c4.465,24.295,6.478,49.056,6.015,73.771c18.799,16.044,35.219,34.858,48.428,55.364c8.808-20.02,16.502-40.575,23.042-61.517
					C1260.33,651.474,1264.952,633.892,1268.758,616.127z"/>
			</g>
			<g>
				<path style="fill:#D8B6BD;" d="M1598.971,1836.895c-10.21,4.946-23.689,3.266-31.264-5.175
					c-7.58-8.437-7.08-27.906,1.905-34.845c-8.123,3.174-16.79,5.714-25.457,4.672c-8.619-1.043-17.242-6.4-19.782-14.749
					c-1.406-4.627-0.862-9.617,0.27-14.293c2.134-8.755,9.532-18.695,15.34-25.59c-11.438,5.308-23.19,10.66-35.759,11.389
					c-12.614,0.725-26.315-4.314-32.352-15.34c-7.761-14.201,1.587-31.354,9.211-45.647c-5.715,6.351-12.751,11.522-20.507,15.062
					c-2.042,0.954-4.265,1.772-6.492,1.728c-4.129-0.11-7.149-2.959-9.18-6.694c-4.146,15.806-8.619,31.551-13.325,47.214
					c-11.263,37.432-23.849,74.402-36.496,110.684c1.826,2.241,3.773,4.381,5.868,6.388c9.71,9.299,23.278,15.517,36.48,13.202
					c8.623-1.543,18.333-8.985,17.382-17.697c25.139,17.697,57.579,24.64,87.801,18.832c6.625-1.273,13.343-3.266,18.607-7.443
					c5.263-4.221,13.564-9.98,12.295-16.609c13.838,4.95,30.765-1.405,37.978-14.2c4.402-7.849,5.856-18.695,3.677-27.998
					C1611.766,1827.092,1606.228,1833.399,1598.971,1836.895z"/>
			</g>
		</g>
	</g>
</g>
</svg>
