<?xml version="1.0" encoding="utf-8"?>
<!-- Generator: Adobe Illustrator 27.5.0, SVG Export Plug-In . SVG Version: 6.00 Build 0)  -->
<svg version="1.1" id="Capa_1" xmlns="http://www.w3.org/2000/svg" xmlns:xlink="http://www.w3.org/1999/xlink" x="0px" y="0px"
	 viewBox="0 0 2122 2122" style="enable-background:new 0 0 2122 2122;" xml:space="preserve">
<g>
	<path style="fill:#FBD7CE;" d="M1361.534,762.597c1.334-0.851,2.637-1.768,3.957-2.648c1.348-0.9,2.708-1.776,4.042-2.705
		c1.543-1.075,3.058-2.2,4.582-3.312c1.296-0.945,2.604-1.868,3.886-2.838c1.535-1.161,3.041-2.366,4.557-3.56
		c1.24-0.975,2.492-1.931,3.717-2.927c1.519-1.232,3.007-2.503,4.506-3.762c1.191-1.002,2.397-1.986,3.576-3.002
		c1.513-1.305,2.995-2.641,4.487-3.967c1.129-1.005,2.274-1.994,3.391-3.009c1.576-1.431,3.119-2.884,4.671-4.332
		c1-0.934,2.017-1.857,3.007-2.796c1.696-1.607,3.357-3.229,5.024-4.848c0.822-0.799,1.66-1.591,2.475-2.391
		c2.463-2.42,4.895-4.846,7.295-7.269c15.926-16.091,31.633-32.605,46.962-49.586c130.175-144.025,235.407-319.087,249.722-511.301
		c1.185-16.22,1.568-33.242-5.676-48.018C1661.639-9.952,1472.9,207.841,1440.589,249.596
		c-21.259,27.438-40.571,56.069-58.19,85.582c-18.033,30.151-34.342,61.237-49.163,92.951
		c-23.33,49.93-43.066,101.508-60.222,153.554c-0.398,1.208-0.845,2.508-1.325,3.879c-0.165,0.471-0.355,0.994-0.529,1.484
		c-0.334,0.94-0.668,1.878-1.032,2.884c-0.228,0.627-0.476,1.3-0.713,1.951c-0.347,0.945-0.692,1.889-1.06,2.884
		c-0.283,0.763-0.579,1.562-0.874,2.352c-0.385,1.037-0.775,2.086-1.179,3.169c-0.536,1.435-1.079,2.889-1.643,4.4
		c-0.364,0.979-0.744,1.999-1.12,3.007c-0.401,1.079-0.803,2.159-1.214,3.271c-0.356,0.958-0.718,1.938-1.079,2.919
		c-0.419,1.134-0.838,2.276-1.264,3.439c-0.357,0.975-0.716,1.96-1.078,2.955c-0.428,1.175-0.855,2.363-1.287,3.564
		c-0.367,1.021-0.736,2.047-1.105,3.085c-0.434,1.219-0.867,2.452-1.303,3.693c-0.37,1.056-0.742,2.11-1.112,3.18
		c-0.438,1.264-0.875,2.545-1.312,3.828c-0.364,1.066-0.727,2.127-1.089,3.205c-0.458,1.363-0.91,2.744-1.364,4.124
		c-0.336,1.023-0.673,2.04-1.007,3.072c-0.492,1.521-0.973,3.058-1.456,4.595c-0.288,0.917-0.581,1.825-0.865,2.747
		c-0.639,2.068-1.261,4.15-1.877,6.239c-0.117,0.401-0.242,0.797-0.36,1.198c-0.727,2.489-1.433,4.991-2.118,7.498
		c-0.199,0.723-0.381,1.449-0.575,2.173c-0.432,1.615-0.87,3.23-1.281,4.848c0.003,0.001,0.006,0.003,0.009,0.004
		c-0.004,0.013-0.006,0.026-0.01,0.039c-8.851-3.853-17.891-7.432-27.143-10.653c-4.601-1.605-9.268-3.099-13.962-4.542
		c-1.107-0.34-2.214-0.678-3.326-1.01c-4.666-1.389-9.365-2.719-14.118-3.944c-0.506-0.13-1.018-0.245-1.525-0.373
		c-4.38-1.112-8.802-2.14-13.25-3.11c-1.114-0.243-2.226-0.49-3.345-0.724c-4.817-1.007-9.666-1.942-14.557-2.779
		c-0.829-0.142-1.665-0.262-2.496-0.4c-4.354-0.717-8.738-1.362-13.149-1.943c-1.056-0.139-2.108-0.289-3.168-0.42
		c-0.67-0.083-1.333-0.186-2.004-0.265c-1.549-12.557-3.138-25.113-4.687-37.674c34.027,7.836,68.102,15.12,102.324,21.954
		c-3.64-5.938-7.332-11.775-11.074-17.513c-3.591-5.337-7.133-10.678-10.875-15.864c-27.888-39.564-60.417-75.238-97.736-104.92
		c-13.969-11.177-28.586-21.455-43.956-30.783c-10.575-6.432-21.498-12.469-32.773-17.957c-1.351-0.7-2.696-1.35-4.095-1.996
		c-16.114-7.636-32.577-13.872-49.141-18.661c-112.753-32.778-232.887-2.392-323.239,66.752c-4.339,3.345-8.629,6.789-12.821,10.277
		c-6.481,5.391-12.773,11.026-18.858,16.817c-64.658,61.361-108.265,144.729-112.753,238.326c-0.102,2.245-0.2,4.491-0.253,6.736
		c-0.15,4.615-0.224,9.212-0.227,13.792c0,0.102,0.004,0.203,0.004,0.305c0.001,4.21,0.071,8.403,0.193,12.582
		c0.041,1.435,0.119,2.86,0.175,4.291c0.112,2.844,0.231,5.686,0.4,8.516c0.099,1.68,0.227,3.353,0.345,5.029
		c0.183,2.584,0.378,5.166,0.607,7.738c0.155,1.734,0.325,3.464,0.499,5.193c0.254,2.518,0.53,5.031,0.828,7.537
		c0.203,1.715,0.411,3.428,0.635,5.138c0.335,2.555,0.701,5.101,1.081,7.643c0.242,1.623,0.476,3.249,0.735,4.867
		c0.445,2.761,0.93,5.509,1.426,8.254c0.247,1.367,0.474,2.742,0.733,4.105c0.778,4.092,1.604,8.168,2.496,12.221
		c6.238,28.391,15.218,55.931,26.542,82.522c2.593,5.988,5.24,11.97,8.036,17.86c5.983,12.621,12.524,25.094,19.505,37.269
		c21.655,37.866,48.093,73.439,77.83,106.467c11.77-46.896,15.614-99.535,23.994-142.787c1.002-5.137,2.293-10.776,6.54-13.77
		l0.347-0.201c4.139-2.695,9.681-2.192,14.67-1.399c8.131,1.15,16.31,2.348,24.448,3.497c0.028,0.004,0.057,0.008,0.085,0.012
		c1.882,107.902,67.467,202.418,165.726,256.749c-0.019,0.024-0.041,0.048-0.061,0.072c0,0-0.001,0-0.001,0
		c-0.146,0.176-0.285,0.359-0.432,0.535c-2.464,2.964-4.885,5.97-7.261,9.02c-0.851,1.092-1.67,2.213-2.509,3.316
		c-1.652,2.169-3.301,4.339-4.909,6.547c-0.951,1.307-1.873,2.638-2.809,3.959c-1.452,2.047-2.901,4.096-4.316,6.174
		c-0.962,1.414-1.9,2.845-2.845,4.272c-1.338,2.02-2.669,4.044-3.972,6.09c-0.366,0.574-0.752,1.133-1.115,1.71
		c-6.358-0.403-12.223-0.585-16.818-0.821c-51.199-2.633-98.782-11.164-146.128-31.692c-56.331-24.422-107.187-59.78-156.263-96.67
		c-21.062-15.828-42.066-32.106-65.797-43.555c-22.822-11.008-54.301-15.454-70.106,4.352c-10.416,13.053-9.574,31.768-5.72,48.019
		c17.734,74.708,85.002,127.512,154.511,160.125c74.089,34.757,157.841,53.494,239.716,44.187
		c7.532-0.856,16.739-1.922,26.607-3.423c-0.156,0.409-0.33,0.813-0.484,1.222c-4.152,10.96-8.146,22.473-11.899,34.421l-19.2-9.6
		l-38.943,58.941c-12.686-16.171-25.804-32.002-39.43-47.387c-11.122,22.318-22.258,44.636-33.384,66.954l-56.911-76.345
		l-44.014,106.643c-17.259-17.34-34.615-34.579-52.103-51.686c-0.336,10.164-0.55,20.327-0.55,30.448
		c0,9.401,0.127,18.801,0.467,28.202c2.202,69.832,12.999,138.687,34.217,204.241c0.38,1.228,0.804,2.414,1.184,3.642
		c13.891,42.222,32.141,83.042,55.264,121.876c1.145,1.905,2.285,3.854,3.513,5.759c7.751,12.621,16.01,24.774,24.692,36.419
		c17.617,23.588,37.009,45.184,57.973,64.706c117.978,110.231,284.151,156.558,442.825,138.943
		c12.448-1.398,24.857-3.177,37.223-5.379c96.721-17.023,188.994-58.312,263.693-123.951c26.002-22.782,49.885-48.529,71.06-77.24
		l0.93-1.228c34.007-46.287,60.516-95.452,80.292-146.438c14.739-37.985,25.749-77.071,33.413-116.836
		c2.202-11.349,4.107-22.782,5.759-34.258c2.923-20.37,5.038-40.909,6.31-61.532c4.063-63.985,0.423-129.03-9.442-193.568
		c-25.336,22.944-49.49,48.993-72.821,74.998l-77.084-88.096l-51.897,71.362l-32.439-25.948l-30.862,37.52
		c-8.077-23.727-17.881-46.865-29.16-68.976c25.988-3.489,53.549-13.867,71.373-20.613
		c77.069-29.175,142.974-84.152,192.948-148.943c46.901-60.795,82.566-138.519,64.163-213.066
		c-4-16.211-11.814-33.238-27.045-40.085c-23.116-10.385-49.075,7.965-64.338,28.199c-15.864,21.036-27.098,45.114-38.587,68.828
		c-26.765,55.253-55.819,109.955-94.738,157.439c-32.716,39.911-71.122,69.264-115.452,95.022
		c-6.222,3.616-15.264,8.541-24.009,14.338c-0.003-0.002-0.004-0.004-0.005-0.006c-0.224-0.303-0.47-0.594-0.696-0.896
		c-2.788-3.748-5.652-7.45-8.604-11.091c-0.552-0.681-1.127-1.341-1.684-2.017c-2.48-3.01-5.016-5.979-7.604-8.907
		c-0.469-0.529-0.904-1.083-1.375-1.61c-0.015,0.008-0.03,0.016-0.044,0.025c-0.008-0.009-0.016-0.018-0.024-0.026
		c96.337-55.648,159.799-150.482,159.799-258.13c0-72.516-28.808-139.209-77.031-192.04c0.01-0.007,0.019-0.013,0.03-0.02
		C1361.519,762.582,1361.527,762.589,1361.534,762.597z"/>
	<path style="fill:#F18A84;" d="M495.888,1152.308c-13.213-10.514-24.716-23.15-38.251-33.177c-2.85-2.112-6.753,2.007-4.838,4.84
		c10.329,15.281,25.939,27.535,40.385,38.794c12.862,10.021,27.932,23.186,43.864,27.444c3.381,0.904,5.861-3.352,3.406-5.844
		C527.971,1171.696,509.929,1163.479,495.888,1152.308z"/>
	<path style="fill:#F18A84;" d="M474.738,1191.835c-14.246-10.475-27.006-22.675-41.043-33.372
		c-2.422-1.844-6.051,1.813-4.239,4.234c10.431,13.905,23.771,25.113,37.496,35.683c13.16,10.137,28.239,22.431,44.38,27.104
		c3.557,1.031,6.597-3.8,3.713-6.383C503.128,1208.444,487.688,1201.36,474.738,1191.835z"/>
	<path style="fill:#6DBE95;" d="M1628.695,1295.316c-25.336,22.944-49.49,48.993-72.821,74.998l-77.084-88.096l-51.897,71.362
		l-32.439-25.948l-30.862,37.52c2.757,8.103,5.301,16.276,7.648,24.497c-19.16-16.837-38.335-33.674-57.482-50.502
		c-47.766,57.466-95.493,114.974-143.22,172.438c-68.263-49.208-134.831-100.745-199.581-154.482
		c-55.138,53.018-106.378,110.102-153.213,170.616c-11.515-19.146-23.69-37.893-36.436-56.244
		c5.085-34.021,13.024-67.161,22.549-97.484l-19.2-9.6l-38.943,58.941c-12.686-16.171-25.804-32.002-39.43-47.387
		c-11.122,22.318-22.258,44.636-33.384,66.954l-56.911-76.345l-44.014,106.643c-17.259-17.34-34.615-34.579-52.103-51.686
		c-0.336,10.164-0.55,20.327-0.55,30.448c0,9.401,0.127,18.801,0.467,28.202c2.202,69.832,12.999,138.687,34.217,204.241
		c0.38,1.228,0.804,2.414,1.184,3.642c13.891,42.222,32.141,83.042,55.264,121.876c1.145,1.905,2.285,3.854,3.513,5.759
		c7.751,12.621,16.01,24.774,24.692,36.419c17.617,23.588,37.009,45.184,57.973,64.706
		c117.978,110.231,284.151,156.558,442.825,138.943c12.448-1.398,24.857-3.177,37.223-5.379
		c96.721-17.023,188.994-58.312,263.693-123.951c26.002-22.782,49.885-48.529,71.06-77.24l0.93-1.228
		c34.007-46.287,60.516-95.452,80.292-146.438c14.739-37.985,25.749-77.071,33.413-116.836c2.202-11.349,4.107-22.782,5.759-34.258
		c2.923-20.37,5.038-40.909,6.31-61.532C1642.2,1424.899,1638.561,1359.854,1628.695,1295.316z"/>
	<path style="fill:#F7B4A6;" d="M1460.956,649.646c-11.124-10.79-21.7-22.155-31.681-34.022c0-0.001-0.001-0.001-0.003-0.003
		c-24.566-29.206-45.544-61.457-62.368-95.746l-0.014-0.029c-14.375-29.303-25.716-60.093-33.654-91.719
		c-23.33,49.93-43.066,101.508-60.222,153.554c-0.398,1.208-0.845,2.508-1.325,3.879c-0.165,0.471-0.355,0.994-0.529,1.484
		c-0.334,0.94-0.668,1.878-1.032,2.884c-0.228,0.627-0.476,1.3-0.713,1.951c-0.347,0.945-0.692,1.889-1.06,2.884
		c-0.283,0.763-0.579,1.562-0.874,2.352c-0.385,1.037-0.775,2.086-1.179,3.169c-0.536,1.435-1.079,2.889-1.643,4.4
		c-0.364,0.979-0.744,1.999-1.12,3.007c-0.401,1.079-0.803,2.159-1.214,3.271c-0.356,0.958-0.718,1.938-1.079,2.919
		c-0.419,1.134-0.838,2.276-1.264,3.439c-0.357,0.975-0.716,1.96-1.078,2.955c-0.428,1.175-0.855,2.363-1.287,3.564
		c-0.367,1.021-0.736,2.047-1.105,3.085c-0.434,1.219-0.867,2.452-1.303,3.693c-0.37,1.056-0.742,2.11-1.112,3.18
		c-0.438,1.264-0.875,2.545-1.312,3.828c-0.364,1.066-0.727,2.127-1.089,3.205c-0.458,1.363-0.91,2.744-1.364,4.124
		c-0.336,1.023-0.673,2.04-1.007,3.072c-0.492,1.521-0.973,3.058-1.456,4.595c-0.288,0.917-0.581,1.825-0.865,2.747
		c-0.639,2.068-1.261,4.15-1.877,6.239c-0.117,0.401-0.242,0.797-0.36,1.198c-0.727,2.489-1.433,4.991-2.118,7.498
		c-0.199,0.723-0.381,1.449-0.575,2.173c-0.432,1.615-0.87,3.23-1.281,4.848c0.003,0.001,0.006,0.003,0.009,0.004
		c0.739,0.321,1.446,0.689,2.182,1.015c4.391,1.944,8.727,3.963,13.011,6.058c1.096,0.535,2.202,1.056,3.291,1.602
		c4.986,2.497,9.895,5.093,14.725,7.788c0.997,0.557,1.974,1.137,2.965,1.703c4.121,2.35,8.181,4.772,12.181,7.263
		c1.011,0.631,2.034,1.247,3.037,1.887c4.632,2.948,9.18,5.986,13.639,9.12c0.888,0.624,1.753,1.269,2.633,1.9
		c3.807,2.727,7.543,5.522,11.214,8.381c0.93,0.724,1.873,1.437,2.794,2.17c4.226,3.361,8.364,6.803,12.399,10.334
		c0.792,0.691,1.557,1.403,2.341,2.101c3.434,3.062,6.794,6.185,10.083,9.367c0.854,0.826,1.72,1.642,2.564,2.477
		c3.773,3.731,7.451,7.534,11.017,11.419c0.206,0.223,0.429,0.433,0.635,0.658c0.006,0.008,0.015,0.015,0.022,0.023
		c1.334-0.851,2.637-1.768,3.957-2.648c1.348-0.9,2.708-1.776,4.042-2.705c1.543-1.075,3.058-2.2,4.582-3.312
		c1.296-0.945,2.604-1.868,3.886-2.838c1.535-1.161,3.041-2.366,4.557-3.56c1.24-0.975,2.492-1.931,3.717-2.927
		c1.519-1.232,3.007-2.503,4.506-3.762c1.191-1.002,2.397-1.986,3.576-3.002c1.513-1.305,2.995-2.641,4.487-3.967
		c1.129-1.005,2.274-1.994,3.391-3.009c1.576-1.431,3.119-2.884,4.671-4.332c1-0.934,2.017-1.857,3.007-2.796
		c1.696-1.607,3.357-3.229,5.024-4.848c0.822-0.799,1.66-1.591,2.475-2.391c2.463-2.42,4.895-4.846,7.295-7.269
		c15.926-16.091,31.633-32.605,46.962-49.586C1468.156,656.467,1464.556,653.165,1460.956,649.646z"/>
	<path style="fill:#48A974;" d="M628.877,1531.191c14.692-29.431,29.353-58.862,44.024-88.293l-56.911-76.345l-44.014,106.643
		C591.077,1492.387,610.057,1511.704,628.877,1531.191z"/>
	<path style="fill:#48A974;" d="M1442.79,1452.509c5.759,5.04,12.321,10.417,19.985,10.163c7.708-0.253,13.934-6.097,19.357-11.603
		c23.888-24.154,48.327-52.43,73.742-80.756l-77.084-88.096l-51.897,71.362l-32.439-25.948l-30.862,37.52
		c2.757,8.103,5.301,16.276,7.648,24.497C1395.09,1410.605,1418.932,1431.564,1442.79,1452.509z"/>
	<path style="fill:#48A974;" d="M803.857,1373.99l-19.2-9.6l-38.943,58.941c12.32,15.704,24.206,31.748,35.593,48.143
		C786.393,1437.453,794.332,1404.313,803.857,1373.99z"/>
	<path style="fill:#F7B4A6;" d="M1263.279,1221.181c-3.439,1.775-6.91,3.503-10.422,5.18c-1.373,0.656-2.747,1.308-4.13,1.948
		c-3.876,1.794-7.79,3.529-11.748,5.201c-0.764,0.323-1.512,0.666-2.277,0.984c-4.713,1.956-9.49,3.813-14.313,5.594
		c-1.214,0.448-2.444,0.869-3.666,1.305c-3.744,1.34-7.518,2.628-11.326,3.86c-1.44,0.467-2.878,0.932-4.327,1.383
		c-4.407,1.371-8.85,2.677-13.335,3.901c-0.592,0.162-1.173,0.342-1.766,0.501c-5.065,1.358-10.189,2.601-15.348,3.768
		c-1.369,0.309-2.749,0.59-4.125,0.886c-3.943,0.849-7.911,1.641-11.905,2.375c-1.532,0.282-3.062,0.568-4.602,0.833
		c-4.916,0.845-9.861,1.621-14.848,2.292c-0.37,0.049-0.733,0.114-1.103,0.163c-5.34,0.703-10.728,1.276-16.144,1.773
		c-1.532,0.141-3.074,0.252-4.611,0.376c-4.081,0.329-8.18,0.598-12.299,0.809c-1.611,0.082-3.218,0.172-4.834,0.236
		c-5.509,0.217-11.042,0.363-16.613,0.363c-5.539,0-11.036-0.147-16.514-0.361c-1.542-0.06-3.076-0.14-4.611-0.218
		c-4.337-0.218-8.651-0.501-12.944-0.851c-1.238-0.101-2.481-0.181-3.716-0.292c-5.358-0.484-10.682-1.068-15.967-1.754
		c-1.115-0.145-2.217-0.32-3.329-0.474c-4.303-0.595-8.58-1.255-12.83-1.981c-1.456-0.248-2.91-0.497-4.359-0.76
		c-4.983-0.906-9.937-1.878-14.841-2.962c-0.233-0.051-0.471-0.093-0.703-0.145c-5.147-1.146-10.235-2.418-15.29-3.754
		c-1.344-0.356-2.68-0.729-4.017-1.099c-4.004-1.104-7.974-2.265-11.915-3.485c-1.149-0.356-2.308-0.696-3.453-1.062
		c-4.896-1.566-9.748-3.214-14.541-4.957c-0.903-0.328-1.788-0.682-2.686-1.016c-3.966-1.475-7.893-3.011-11.783-4.605
		c-1.312-0.537-2.622-1.077-3.926-1.628c-4.222-1.784-8.403-3.626-12.529-5.548c-0.458-0.213-0.927-0.411-1.384-0.626
		c-4.529-2.131-8.983-4.363-13.391-6.656c-1.206-0.628-2.396-1.273-3.592-1.912c-1.603-0.855-3.227-1.684-4.811-2.56
		c0,0-0.001,0-0.001,0c-0.146,0.176-0.285,0.359-0.432,0.535c-2.464,2.964-4.885,5.97-7.261,9.02
		c-0.851,1.092-1.67,2.213-2.509,3.316c-1.652,2.169-3.301,4.339-4.909,6.547c-0.951,1.307-1.873,2.638-2.809,3.959
		c-1.452,2.047-2.901,4.096-4.316,6.174c-0.962,1.414-1.9,2.845-2.845,4.272c-1.338,2.02-2.669,4.044-3.972,6.09
		c-0.366,0.574-0.752,1.133-1.115,1.71l0,0c-5.498,8.726-10.68,17.669-15.543,26.777c51.584,25.072,126.157,36.508,152.454,37.902
		c8.15,0.443,16.291,0.656,24.441,0.656c55.074,0,110.03-9.761,163.113-24.667c43.408-12.152,86.472-28.074,123.021-54.286
		c-1.626-2.321-3.285-4.626-4.973-6.911c-0.003-0.002-0.004-0.004-0.005-0.006c-0.224-0.303-0.47-0.594-0.696-0.896
		c-2.788-3.748-5.652-7.45-8.604-11.091c-0.552-0.681-1.127-1.341-1.684-2.017c-2.48-3.01-5.016-5.979-7.604-8.907
		c-0.469-0.529-0.904-1.083-1.375-1.61c-0.015,0.008-0.03,0.016-0.044,0.025c-3.982,2.3-8.033,4.516-12.125,6.68
		C1265.51,1220.053,1264.389,1220.608,1263.279,1221.181z"/>
	<path style="fill:#6DBE95;" d="M1128.749,647.209c-1.549-12.557-3.138-25.113-4.687-37.674
		c34.027,7.836,68.102,15.12,102.324,21.954c-3.64-5.938-7.332-11.775-11.074-17.513c-3.591-5.337-7.133-10.678-10.875-15.864
		c-27.888-39.564-60.417-75.238-97.736-104.92c-13.969-11.177-28.586-21.455-43.956-30.783
		c-10.575-6.432-21.498-12.469-32.773-17.957c-1.351-0.7-2.696-1.35-4.095-1.996c-16.114-7.636-32.577-13.872-49.141-18.661
		c-112.753-32.778-232.887-2.392-323.239,66.752c-4.339,3.345-8.629,6.789-12.821,10.277c-6.481,5.391-12.773,11.026-18.858,16.817
		c-64.658,61.361-108.265,144.729-112.753,238.326c-0.102,2.245-0.2,4.491-0.253,6.736c-0.15,4.615-0.224,9.212-0.227,13.792
		c0,0.102,0.004,0.203,0.004,0.305c0.001,4.21,0.071,8.403,0.193,12.582c0.041,1.435,0.119,2.86,0.175,4.291
		c0.112,2.844,0.231,5.686,0.4,8.516c0.099,1.68,0.227,3.353,0.345,5.029c0.183,2.584,0.378,5.166,0.607,7.738
		c0.155,1.734,0.325,3.464,0.499,5.193c0.254,2.518,0.53,5.031,0.828,7.537c0.203,1.715,0.411,3.428,0.635,5.138
		c0.335,2.555,0.701,5.101,1.081,7.643c0.242,1.623,0.476,3.249,0.735,4.867c0.445,2.761,0.93,5.509,1.426,8.254
		c0.247,1.367,0.474,2.742,0.733,4.105c0.778,4.092,1.604,8.168,2.496,12.221c6.238,28.391,15.218,55.931,26.542,82.522
		c2.593,5.988,5.24,11.97,8.036,17.86c5.983,12.621,12.524,25.094,19.505,37.269c21.655,37.866,48.093,73.439,77.83,106.467
		c11.77-46.896,15.614-99.535,23.994-142.787c1.002-5.137,2.293-10.776,6.54-13.77l0.347-0.201c4.139-2.695,9.681-2.192,14.67-1.399
		c8.131,1.15,16.31,2.348,24.448,3.497c0.028,0.004,0.057,0.008,0.085,0.012c30.153,4.335,60.305,8.67,90.46,13.058
		c3.992-37.919,7.933-75.785,11.925-113.603c1.301-12.469,2.642-24.943,3.939-37.416c56.781,2.642,113.5,7.235,169.979,13.77
		c11.128-50.54,18.559-101.927,22.202-153.661c38.362,18.608,78.429,33.625,119.434,44.9c-3.287-26.391-6.583-52.786-9.924-79.176
		C1128.752,647.239,1128.75,647.224,1128.749,647.209z"/>
	<path style="fill:#F7B4A6;" d="M1138.678,726.43c-41.006-11.275-81.073-26.293-119.434-44.9
		c-3.643,51.734-11.074,103.12-22.202,153.661c-56.479-6.535-113.199-11.128-169.979-13.77c-1.297,12.473-2.638,24.947-3.939,37.416
		c0,0.004,0,0.009-0.001,0.014c7.16-1.21,13.655-2.466,18.716-3.142c20.267-2.733,40.715-4.102,61.161-4.102
		c24.544,0,49.082,1.972,73.291,5.924c8.138,1.323,16.826,2.738,25.174,2.738c9.555,0,18.664-1.854,25.985-7.822
		c20.324-16.599,11.939-52.594,30.743-70.93c11.042-10.762,26.554-11.392,42.588-11.392c1.062,0,2.13,0.003,3.195,0.005
		c1.112,0.003,2.224,0.006,3.338,0.006c8.012,0,16.025-0.166,23.548-1.664c22.995-4.575,42.392-23.758,47.217-46.664
		c2.032-9.573,1.737-19.779,5.715-28.711c5.591-12.492,17.619-19.397,29.856-26.382c-4.601-1.605-9.268-3.099-13.962-4.542
		c-1.107-0.34-2.214-0.678-3.326-1.01c-4.666-1.389-9.365-2.719-14.118-3.944c-0.506-0.13-1.018-0.245-1.525-0.373
		c-4.38-1.112-8.802-2.14-13.25-3.11c-1.114-0.243-2.226-0.49-3.345-0.724c-4.817-1.007-9.666-1.942-14.557-2.779
		c-0.829-0.142-1.665-0.262-2.496-0.4c-4.354-0.717-8.738-1.362-13.149-1.943c-1.056-0.139-2.108-0.289-3.168-0.42
		c-0.67-0.083-1.333-0.186-2.004-0.265c0.001,0.015,0.003,0.03,0.005,0.045C1132.095,673.644,1135.391,700.039,1138.678,726.43z"/>
	<path style="fill:#FDE4AE;" d="M1300.374,1556.812l-136.229,161.13l-175.147-161.13l-152.453,161.13l-132.97-145.674
		l-90.835,145.674l-58.733-33.54c0.38,1.228,0.804,2.414,1.184,3.642c13.891,42.222,32.141,83.042,55.264,121.876
		c1.145,1.905,2.285,3.854,3.513,5.759c7.751,12.621,16.01,24.774,24.692,36.419l64.916-134.409l163.927,158.463l131.235-213.344
		l188.151,226.26l136.229-211.693l189.247,170.574c34.007-46.287,60.516-95.452,80.292-146.438
		c14.739-37.985,25.749-77.071,33.413-116.836c-68.643,49.42-148.599,107.308-148.599,107.308L1300.374,1556.812z"/>
	<path style="fill:#FDE4AE;" d="M1208.481,2000.143l-175.147-166.129l-129.754,138.01l-155.669-116.75l-51.279,61.53
		c117.978,110.231,284.151,156.558,442.825,138.943c12.448-1.398,24.857-3.177,37.223-5.379
		c96.721-17.023,188.994-58.312,263.693-123.951l-76.18-73.303L1208.481,2000.143z"/>
	<path style="fill:#FFFFFF;" d="M1001.466,895.239c-17.368-26.484-50.669-38.713-82.499-33.226
		c-41.423,7.143-69.515,40.161-83.333,77.937c-1.607,4.401,2.747,7.057,6.351,6.194c-2.795,45.923,30.546,86.658,76.821,92.276
		c48.059,5.835,91.747-28.392,97.578-76.448c0.267-2.198,0.361-4.374,0.462-6.55c0.464-2.124,0.854-4.281,1.121-6.483
		C1020.424,928.711,1013.838,909.512,1001.466,895.239z"/>
	<path style="fill:#F18A84;" d="M1561.197,1025.153c13.003-12.877,21.067-32.324,28.39-48.884
		c6.865-15.52,13.896-31.744,16.131-48.648c0.463-3.481-5.125-4.816-6.592-1.786c-8.039,16.624-12.984,34.594-20.857,51.374
		c-7.055,15.031-17.335,28.984-22.919,44.541C1554.132,1025.151,1558.839,1027.487,1561.197,1025.153z"/>
	<path style="fill:#FFFFFF;" d="M1304.736,895.227c-17.37-26.475-50.665-38.701-82.491-33.214
		c-41.422,7.143-69.515,40.161-83.332,77.937c-1.608,4.401,2.747,7.057,6.351,6.194c-2.795,45.923,30.545,86.658,76.821,92.276
		c48.058,5.835,91.747-28.392,97.578-76.448c0.267-2.198,0.361-4.374,0.462-6.55c0.464-2.124,0.854-4.281,1.122-6.483
		C1323.704,928.705,1317.116,909.502,1304.736,895.227z"/>
	<path style="fill:#F18A84;" d="M1600.213,1044.746c21.715-21.622,38.889-62.514,43.864-92.517c0.526-3.172-4-5.802-5.657-2.385
		c-7.761,16.005-13.437,32.892-21.432,48.824c-7.196,14.346-17.062,27.588-23.157,42.363
		C1592.305,1044.722,1597.708,1047.239,1600.213,1044.746z"/>
	<path style="fill:#F18789;" d="M1120.106,1043.207c4.926-5.99,8.614-14.589,5.257-21.673c-3.835-8.093-14.529-9.413-22.87-7.133
		c-9.384,2.565-17.944,8.336-24.068,16.219c-6.358-11.539-20.102-18.029-32.565-15.381c-4.687,0.994-9.393,3.401-11.795,7.732
		c-4.195,7.581,0.365,17.357,6.446,23.372C1062.328,1067.916,1100.369,1067.195,1120.106,1043.207z"/>
	<path style="fill:#1F1411;" d="M841.985,946.144c1.604-0.385,3.061-1.462,3.773-3.402c17.396-47.317,66.724-80.377,110.01-71.058
		c-37.281-3.571-70.822,23.163-75.364,60.553c-4.609,37.988,22.446,72.519,60.434,77.133c35.78,4.344,68.478-19.422,76.008-53.948
		c0.464-2.124,0.854-4.281,1.121-6.483c2.457-20.229-4.129-39.427-16.502-53.7c-17.368-26.484-50.669-38.713-82.499-33.226
		c-41.423,7.143-69.515,40.161-83.333,77.937C834.026,944.351,838.381,947.007,841.985,946.144z"/>
	<path style="fill:#1F1411;" d="M1145.263,946.144c1.604-0.385,3.061-1.462,3.773-3.402c17.396-47.318,66.727-80.378,110.012-71.058
		c-37.282-3.573-70.825,23.161-75.367,60.553c-4.609,37.988,22.446,72.519,60.434,77.133c35.786,4.344,68.479-19.422,76.008-53.948
		c0.464-2.124,0.854-4.281,1.122-6.483c2.458-20.234-4.13-39.437-16.51-53.712c-17.37-26.475-50.665-38.701-82.491-33.214
		c-41.422,7.143-69.515,40.161-83.332,77.937C1137.304,944.351,1141.659,947.007,1145.263,946.144z"/>
	<path style="fill:#F18A84;" d="M1158.298,867.256c36.263-33.177,80.297-43.912,126.612-24.76
		c8.677,3.589,15.152-11.571,6.441-15.281c-49.364-21.023-107.747-12.604-142.889,30.207
		C1142.854,864.255,1151.575,873.402,1158.298,867.256z"/>
	<path style="fill:#FFFFFF;" d="M1121.19,1140.886c-17.516-3.038-34.721-10.909-47.391-20.707
		c-12.979,10.94-28.66,18.262-44.991,21.033c-3.693,11.614,0.755,29.26,4.229,40.002c2.271,6.711,5.413,13.274,10.319,18.385
		c13.632,14.2,38.348,13.03,53.871,0.923c15.518-12.107,22.836-32.319,24.234-51.956
		C1121.639,1146.041,1121.666,1143.37,1121.19,1140.886z"/>
	<path style="fill:#A5D1D4;" d="M1074.859,1137.463c-0.418-2.322-3.892-2.597-4.955-0.648c-4.497,8.246-4.555,18.536-4.648,27.756
		c-0.097,9.318-0.321,19.737,3.888,28.192c1.282,2.57,6.076,2.188,6.514-0.852c1.301-9.033-0.882-18.19-0.965-27.34
		C1074.61,1155.553,1076.472,1146.344,1074.859,1137.463z"/>
	<path style="fill:#F18A84;" d="M1121.19,1140.886c20.459,3.549,41.328,0.502,55.841-13.898c3.82-3.791-0.185-9.331-4.93-8.465
		c-14.865,2.711-27.693,9.104-43.362,8.405c-18.923-0.843-35.99-8.161-50.309-20.449c-2.797-2.399-6.807-2.726-9.583,0
		c-25.764,25.306-59.732,27.691-91.869,14.232c-6.022-2.521-9.608,7.093-4.336,10.285c17.408,10.541,37.212,13.432,56.166,10.217
		c16.331-2.77,32.012-10.093,44.991-21.033C1086.469,1129.978,1103.674,1137.848,1121.19,1140.886z"/>
	<path style="fill:#3FB17C;" d="M655.893,869.716c-2.142-8.531-4.094-17.111-5.835-25.695c-5.993-29.135-9.828-58.621-12.078-88.255
		c-4.29-57.325-2.446-115.296,2.299-172.67c2.538-30.783,6.035-62.212,13.217-92.55c-4.339,3.345-8.629,6.789-12.821,10.277
		c-6.481,5.391-12.773,11.026-18.858,16.817c-64.658,61.361-108.265,144.729-112.753,238.326c-0.102,2.245-0.2,4.491-0.253,6.736
		c-0.15,4.615-0.224,9.212-0.227,13.792c0,0.102,0.004,0.203,0.004,0.305c0.001,4.21,0.071,8.403,0.193,12.582
		c0.041,1.435,0.119,2.86,0.175,4.291c0.112,2.844,0.231,5.686,0.4,8.516c0.099,1.68,0.227,3.353,0.345,5.029
		c0.183,2.584,0.378,5.166,0.607,7.738c0.155,1.734,0.325,3.464,0.499,5.193c0.254,2.518,0.53,5.031,0.828,7.537
		c0.203,1.715,0.411,3.428,0.635,5.138c0.335,2.555,0.701,5.101,1.081,7.643c0.242,1.623,0.476,3.249,0.735,4.867
		c0.445,2.761,0.93,5.509,1.426,8.254c0.247,1.367,0.474,2.742,0.733,4.105c0.778,4.092,1.604,8.168,2.496,12.221
		c6.238,28.391,15.218,55.931,26.542,82.522c2.593,5.988,5.24,11.97,8.036,17.86c5.983,12.621,12.524,25.094,19.505,37.269
		c21.655,37.866,48.093,73.439,77.83,106.467c11.77-46.896,15.614-99.535,23.994-142.787c1.002-5.137,2.293-10.776,6.54-13.77
		l0.347-0.201C672.755,928.034,663.226,898.851,655.893,869.716z"/>
	<path style="fill:#F18A84;" d="M939.726,1105.382c2.358-1.798,1.16-6.492-2.232-5.289c-14.168,5.029-27.079,13.503-39.824,21.377
		c-12.409,7.666-27.211,15.265-36.765,26.366c-1.594,1.849-0.122,5.654,2.655,4.57c12.901-5.042,24.321-14.765,36.029-22.149
		C912.847,1121.891,927.254,1114.88,939.726,1105.382z"/>
	<path style="fill:#F18A84;" d="M928.954,1079.967c2.685-1.101,2.763-5.913-0.755-5.606c-17.13,1.493-33.71,6.597-50.115,11.569
		c-15.966,4.838-34.367,8.767-48.102,18.441c-2.065,1.454-1.651,5.622,1.442,5.318c15.674-1.535,30.709-8.853,45.724-13.545
		C894.381,1090.763,912.253,1086.827,928.954,1079.967z"/>
	<path style="fill:#F18A84;" d="M1307.044,1125.355c-26.027-10.972-52.175-23.02-79.132-31.498c-3.981-1.252-6.553,4.767-2.85,6.758
		c25.301,13.601,52.638,24.051,79.099,35.206C1310.586,1138.529,1313.392,1128.032,1307.044,1125.355z"/>
	<path style="fill:#F18A84;" d="M1340.374,1061.094c-16.546-0.65-33.111-0.865-49.666-1.206c-14.348-0.294-29.262-2.007-43.298,1.17
		c-2.689,0.609-2.514,4.565,0,5.272c13.798,3.885,29.013,2.928,43.298,3.371c16.551,0.512,33.111,1.155,49.666,1.362
		C1346.81,1071.141,1346.771,1061.345,1340.374,1061.094z"/>
	<path style="fill:#FDE4AE;" d="M1062.746,462.409c-10.575-6.432-21.498-12.469-32.773-17.957c-1.351-0.7-2.696-1.35-4.095-1.996
		c-16.114-7.636-32.577-13.872-49.141-18.661c-2.842,27.99-5.688,55.98-8.531,84.014c-44.401-0.196-88.852-5.787-131.908-16.612
		c-4.294,53.334-8.581,106.765-12.826,160.098c-48.242-14.719-95.735-32.079-142.136-51.934
		c-4.091,53.231-13.668,106.016-28.539,157.251c-5.039,0.699-9.979,0.303-14.817-0.846c-11.271-2.544-22.003-9.132-31.927-15.516
		c-24.596-15.712-49.191-31.482-73.791-47.248c-6.486,23.7-14.318,46.95-23.45,69.701c-0.15,4.615-0.224,9.212-0.227,13.792
		c0,0.102,0.004,0.203,0.004,0.305c0.001,4.21,0.071,8.403,0.193,12.582c0.041,1.435,0.119,2.86,0.175,4.291
		c0.112,2.844,0.231,5.686,0.4,8.516c0.099,1.68,0.227,3.353,0.345,5.029c0.183,2.584,0.378,5.166,0.607,7.738
		c0.155,1.734,0.325,3.464,0.499,5.193c0.254,2.518,0.53,5.031,0.828,7.537c0.203,1.715,0.411,3.428,0.635,5.138
		c0.335,2.555,0.701,5.101,1.081,7.643c0.242,1.623,0.476,3.249,0.735,4.867c0.445,2.761,0.93,5.509,1.426,8.254
		c0.247,1.367,0.474,2.742,0.733,4.105c0.778,4.092,1.604,8.168,2.496,12.221c6.238,28.391,15.218,55.931,26.542,82.522
		c15.865-34.574,29.487-70.248,44.305-105.469c1.198-2.891,2.543-5.987,5.19-7.68c1.73-1.098,3.763-1.444,5.847-1.444
		c1.515,0,3.057,0.183,4.529,0.393c14.969,1.898,29.937,3.84,44.905,5.787c20.898,2.646,41.755,5.341,62.657,8.032
		c13.824-45.052,24.199-91.151,30.983-137.797c26.19,9.083,52.982,16.616,80.075,22.653c19.856,4.437,39.859,7.979,59.967,10.776
		c2.196-18.51,3.742-37.122,4.692-55.73c1.696-31.678,1.594-63.508-0.201-95.191c48.045,6.838,96.537,10.429,145.081,10.727
		C1045.933,559.796,1055.765,511.301,1062.746,462.409z"/>
	<path style="fill:#C4CB8C;" d="M594.778,839.285c1.73-1.098,3.763-1.444,5.847-1.444c1.515,0,3.057,0.183,4.529,0.393
		c14.969,1.898,29.937,3.84,44.905,5.787c-5.993-29.135-9.828-58.621-12.078-88.255c-11.271-2.544-22.003-9.132-31.927-15.516
		c-24.596-15.712-49.191-31.482-73.791-47.248c-6.486,23.7-14.318,46.95-23.45,69.701c-0.15,4.615-0.224,9.212-0.227,13.792
		c0,0.102,0.004,0.203,0.004,0.305c0.001,4.21,0.071,8.403,0.193,12.582c0.041,1.435,0.119,2.86,0.175,4.291
		c0.112,2.844,0.231,5.686,0.4,8.516c0.099,1.68,0.227,3.353,0.345,5.029c0.183,2.584,0.378,5.166,0.607,7.738
		c0.155,1.734,0.325,3.464,0.499,5.193c0.254,2.518,0.53,5.031,0.828,7.537c0.203,1.715,0.411,3.428,0.635,5.138
		c0.335,2.555,0.701,5.101,1.081,7.643c0.242,1.623,0.476,3.249,0.735,4.867c0.445,2.761,0.93,5.509,1.426,8.254
		c0.247,1.367,0.474,2.742,0.733,4.105c0.778,4.092,1.604,8.168,2.496,12.221c6.238,28.391,15.218,55.931,26.542,82.522
		c15.865-34.574,29.487-70.248,44.305-105.469C590.786,844.074,592.131,840.977,594.778,839.285z"/>
	<path style="fill:#F18789;" d="M1601.56,193.608c-20.011-7.591-41.43,6.313-57.169,20.822
		c-71.896,66.288-113.49,158.325-152.582,247.966c-8.348,19.139-16.645,38.301-24.904,57.481l-0.014-0.029
		c-14.733,34.216-29.27,68.518-43.419,102.981c-10.666,25.987-23.182,72.7,11.754,72.7c5.136,0,11.292-1.008,18.637-3.24
		c25.578-7.771,53.023-44.311,75.413-76.664c0-0.001-0.001-0.001-0.003-0.003c10.811-15.624,20.452-30.276,28.124-40.233
		c34.552-44.842,67.103-91.24,97.513-138.996c35.781-56.207,69.478-117.113,72.899-183.656
		C1628.998,229.652,1623.175,201.8,1601.56,193.608z"/>
	<path style="fill:#EE7271;" d="M1323.471,622.828c-10.666,25.987-23.182,72.7,11.754,72.7c5.136,0,11.292-1.008,18.637-3.24
		c25.578-7.771,53.023-44.311,75.413-76.664c0-0.001-0.001-0.001-0.003-0.003c-24.566-29.206-45.544-61.457-62.368-95.746
		c-0.004-0.009-0.009-0.019-0.014-0.029C1352.157,554.063,1337.62,588.366,1323.471,622.828z"/>
</g>
</svg>
